<mxfile host="app.diagrams.net" modified="2023-03-22T14:19:26.935Z" agent="5.0 (Windows NT 10.0; Win64; x64) AppleWebKit/537.36 (KHTML, like Gecko) Chrome/112.0.0.0 Safari/537.36" etag="E_ng63mwxGyzvuQSdLpO" version="21.0.10" type="github" pages="9">
  <diagram id="B2C7q1uq_wKJBg-6AFvX" name="平台功能框架">
    <mxGraphModel dx="650" dy="981" grid="1" gridSize="10" guides="1" tooltips="1" connect="1" arrows="1" fold="1" page="0" pageScale="1" pageWidth="827" pageHeight="1169" math="0" shadow="0">
      <root>
        <mxCell id="0" />
        <mxCell id="1" parent="0" />
        <mxCell id="8-qtl8G_0ErA84S1Un6d-2" value="&lt;font style=&quot;font-size: 23px;&quot;&gt;服务编排层&lt;/font&gt;" style="rounded=0;whiteSpace=wrap;html=1;fillColor=#FFCCCC;" parent="1" vertex="1">
          <mxGeometry x="640" y="43" width="280" height="57" as="geometry" />
        </mxCell>
        <mxCell id="8-qtl8G_0ErA84S1Un6d-3" value="&lt;font style=&quot;font-size: 23px;&quot;&gt;统一门户层&lt;/font&gt;" style="rounded=0;whiteSpace=wrap;html=1;fillColor=#FFCCCC;" parent="1" vertex="1">
          <mxGeometry x="640" y="-40" width="280" height="60" as="geometry" />
        </mxCell>
        <mxCell id="8-qtl8G_0ErA84S1Un6d-4" value="&lt;span style=&quot;font-size: 23px;&quot;&gt;资源开通层&lt;/span&gt;" style="rounded=0;whiteSpace=wrap;html=1;fillColor=#FFCCCC;" parent="1" vertex="1">
          <mxGeometry x="640" y="120" width="280" height="57" as="geometry" />
        </mxCell>
        <mxCell id="8-qtl8G_0ErA84S1Un6d-5" value="&lt;font style=&quot;font-size: 23px;&quot;&gt;平台适配层&lt;/font&gt;" style="rounded=0;whiteSpace=wrap;html=1;fillColor=#FFCCCC;" parent="1" vertex="1">
          <mxGeometry x="640" y="200" width="280" height="57" as="geometry" />
        </mxCell>
        <mxCell id="8-qtl8G_0ErA84S1Un6d-6" value="" style="endArrow=classic;startArrow=classic;html=1;rounded=0;fontFamily=Helvetica;fontSize=23;entryX=0.5;entryY=1;entryDx=0;entryDy=0;" parent="1" source="8-qtl8G_0ErA84S1Un6d-2" target="8-qtl8G_0ErA84S1Un6d-3" edge="1">
          <mxGeometry width="50" height="50" relative="1" as="geometry">
            <mxPoint x="650" y="190" as="sourcePoint" />
            <mxPoint x="700" y="140" as="targetPoint" />
          </mxGeometry>
        </mxCell>
        <mxCell id="8-qtl8G_0ErA84S1Un6d-7" value="" style="endArrow=classic;startArrow=classic;html=1;rounded=0;fontFamily=Helvetica;fontSize=23;exitX=0.5;exitY=0;exitDx=0;exitDy=0;" parent="1" source="8-qtl8G_0ErA84S1Un6d-4" target="8-qtl8G_0ErA84S1Un6d-2" edge="1">
          <mxGeometry width="50" height="50" relative="1" as="geometry">
            <mxPoint x="790" y="53" as="sourcePoint" />
            <mxPoint x="790" y="30" as="targetPoint" />
            <Array as="points">
              <mxPoint x="780" y="100" />
            </Array>
          </mxGeometry>
        </mxCell>
        <mxCell id="8-qtl8G_0ErA84S1Un6d-8" value="" style="endArrow=classic;startArrow=classic;html=1;rounded=0;fontFamily=Helvetica;fontSize=23;entryX=0.5;entryY=1;entryDx=0;entryDy=0;exitX=0.5;exitY=0;exitDx=0;exitDy=0;" parent="1" source="8-qtl8G_0ErA84S1Un6d-5" target="8-qtl8G_0ErA84S1Un6d-4" edge="1">
          <mxGeometry width="50" height="50" relative="1" as="geometry">
            <mxPoint x="800" y="63" as="sourcePoint" />
            <mxPoint x="800" y="40" as="targetPoint" />
          </mxGeometry>
        </mxCell>
        <mxCell id="8-qtl8G_0ErA84S1Un6d-9" value="&lt;font style=&quot;font-size: 23px;&quot;&gt;服&lt;br&gt;务&lt;br&gt;运&lt;br&gt;行&lt;br&gt;管&lt;br&gt;理&lt;br&gt;层&lt;/font&gt;" style="rounded=0;whiteSpace=wrap;html=1;direction=west;flipH=0;flipV=1;verticalAlign=middle;horizontal=1;fillColor=#FFCCCC;" parent="1" vertex="1">
          <mxGeometry x="942" y="-40" width="80" height="300" as="geometry" />
        </mxCell>
        <mxCell id="8-qtl8G_0ErA84S1Un6d-10" value="&lt;span style=&quot;font-size: 23px;&quot;&gt;资&lt;br&gt;源&lt;br&gt;池&lt;br&gt;管&lt;br&gt;理&lt;br&gt;层&lt;/span&gt;" style="rounded=0;whiteSpace=wrap;html=1;direction=west;flipH=0;flipV=1;verticalAlign=middle;horizontal=1;fillColor=#FFCCCC;" parent="1" vertex="1">
          <mxGeometry x="538" y="-40" width="80" height="300" as="geometry" />
        </mxCell>
        <mxCell id="8-qtl8G_0ErA84S1Un6d-11" value="" style="endArrow=classic;startArrow=classic;html=1;rounded=0;fontFamily=Helvetica;fontSize=23;exitX=1;exitY=0.5;exitDx=0;exitDy=0;" parent="1" source="8-qtl8G_0ErA84S1Un6d-3" edge="1">
          <mxGeometry width="50" height="50" relative="1" as="geometry">
            <mxPoint x="790" y="210" as="sourcePoint" />
            <mxPoint x="940" y="-10" as="targetPoint" />
          </mxGeometry>
        </mxCell>
        <mxCell id="8-qtl8G_0ErA84S1Un6d-12" value="" style="endArrow=classic;startArrow=classic;html=1;rounded=0;fontFamily=Helvetica;fontSize=23;exitX=1;exitY=0.5;exitDx=0;exitDy=0;" parent="1" source="8-qtl8G_0ErA84S1Un6d-2" edge="1">
          <mxGeometry width="50" height="50" relative="1" as="geometry">
            <mxPoint x="930" as="sourcePoint" />
            <mxPoint x="940" y="72" as="targetPoint" />
          </mxGeometry>
        </mxCell>
        <mxCell id="8-qtl8G_0ErA84S1Un6d-14" value="" style="endArrow=classic;startArrow=classic;html=1;rounded=0;fontFamily=Helvetica;fontSize=23;exitX=1;exitY=0.5;exitDx=0;exitDy=0;entryX=1.025;entryY=0.628;entryDx=0;entryDy=0;entryPerimeter=0;" parent="1" source="8-qtl8G_0ErA84S1Un6d-4" target="8-qtl8G_0ErA84S1Un6d-9" edge="1">
          <mxGeometry width="50" height="50" relative="1" as="geometry">
            <mxPoint x="930" y="81.5" as="sourcePoint" />
            <mxPoint x="940" y="140" as="targetPoint" />
          </mxGeometry>
        </mxCell>
        <mxCell id="8-qtl8G_0ErA84S1Un6d-15" value="" style="endArrow=classic;startArrow=classic;html=1;rounded=0;fontFamily=Helvetica;fontSize=23;exitX=1;exitY=0.5;exitDx=0;exitDy=0;entryX=1.025;entryY=0.628;entryDx=0;entryDy=0;entryPerimeter=0;" parent="1" edge="1">
          <mxGeometry width="50" height="50" relative="1" as="geometry">
            <mxPoint x="921" y="227.5" as="sourcePoint" />
            <mxPoint x="941" y="227.4000000000001" as="targetPoint" />
          </mxGeometry>
        </mxCell>
        <mxCell id="8-qtl8G_0ErA84S1Un6d-16" value="" style="endArrow=classic;startArrow=classic;html=1;rounded=0;fontFamily=Helvetica;fontSize=23;exitX=1;exitY=0.5;exitDx=0;exitDy=0;entryX=1.025;entryY=0.628;entryDx=0;entryDy=0;entryPerimeter=0;" parent="1" edge="1">
          <mxGeometry width="50" height="50" relative="1" as="geometry">
            <mxPoint x="620" y="237.5" as="sourcePoint" />
            <mxPoint x="640" y="237.4000000000001" as="targetPoint" />
          </mxGeometry>
        </mxCell>
        <mxCell id="8-qtl8G_0ErA84S1Un6d-17" value="" style="endArrow=classic;startArrow=classic;html=1;rounded=0;fontFamily=Helvetica;fontSize=23;exitX=1;exitY=0.5;exitDx=0;exitDy=0;entryX=1.025;entryY=0.628;entryDx=0;entryDy=0;entryPerimeter=0;" parent="1" edge="1">
          <mxGeometry width="50" height="50" relative="1" as="geometry">
            <mxPoint x="620" y="151.5" as="sourcePoint" />
            <mxPoint x="640" y="151.4000000000001" as="targetPoint" />
          </mxGeometry>
        </mxCell>
        <mxCell id="8-qtl8G_0ErA84S1Un6d-18" value="" style="endArrow=classic;startArrow=classic;html=1;rounded=0;fontFamily=Helvetica;fontSize=23;exitX=1;exitY=0.5;exitDx=0;exitDy=0;entryX=1.025;entryY=0.628;entryDx=0;entryDy=0;entryPerimeter=0;" parent="1" edge="1">
          <mxGeometry width="50" height="50" relative="1" as="geometry">
            <mxPoint x="620" y="71.5" as="sourcePoint" />
            <mxPoint x="640" y="71.40000000000009" as="targetPoint" />
          </mxGeometry>
        </mxCell>
        <mxCell id="8-qtl8G_0ErA84S1Un6d-19" value="" style="endArrow=classic;startArrow=classic;html=1;rounded=0;fontFamily=Helvetica;fontSize=23;exitX=1;exitY=0.5;exitDx=0;exitDy=0;entryX=1.025;entryY=0.628;entryDx=0;entryDy=0;entryPerimeter=0;" parent="1" edge="1">
          <mxGeometry width="50" height="50" relative="1" as="geometry">
            <mxPoint x="619" y="-7.5" as="sourcePoint" />
            <mxPoint x="639" y="-7.599999999999909" as="targetPoint" />
          </mxGeometry>
        </mxCell>
      </root>
    </mxGraphModel>
  </diagram>
  <diagram id="qNxGX-nYO9TY-A486KDM" name="CMP Arc">
    <mxGraphModel dx="2009" dy="1129" grid="1" gridSize="10" guides="1" tooltips="1" connect="1" arrows="1" fold="1" page="1" pageScale="1" pageWidth="827" pageHeight="1169" math="0" shadow="0">
      <root>
        <mxCell id="0" />
        <mxCell id="1" parent="0" />
        <mxCell id="2eHr1012W1yFlxzvDTnE-1" value="" style="rounded=1;whiteSpace=wrap;html=1;" parent="1" vertex="1">
          <mxGeometry x="827" y="102.25" width="160" height="680" as="geometry" />
        </mxCell>
        <mxCell id="2eHr1012W1yFlxzvDTnE-2" value="" style="rounded=1;whiteSpace=wrap;html=1;fillColor=#dae8fc;strokeColor=#6c8ebf;fontSize=10;" parent="1" vertex="1">
          <mxGeometry x="840.5" y="594.75" width="136.5" height="180" as="geometry" />
        </mxCell>
        <mxCell id="2eHr1012W1yFlxzvDTnE-3" value="" style="rounded=1;whiteSpace=wrap;html=1;fillColor=#dae8fc;strokeColor=#6c8ebf;fontSize=10;" parent="1" vertex="1">
          <mxGeometry x="840.5" y="441.25" width="136.5" height="142.5" as="geometry" />
        </mxCell>
        <mxCell id="2eHr1012W1yFlxzvDTnE-4" value="" style="rounded=1;whiteSpace=wrap;html=1;fillColor=#dae8fc;strokeColor=#6c8ebf;fontSize=10;" parent="1" vertex="1">
          <mxGeometry x="842.5" y="296.25" width="134.5" height="136.5" as="geometry" />
        </mxCell>
        <mxCell id="2eHr1012W1yFlxzvDTnE-5" value="" style="rounded=1;whiteSpace=wrap;html=1;fillColor=#dae8fc;strokeColor=#6c8ebf;fontSize=10;" parent="1" vertex="1">
          <mxGeometry x="842.5" y="125.75" width="134.5" height="163.5" as="geometry" />
        </mxCell>
        <mxCell id="2eHr1012W1yFlxzvDTnE-6" value="" style="rounded=1;whiteSpace=wrap;html=1;" parent="1" vertex="1">
          <mxGeometry x="217.5" y="576" width="550" height="88.5" as="geometry" />
        </mxCell>
        <mxCell id="2eHr1012W1yFlxzvDTnE-7" value="" style="rounded=1;whiteSpace=wrap;html=1;" parent="1" vertex="1">
          <mxGeometry x="220" y="293.5" width="550" height="255" as="geometry" />
        </mxCell>
        <mxCell id="2eHr1012W1yFlxzvDTnE-8" value="" style="rounded=1;whiteSpace=wrap;html=1;fillColor=#dae8fc;strokeColor=#6c8ebf;fontSize=10;" parent="1" vertex="1">
          <mxGeometry x="245" y="333.5" width="147" height="200" as="geometry" />
        </mxCell>
        <mxCell id="2eHr1012W1yFlxzvDTnE-9" value="" style="rounded=1;whiteSpace=wrap;html=1;" parent="1" vertex="1">
          <mxGeometry x="220" y="80" width="540" height="182" as="geometry" />
        </mxCell>
        <mxCell id="2eHr1012W1yFlxzvDTnE-10" value="" style="rounded=1;whiteSpace=wrap;html=1;fontSize=10;" parent="1" vertex="1">
          <mxGeometry x="30" y="107.75" width="150" height="673.5" as="geometry" />
        </mxCell>
        <mxCell id="2eHr1012W1yFlxzvDTnE-11" value="资源池管理层（C05）" style="rounded=1;whiteSpace=wrap;html=1;strokeColor=#ffffff;fontSize=12;fontStyle=1" parent="1" vertex="1">
          <mxGeometry x="67" y="116.25" width="90" height="40" as="geometry" />
        </mxCell>
        <mxCell id="2eHr1012W1yFlxzvDTnE-12" value="" style="rounded=1;whiteSpace=wrap;html=1;fillColor=#dae8fc;strokeColor=#6c8ebf;fontSize=10;" parent="1" vertex="1">
          <mxGeometry x="40" y="159.25" width="130" height="228.5" as="geometry" />
        </mxCell>
        <mxCell id="2eHr1012W1yFlxzvDTnE-13" value="纳容（C050101）" style="rounded=1;whiteSpace=wrap;html=1;fontSize=10;" parent="1" vertex="1">
          <mxGeometry x="70" y="169.25" width="80" height="30" as="geometry" />
        </mxCell>
        <mxCell id="2eHr1012W1yFlxzvDTnE-14" value="退役（C050103）" style="rounded=1;whiteSpace=wrap;html=1;fontSize=10;" parent="1" vertex="1">
          <mxGeometry x="69" y="252.25" width="80" height="30" as="geometry" />
        </mxCell>
        <mxCell id="2eHr1012W1yFlxzvDTnE-15" value="资源登记管理（C050104）" style="rounded=1;whiteSpace=wrap;html=1;fontSize=10;" parent="1" vertex="1">
          <mxGeometry x="70" y="295.25" width="80" height="30" as="geometry" />
        </mxCell>
        <mxCell id="2eHr1012W1yFlxzvDTnE-16" value="资源及池管理层组件（C0501）" style="rounded=1;whiteSpace=wrap;html=1;strokeColor=#dae8fc;fillColor=#dae8fc;fontSize=10;" parent="1" vertex="1">
          <mxGeometry x="62" y="343.25" width="82" height="30" as="geometry" />
        </mxCell>
        <mxCell id="2eHr1012W1yFlxzvDTnE-17" value="" style="rounded=1;whiteSpace=wrap;html=1;fillColor=#dae8fc;strokeColor=#6c8ebf;fontSize=10;" parent="1" vertex="1">
          <mxGeometry x="50" y="408.75" width="119" height="169.5" as="geometry" />
        </mxCell>
        <mxCell id="2eHr1012W1yFlxzvDTnE-18" value="资源容器管理（C050201）" style="rounded=1;whiteSpace=wrap;html=1;fontSize=10;" parent="1" vertex="1">
          <mxGeometry x="72" y="428.25" width="80" height="30" as="geometry" />
        </mxCell>
        <mxCell id="2eHr1012W1yFlxzvDTnE-19" value="资源池容量管理（C050202）" style="rounded=1;whiteSpace=wrap;html=1;fontSize=10;" parent="1" vertex="1">
          <mxGeometry x="72" y="471.25" width="80" height="50" as="geometry" />
        </mxCell>
        <mxCell id="2eHr1012W1yFlxzvDTnE-20" value="容器组件（C0502）" style="rounded=1;whiteSpace=wrap;html=1;strokeColor=#dae8fc;fillColor=#dae8fc;fontSize=10;" parent="1" vertex="1">
          <mxGeometry x="73" y="532.25" width="77" height="30" as="geometry" />
        </mxCell>
        <mxCell id="2eHr1012W1yFlxzvDTnE-21" value="" style="rounded=1;whiteSpace=wrap;html=1;fillColor=#dae8fc;strokeColor=#6c8ebf;fontSize=10;" parent="1" vertex="1">
          <mxGeometry x="50" y="591.25" width="121.5" height="180" as="geometry" />
        </mxCell>
        <mxCell id="2eHr1012W1yFlxzvDTnE-22" value="服务目录塔删改（C050301）" style="rounded=1;whiteSpace=wrap;html=1;fontSize=10;" parent="1" vertex="1">
          <mxGeometry x="75" y="606.25" width="80" height="50" as="geometry" />
        </mxCell>
        <mxCell id="2eHr1012W1yFlxzvDTnE-23" value="服务目录发布（C050302）" style="rounded=1;whiteSpace=wrap;html=1;fontSize=10;" parent="1" vertex="1">
          <mxGeometry x="75" y="668.75" width="80" height="50" as="geometry" />
        </mxCell>
        <mxCell id="2eHr1012W1yFlxzvDTnE-24" value="服务目录管理（C0503）" style="rounded=1;whiteSpace=wrap;html=1;strokeColor=#dae8fc;fillColor=#dae8fc;fontSize=10;" parent="1" vertex="1">
          <mxGeometry x="80" y="731.25" width="80" height="30" as="geometry" />
        </mxCell>
        <mxCell id="2eHr1012W1yFlxzvDTnE-25" value="" style="rounded=1;whiteSpace=wrap;html=1;fillColor=#dae8fc;strokeColor=#6c8ebf;" parent="1" vertex="1">
          <mxGeometry x="230" y="112" width="520" height="110" as="geometry" />
        </mxCell>
        <mxCell id="2eHr1012W1yFlxzvDTnE-26" value="展现层（C01）" style="rounded=1;whiteSpace=wrap;html=1;strokeColor=#ffffff;fontSize=12;fontStyle=1" parent="1" vertex="1">
          <mxGeometry x="240" y="82" width="470" height="20" as="geometry" />
        </mxCell>
        <mxCell id="2eHr1012W1yFlxzvDTnE-27" value="用户视图（C010101）" style="rounded=1;whiteSpace=wrap;html=1;fontSize=10;" parent="1" vertex="1">
          <mxGeometry x="244" y="118" width="70" height="30" as="geometry" />
        </mxCell>
        <mxCell id="2eHr1012W1yFlxzvDTnE-28" value="资源池视图（C010102）" style="rounded=1;whiteSpace=wrap;html=1;fontSize=10;" parent="1" vertex="1">
          <mxGeometry x="326" y="118" width="70" height="30" as="geometry" />
        </mxCell>
        <mxCell id="2eHr1012W1yFlxzvDTnE-29" value="服务目录（C010103）" style="rounded=1;whiteSpace=wrap;html=1;fontSize=10;" parent="1" vertex="1">
          <mxGeometry x="409" y="117" width="70" height="30" as="geometry" />
        </mxCell>
        <mxCell id="2eHr1012W1yFlxzvDTnE-30" value="角色驱动统一的工作台（C010107）" style="rounded=1;whiteSpace=wrap;html=1;fontSize=10;" parent="1" vertex="1">
          <mxGeometry x="242.5" y="159" width="487.5" height="20" as="geometry" />
        </mxCell>
        <mxCell id="2eHr1012W1yFlxzvDTnE-31" value="运行分析（C010104）" style="rounded=1;whiteSpace=wrap;html=1;fontSize=10;" parent="1" vertex="1">
          <mxGeometry x="485.5" y="117" width="70" height="30" as="geometry" />
        </mxCell>
        <mxCell id="2eHr1012W1yFlxzvDTnE-32" value="服务满意度（C010105）" style="rounded=1;whiteSpace=wrap;html=1;fontSize=10;" parent="1" vertex="1">
          <mxGeometry x="577" y="118" width="70" height="30" as="geometry" />
        </mxCell>
        <mxCell id="2eHr1012W1yFlxzvDTnE-33" value="报表（C010106）" style="rounded=1;whiteSpace=wrap;html=1;fontSize=10;" parent="1" vertex="1">
          <mxGeometry x="658" y="117" width="70" height="30" as="geometry" />
        </mxCell>
        <mxCell id="2eHr1012W1yFlxzvDTnE-34" value="展现平台（C0101）" style="rounded=1;whiteSpace=wrap;html=1;fontSize=10;fillColor=#dae8fc;strokeColor=#000000;" parent="1" vertex="1">
          <mxGeometry x="242.5" y="193" width="487.5" height="19" as="geometry" />
        </mxCell>
        <mxCell id="2eHr1012W1yFlxzvDTnE-35" value="数据汇聚组件（C0102）" style="rounded=1;whiteSpace=wrap;html=1;fontSize=10;fillColor=#dae8fc;strokeColor=#6c8ebf;" parent="1" vertex="1">
          <mxGeometry x="229.5" y="232" width="510.5" height="20" as="geometry" />
        </mxCell>
        <mxCell id="2eHr1012W1yFlxzvDTnE-36" value="服务交付层（C02）" style="rounded=1;whiteSpace=wrap;html=1;strokeColor=#ffffff;fontSize=12;fontStyle=1" parent="1" vertex="1">
          <mxGeometry x="240" y="302.5" width="460" height="20" as="geometry" />
        </mxCell>
        <mxCell id="2eHr1012W1yFlxzvDTnE-37" value="服务请求（C020101）" style="rounded=1;whiteSpace=wrap;html=1;fontSize=10;" parent="1" vertex="1">
          <mxGeometry x="265" y="349.5" width="90" height="30" as="geometry" />
        </mxCell>
        <mxCell id="2eHr1012W1yFlxzvDTnE-38" value="审批流程（C020102）" style="rounded=1;whiteSpace=wrap;html=1;fontSize=10;" parent="1" vertex="1">
          <mxGeometry x="265" y="399.5" width="90" height="30" as="geometry" />
        </mxCell>
        <mxCell id="2eHr1012W1yFlxzvDTnE-39" value="服务变更（C020103）" style="rounded=1;whiteSpace=wrap;html=1;fontSize=10;" parent="1" vertex="1">
          <mxGeometry x="265" y="457.5" width="90" height="30" as="geometry" />
        </mxCell>
        <mxCell id="2eHr1012W1yFlxzvDTnE-40" value="流程引擎（C0201）" style="rounded=1;whiteSpace=wrap;html=1;strokeColor=#dae8fc;fillColor=#dae8fc;fontSize=10;" parent="1" vertex="1">
          <mxGeometry x="265" y="499.5" width="90" height="30" as="geometry" />
        </mxCell>
        <mxCell id="2eHr1012W1yFlxzvDTnE-41" value="" style="rounded=1;whiteSpace=wrap;html=1;fillColor=#dae8fc;strokeColor=#6c8ebf;fontSize=10;" parent="1" vertex="1">
          <mxGeometry x="416.5" y="331.5" width="155.5" height="200" as="geometry" />
        </mxCell>
        <mxCell id="2eHr1012W1yFlxzvDTnE-42" value="资源确认（C020201）" style="rounded=1;whiteSpace=wrap;html=1;fontSize=10;" parent="1" vertex="1">
          <mxGeometry x="439" y="341.5" width="100" height="30" as="geometry" />
        </mxCell>
        <mxCell id="2eHr1012W1yFlxzvDTnE-43" value="服务资源拆解（C020202）" style="rounded=1;whiteSpace=wrap;html=1;fontSize=10;" parent="1" vertex="1">
          <mxGeometry x="438.5" y="375.5" width="100.5" height="30" as="geometry" />
        </mxCell>
        <mxCell id="2eHr1012W1yFlxzvDTnE-44" value="资源部署指令装配（C020203）" style="rounded=1;whiteSpace=wrap;html=1;fontSize=10;" parent="1" vertex="1">
          <mxGeometry x="437.5" y="410.5" width="100.5" height="45" as="geometry" />
        </mxCell>
        <mxCell id="2eHr1012W1yFlxzvDTnE-45" value="装配及任务调度组件（C0202）" style="rounded=1;whiteSpace=wrap;html=1;strokeColor=#dae8fc;fillColor=#dae8fc;fontSize=10;" parent="1" vertex="1">
          <mxGeometry x="437" y="500.5" width="111" height="30" as="geometry" />
        </mxCell>
        <mxCell id="2eHr1012W1yFlxzvDTnE-46" value="任务调度（C020204）" style="rounded=1;whiteSpace=wrap;html=1;fontSize=10;" parent="1" vertex="1">
          <mxGeometry x="437.5" y="460.5" width="100.5" height="30" as="geometry" />
        </mxCell>
        <mxCell id="2eHr1012W1yFlxzvDTnE-47" value="" style="rounded=1;whiteSpace=wrap;html=1;fillColor=#dae8fc;strokeColor=#6c8ebf;fontSize=10;" parent="1" vertex="1">
          <mxGeometry x="591" y="333.5" width="150" height="198" as="geometry" />
        </mxCell>
        <mxCell id="2eHr1012W1yFlxzvDTnE-48" value="部署策略管理（C020301）" style="rounded=1;whiteSpace=wrap;html=1;fontSize=10;" parent="1" vertex="1">
          <mxGeometry x="629.5" y="343.5" width="90" height="30" as="geometry" />
        </mxCell>
        <mxCell id="2eHr1012W1yFlxzvDTnE-49" value="高可用策略管理（C020302）" style="rounded=1;whiteSpace=wrap;html=1;fontSize=10;" parent="1" vertex="1">
          <mxGeometry x="629.5" y="382.5" width="90" height="30" as="geometry" />
        </mxCell>
        <mxCell id="2eHr1012W1yFlxzvDTnE-50" value="弹性计算策略管理（C020303）" style="rounded=1;whiteSpace=wrap;html=1;fontSize=10;" parent="1" vertex="1">
          <mxGeometry x="629.5" y="420" width="90" height="30" as="geometry" />
        </mxCell>
        <mxCell id="2eHr1012W1yFlxzvDTnE-51" value="策略引擎（C0203）" style="rounded=1;whiteSpace=wrap;html=1;strokeColor=#dae8fc;fillColor=#dae8fc;fontSize=10;" parent="1" vertex="1">
          <mxGeometry x="629.5" y="495.5" width="90" height="30" as="geometry" />
        </mxCell>
        <mxCell id="2eHr1012W1yFlxzvDTnE-52" value="能耗策略管理（C020304）" style="rounded=1;whiteSpace=wrap;html=1;fontSize=10;" parent="1" vertex="1">
          <mxGeometry x="629.5" y="461.5" width="90" height="30" as="geometry" />
        </mxCell>
        <mxCell id="2eHr1012W1yFlxzvDTnE-53" value="云主机控制组件（C0301）" style="rounded=1;whiteSpace=wrap;html=1;strokeColor=#dae8fc;fillColor=#dae8fc;fontSize=10;" parent="1" vertex="1">
          <mxGeometry x="233.5" y="615.5" width="90" height="37.5" as="geometry" />
        </mxCell>
        <mxCell id="2eHr1012W1yFlxzvDTnE-54" value="存储控制组件（C0302）" style="rounded=1;whiteSpace=wrap;html=1;strokeColor=#dae8fc;fillColor=#dae8fc;fontSize=10;" parent="1" vertex="1">
          <mxGeometry x="334.5" y="616.5" width="90" height="37.5" as="geometry" />
        </mxCell>
        <mxCell id="2eHr1012W1yFlxzvDTnE-55" value="网络控制组件（C0303）" style="rounded=1;whiteSpace=wrap;html=1;strokeColor=#dae8fc;fillColor=#dae8fc;fontSize=10;" parent="1" vertex="1">
          <mxGeometry x="440.5" y="616.5" width="90" height="37.5" as="geometry" />
        </mxCell>
        <mxCell id="2eHr1012W1yFlxzvDTnE-56" value="资源开通层（C03）" style="rounded=1;whiteSpace=wrap;html=1;strokeColor=#ffffff;fontSize=12;fontStyle=1" parent="1" vertex="1">
          <mxGeometry x="243.75" y="583.5" width="460" height="20" as="geometry" />
        </mxCell>
        <mxCell id="2eHr1012W1yFlxzvDTnE-57" value="" style="rounded=1;whiteSpace=wrap;html=1;" parent="1" vertex="1">
          <mxGeometry x="215" y="681.5" width="550" height="107" as="geometry" />
        </mxCell>
        <mxCell id="2eHr1012W1yFlxzvDTnE-58" value="物理服务器&lt;br&gt;适配器（C0401）" style="rounded=1;whiteSpace=wrap;html=1;strokeColor=#dae8fc;fillColor=#dae8fc;fontSize=10;" parent="1" vertex="1">
          <mxGeometry x="225" y="723.5" width="75" height="50" as="geometry" />
        </mxCell>
        <mxCell id="2eHr1012W1yFlxzvDTnE-59" value="虚拟服务器&lt;br&gt;适配器&lt;br&gt;（C0402）" style="rounded=1;whiteSpace=wrap;html=1;strokeColor=#dae8fc;fillColor=#dae8fc;fontSize=10;" parent="1" vertex="1">
          <mxGeometry x="313.5" y="723.5" width="75" height="50" as="geometry" />
        </mxCell>
        <mxCell id="2eHr1012W1yFlxzvDTnE-60" value="存储适配器（C0403）" style="rounded=1;whiteSpace=wrap;html=1;strokeColor=#dae8fc;fillColor=#dae8fc;fontSize=10;" parent="1" vertex="1">
          <mxGeometry x="396" y="723.5" width="75" height="50" as="geometry" />
        </mxCell>
        <mxCell id="2eHr1012W1yFlxzvDTnE-61" value="适配器层（C04）" style="rounded=1;whiteSpace=wrap;html=1;strokeColor=#ffffff;fontSize=12;fontStyle=1" parent="1" vertex="1">
          <mxGeometry x="240" y="695" width="460" height="20" as="geometry" />
        </mxCell>
        <mxCell id="2eHr1012W1yFlxzvDTnE-62" value="网络适配器（C0404）" style="rounded=1;whiteSpace=wrap;html=1;strokeColor=#dae8fc;fillColor=#dae8fc;fontSize=10;" parent="1" vertex="1">
          <mxGeometry x="482" y="723.5" width="75" height="50" as="geometry" />
        </mxCell>
        <mxCell id="2eHr1012W1yFlxzvDTnE-63" value="安全适配器（C0405）" style="rounded=1;whiteSpace=wrap;html=1;strokeColor=#dae8fc;fillColor=#dae8fc;fontSize=10;" parent="1" vertex="1">
          <mxGeometry x="571" y="723.5" width="75" height="50" as="geometry" />
        </mxCell>
        <mxCell id="2eHr1012W1yFlxzvDTnE-64" value="云平台适配器（C0406）" style="rounded=1;whiteSpace=wrap;html=1;strokeColor=#dae8fc;fillColor=#dae8fc;fontSize=10;aspect=fixed;" parent="1" vertex="1">
          <mxGeometry x="662.94" y="723.5" width="81.06" height="50" as="geometry" />
        </mxCell>
        <mxCell id="2eHr1012W1yFlxzvDTnE-65" value="日常巡检（C060101）" style="rounded=1;whiteSpace=wrap;html=1;fontSize=10;" parent="1" vertex="1">
          <mxGeometry x="857" y="129.75" width="90" height="30" as="geometry" />
        </mxCell>
        <mxCell id="2eHr1012W1yFlxzvDTnE-67" value="合规管理（C060102）" style="rounded=1;whiteSpace=wrap;html=1;fontSize=10;" parent="1" vertex="1">
          <mxGeometry x="860" y="168.25" width="90" height="30" as="geometry" />
        </mxCell>
        <mxCell id="2eHr1012W1yFlxzvDTnE-68" value="日常运行管理组件（C0601）" style="rounded=1;whiteSpace=wrap;html=1;strokeColor=#dae8fc;fillColor=#dae8fc;fontSize=10;" parent="1" vertex="1">
          <mxGeometry x="857" y="247.75" width="100" height="34" as="geometry" />
        </mxCell>
        <mxCell id="2eHr1012W1yFlxzvDTnE-69" value="作业管理（C060103）" style="rounded=1;whiteSpace=wrap;html=1;fontSize=10;" parent="1" vertex="1">
          <mxGeometry x="860" y="208.75" width="90" height="30" as="geometry" />
        </mxCell>
        <mxCell id="2eHr1012W1yFlxzvDTnE-70" value="服务运行管理层（C06）" style="rounded=1;whiteSpace=wrap;html=1;strokeColor=#ffffff;fontSize=12;fontStyle=1" parent="1" vertex="1">
          <mxGeometry x="840.5" y="107.75" width="137.25" height="10" as="geometry" />
        </mxCell>
        <mxCell id="2eHr1012W1yFlxzvDTnE-71" value="配置管理界面（C060201）" style="rounded=1;whiteSpace=wrap;html=1;fontSize=10;" parent="1" vertex="1">
          <mxGeometry x="859" y="304.75" width="90" height="30" as="geometry" />
        </mxCell>
        <mxCell id="2eHr1012W1yFlxzvDTnE-72" value="配置库（C060202）" style="rounded=1;whiteSpace=wrap;html=1;fontSize=10;" parent="1" vertex="1">
          <mxGeometry x="861" y="339.75" width="90" height="30" as="geometry" />
        </mxCell>
        <mxCell id="2eHr1012W1yFlxzvDTnE-73" value="配置组件（C0602）" style="rounded=1;whiteSpace=wrap;html=1;strokeColor=#dae8fc;fillColor=#dae8fc;fontSize=10;" parent="1" vertex="1">
          <mxGeometry x="858" y="406.75" width="94" height="19.5" as="geometry" />
        </mxCell>
        <mxCell id="2eHr1012W1yFlxzvDTnE-74" value="配置发现（C060203）" style="rounded=1;whiteSpace=wrap;html=1;fontSize=10;" parent="1" vertex="1">
          <mxGeometry x="861" y="375.75" width="90" height="30" as="geometry" />
        </mxCell>
        <mxCell id="2eHr1012W1yFlxzvDTnE-75" value="告警管理（C060301）" style="rounded=1;whiteSpace=wrap;html=1;fontSize=10;" parent="1" vertex="1">
          <mxGeometry x="858.5" y="448.75" width="90" height="30" as="geometry" />
        </mxCell>
        <mxCell id="2eHr1012W1yFlxzvDTnE-76" value="性能管理（C060302）" style="rounded=1;whiteSpace=wrap;html=1;fontSize=10;" parent="1" vertex="1">
          <mxGeometry x="858.5" y="484.75" width="90" height="30" as="geometry" />
        </mxCell>
        <mxCell id="2eHr1012W1yFlxzvDTnE-77" value="监控组件（C0603）" style="rounded=1;whiteSpace=wrap;html=1;strokeColor=#dae8fc;fillColor=#dae8fc;fontSize=10;" parent="1" vertex="1">
          <mxGeometry x="853" y="556.25" width="100" height="18" as="geometry" />
        </mxCell>
        <mxCell id="2eHr1012W1yFlxzvDTnE-78" value="能耗监控（C060303）" style="rounded=1;whiteSpace=wrap;html=1;fontSize=10;" parent="1" vertex="1">
          <mxGeometry x="858.5" y="519.25" width="90" height="30" as="geometry" />
        </mxCell>
        <mxCell id="2eHr1012W1yFlxzvDTnE-79" value="用户管理（C060401）" style="rounded=1;whiteSpace=wrap;html=1;fontSize=10;" parent="1" vertex="1">
          <mxGeometry x="855.5" y="601.75" width="90" height="30" as="geometry" />
        </mxCell>
        <mxCell id="2eHr1012W1yFlxzvDTnE-80" value="组织机构管理（C060402）" style="rounded=1;whiteSpace=wrap;html=1;fontSize=10;" parent="1" vertex="1">
          <mxGeometry x="855.5" y="638.75" width="90" height="30" as="geometry" />
        </mxCell>
        <mxCell id="2eHr1012W1yFlxzvDTnE-81" value="权限管理（C060403）" style="rounded=1;whiteSpace=wrap;html=1;fontSize=10;" parent="1" vertex="1">
          <mxGeometry x="855.5" y="674.25" width="90" height="30" as="geometry" />
        </mxCell>
        <mxCell id="2eHr1012W1yFlxzvDTnE-82" value="系统管理组件（C0604）" style="rounded=1;whiteSpace=wrap;html=1;strokeColor=#dae8fc;fillColor=#dae8fc;fontSize=10;" parent="1" vertex="1">
          <mxGeometry x="850.5" y="738.75" width="100" height="34" as="geometry" />
        </mxCell>
        <mxCell id="2eHr1012W1yFlxzvDTnE-83" value="操作审计（C060404）" style="rounded=1;whiteSpace=wrap;html=1;fontSize=10;" parent="1" vertex="1">
          <mxGeometry x="855.5" y="709.75" width="90" height="30" as="geometry" />
        </mxCell>
        <mxCell id="2eHr1012W1yFlxzvDTnE-84" value="变更（C050102）" style="rounded=1;whiteSpace=wrap;html=1;fontSize=10;" parent="1" vertex="1">
          <mxGeometry x="69" y="211.25" width="80" height="30" as="geometry" />
        </mxCell>
        <mxCell id="D8dbh2VkD_vqBMs4qPkK-1" value="安全控制组件（C0303）" style="rounded=1;whiteSpace=wrap;html=1;strokeColor=#dae8fc;fillColor=#dae8fc;fontSize=10;" parent="1" vertex="1">
          <mxGeometry x="544.44" y="616.5" width="90" height="37.5" as="geometry" />
        </mxCell>
        <mxCell id="D8dbh2VkD_vqBMs4qPkK-2" value="云资源配置组件（C0303）" style="rounded=1;whiteSpace=wrap;html=1;strokeColor=#dae8fc;fillColor=#dae8fc;fontSize=10;" parent="1" vertex="1">
          <mxGeometry x="655" y="616.5" width="90" height="37.5" as="geometry" />
        </mxCell>
      </root>
    </mxGraphModel>
  </diagram>
  <diagram id="rp30xNfGFyFwvZZGPz6Q" name="资源申请流程">
    <mxGraphModel dx="2009" dy="1129" grid="1" gridSize="10" guides="1" tooltips="1" connect="1" arrows="1" fold="1" page="1" pageScale="1" pageWidth="827" pageHeight="1169" math="0" shadow="0">
      <root>
        <mxCell id="0" />
        <mxCell id="1" parent="0" />
        <mxCell id="RurmfiLAQptw1c9-49DL-1" style="edgeStyle=orthogonalEdgeStyle;rounded=0;jumpStyle=arc;orthogonalLoop=1;jettySize=auto;html=1;entryX=0;entryY=0.5;entryDx=0;entryDy=0;fontSize=12;fillColor=#a20025;strokeColor=#6F0000;" parent="1" source="RurmfiLAQptw1c9-49DL-3" target="RurmfiLAQptw1c9-49DL-16" edge="1">
          <mxGeometry relative="1" as="geometry" />
        </mxCell>
        <mxCell id="RurmfiLAQptw1c9-49DL-2" style="edgeStyle=orthogonalEdgeStyle;rounded=0;jumpStyle=arc;orthogonalLoop=1;jettySize=auto;html=1;entryX=0;entryY=0.5;entryDx=0;entryDy=0;fontSize=12;fillColor=#008a00;strokeColor=#005700;" parent="1" source="RurmfiLAQptw1c9-49DL-3" target="RurmfiLAQptw1c9-49DL-54" edge="1">
          <mxGeometry relative="1" as="geometry">
            <Array as="points">
              <mxPoint x="160" y="200" />
              <mxPoint x="160" y="462" />
            </Array>
          </mxGeometry>
        </mxCell>
        <mxCell id="RurmfiLAQptw1c9-49DL-3" value="用户" style="rounded=1;whiteSpace=wrap;html=1;fillColor=#dae8fc;strokeColor=#6c8ebf;" parent="1" vertex="1">
          <mxGeometry x="50" y="190" width="80" height="20" as="geometry" />
        </mxCell>
        <mxCell id="RurmfiLAQptw1c9-49DL-4" style="edgeStyle=orthogonalEdgeStyle;rounded=0;orthogonalLoop=1;jettySize=auto;html=1;exitX=1;exitY=0.5;exitDx=0;exitDy=0;" parent="1" source="RurmfiLAQptw1c9-49DL-6" target="RurmfiLAQptw1c9-49DL-8" edge="1">
          <mxGeometry relative="1" as="geometry" />
        </mxCell>
        <mxCell id="RurmfiLAQptw1c9-49DL-5" style="edgeStyle=orthogonalEdgeStyle;rounded=0;orthogonalLoop=1;jettySize=auto;html=1;entryX=0.5;entryY=0;entryDx=0;entryDy=0;fillColor=#ffe6cc;strokeColor=#d79b00;" parent="1" source="RurmfiLAQptw1c9-49DL-6" target="RurmfiLAQptw1c9-49DL-10" edge="1">
          <mxGeometry relative="1" as="geometry" />
        </mxCell>
        <mxCell id="RurmfiLAQptw1c9-49DL-6" value="云组件" style="rounded=0;whiteSpace=wrap;html=1;fillColor=#ffe6cc;strokeColor=#d79b00;" parent="1" vertex="1">
          <mxGeometry x="141" y="80" width="90" height="20" as="geometry" />
        </mxCell>
        <mxCell id="RurmfiLAQptw1c9-49DL-7" value="" style="edgeStyle=orthogonalEdgeStyle;rounded=0;orthogonalLoop=1;jettySize=auto;html=1;fillColor=#ffe6cc;strokeColor=#d79b00;" parent="1" source="RurmfiLAQptw1c9-49DL-8" target="RurmfiLAQptw1c9-49DL-10" edge="1">
          <mxGeometry relative="1" as="geometry" />
        </mxCell>
        <mxCell id="RurmfiLAQptw1c9-49DL-8" value="蓝图编排" style="rounded=0;whiteSpace=wrap;html=1;fillColor=#ffe6cc;strokeColor=#d79b00;" parent="1" vertex="1">
          <mxGeometry x="247" y="80" width="94" height="20" as="geometry" />
        </mxCell>
        <mxCell id="RurmfiLAQptw1c9-49DL-9" value="" style="edgeStyle=orthogonalEdgeStyle;rounded=0;orthogonalLoop=1;jettySize=auto;html=1;fillColor=#ffe6cc;strokeColor=#d79b00;" parent="1" source="RurmfiLAQptw1c9-49DL-10" target="RurmfiLAQptw1c9-49DL-16" edge="1">
          <mxGeometry relative="1" as="geometry" />
        </mxCell>
        <mxCell id="RurmfiLAQptw1c9-49DL-10" value="服务配置（可见性、表单、流程）" style="rounded=0;whiteSpace=wrap;html=1;fillColor=#ffe6cc;strokeColor=#d79b00;" parent="1" vertex="1">
          <mxGeometry x="200" y="141" width="188" height="20" as="geometry" />
        </mxCell>
        <mxCell id="RurmfiLAQptw1c9-49DL-11" value="" style="edgeStyle=orthogonalEdgeStyle;rounded=0;orthogonalLoop=1;jettySize=auto;html=1;" parent="1" source="RurmfiLAQptw1c9-49DL-12" target="RurmfiLAQptw1c9-49DL-19" edge="1">
          <mxGeometry relative="1" as="geometry" />
        </mxCell>
        <mxCell id="RurmfiLAQptw1c9-49DL-12" value="提交资源申请" style="rounded=0;whiteSpace=wrap;html=1;fillColor=#dae8fc;strokeColor=#6c8ebf;" parent="1" vertex="1">
          <mxGeometry x="235" y="246" width="118" height="20" as="geometry" />
        </mxCell>
        <mxCell id="RurmfiLAQptw1c9-49DL-13" value="工单设计" style="rounded=0;whiteSpace=wrap;html=1;fillColor=#ffe6cc;strokeColor=#d79b00;" parent="1" vertex="1">
          <mxGeometry x="350" y="81" width="94" height="20" as="geometry" />
        </mxCell>
        <mxCell id="RurmfiLAQptw1c9-49DL-14" style="edgeStyle=orthogonalEdgeStyle;rounded=0;orthogonalLoop=1;jettySize=auto;html=1;entryX=0.5;entryY=0;entryDx=0;entryDy=0;exitX=0.5;exitY=1;exitDx=0;exitDy=0;fillColor=#ffe6cc;strokeColor=#d79b00;" parent="1" source="RurmfiLAQptw1c9-49DL-13" target="RurmfiLAQptw1c9-49DL-10" edge="1">
          <mxGeometry relative="1" as="geometry">
            <mxPoint x="403" y="150" as="sourcePoint" />
          </mxGeometry>
        </mxCell>
        <mxCell id="RurmfiLAQptw1c9-49DL-15" style="edgeStyle=orthogonalEdgeStyle;rounded=0;orthogonalLoop=1;jettySize=auto;html=1;entryX=0.5;entryY=0;entryDx=0;entryDy=0;fillColor=#a20025;strokeColor=#6F0000;" parent="1" source="RurmfiLAQptw1c9-49DL-16" target="RurmfiLAQptw1c9-49DL-12" edge="1">
          <mxGeometry relative="1" as="geometry" />
        </mxCell>
        <mxCell id="RurmfiLAQptw1c9-49DL-16" value="统一服务目录" style="rounded=0;whiteSpace=wrap;html=1;fillColor=#ffe6cc;strokeColor=#d79b00;" parent="1" vertex="1">
          <mxGeometry x="200" y="190" width="188" height="20" as="geometry" />
        </mxCell>
        <mxCell id="RurmfiLAQptw1c9-49DL-17" value="" style="edgeStyle=orthogonalEdgeStyle;rounded=0;orthogonalLoop=1;jettySize=auto;html=1;startArrow=none;fillColor=#a20025;strokeColor=#6F0000;" parent="1" source="RurmfiLAQptw1c9-49DL-27" target="RurmfiLAQptw1c9-49DL-23" edge="1">
          <mxGeometry relative="1" as="geometry" />
        </mxCell>
        <mxCell id="RurmfiLAQptw1c9-49DL-18" style="edgeStyle=orthogonalEdgeStyle;rounded=0;orthogonalLoop=1;jettySize=auto;html=1;entryX=0.5;entryY=0;entryDx=0;entryDy=0;fontSize=8;fillColor=#a20025;strokeColor=#6F0000;" parent="1" source="RurmfiLAQptw1c9-49DL-19" target="RurmfiLAQptw1c9-49DL-25" edge="1">
          <mxGeometry relative="1" as="geometry" />
        </mxCell>
        <mxCell id="RurmfiLAQptw1c9-49DL-19" value="审批" style="rhombus;whiteSpace=wrap;html=1;rounded=0;fillColor=#d5e8d4;strokeColor=#82b366;" parent="1" vertex="1">
          <mxGeometry x="254.5" y="290" width="79" height="44" as="geometry" />
        </mxCell>
        <mxCell id="RurmfiLAQptw1c9-49DL-20" style="edgeStyle=orthogonalEdgeStyle;rounded=0;orthogonalLoop=1;jettySize=auto;html=1;entryX=1;entryY=0.75;entryDx=0;entryDy=0;fontSize=8;exitX=0.5;exitY=1;exitDx=0;exitDy=0;fillColor=#a20025;strokeColor=#6F0000;" parent="1" source="RurmfiLAQptw1c9-49DL-23" target="RurmfiLAQptw1c9-49DL-25" edge="1">
          <mxGeometry relative="1" as="geometry" />
        </mxCell>
        <mxCell id="RurmfiLAQptw1c9-49DL-21" value="" style="edgeStyle=orthogonalEdgeStyle;rounded=0;orthogonalLoop=1;jettySize=auto;html=1;fontSize=8;fillColor=#a20025;strokeColor=#6F0000;" parent="1" source="RurmfiLAQptw1c9-49DL-23" target="RurmfiLAQptw1c9-49DL-32" edge="1">
          <mxGeometry relative="1" as="geometry" />
        </mxCell>
        <mxCell id="RurmfiLAQptw1c9-49DL-22" style="edgeStyle=orthogonalEdgeStyle;rounded=0;orthogonalLoop=1;jettySize=auto;html=1;entryX=1;entryY=0.5;entryDx=0;entryDy=0;fontSize=8;" parent="1" source="RurmfiLAQptw1c9-49DL-23" target="RurmfiLAQptw1c9-49DL-16" edge="1">
          <mxGeometry relative="1" as="geometry">
            <Array as="points">
              <mxPoint x="450" y="200" />
            </Array>
          </mxGeometry>
        </mxCell>
        <mxCell id="RurmfiLAQptw1c9-49DL-23" value="预算匹配" style="rhombus;whiteSpace=wrap;html=1;rounded=0;" parent="1" vertex="1">
          <mxGeometry x="412" y="287" width="70" height="50" as="geometry" />
        </mxCell>
        <mxCell id="RurmfiLAQptw1c9-49DL-24" style="edgeStyle=orthogonalEdgeStyle;rounded=1;jumpStyle=arc;orthogonalLoop=1;jettySize=auto;html=1;entryX=0.538;entryY=1.4;entryDx=0;entryDy=0;entryPerimeter=0;fontSize=12;" parent="1" source="RurmfiLAQptw1c9-49DL-25" target="RurmfiLAQptw1c9-49DL-3" edge="1">
          <mxGeometry relative="1" as="geometry" />
        </mxCell>
        <mxCell id="RurmfiLAQptw1c9-49DL-25" value="通知服务" style="whiteSpace=wrap;html=1;rounded=0;" parent="1" vertex="1">
          <mxGeometry x="237.5" y="365" width="111" height="24" as="geometry" />
        </mxCell>
        <mxCell id="RurmfiLAQptw1c9-49DL-26" value="" style="edgeStyle=orthogonalEdgeStyle;rounded=0;orthogonalLoop=1;jettySize=auto;html=1;endArrow=none;fillColor=#a20025;strokeColor=#6F0000;" parent="1" source="RurmfiLAQptw1c9-49DL-19" target="RurmfiLAQptw1c9-49DL-27" edge="1">
          <mxGeometry relative="1" as="geometry">
            <mxPoint x="333.5" y="312" as="sourcePoint" />
            <mxPoint x="413" y="312" as="targetPoint" />
          </mxGeometry>
        </mxCell>
        <mxCell id="RurmfiLAQptw1c9-49DL-27" value="&lt;font style=&quot;font-size: 8px;&quot;&gt;&lt;b&gt;Y&lt;/b&gt;&lt;/font&gt;" style="text;html=1;align=center;verticalAlign=middle;resizable=0;points=[];autosize=1;strokeColor=none;fillColor=none;" parent="1" vertex="1">
          <mxGeometry x="364" y="297" width="30" height="30" as="geometry" />
        </mxCell>
        <mxCell id="RurmfiLAQptw1c9-49DL-28" value="&lt;font style=&quot;font-size: 8px;&quot;&gt;&lt;b&gt;N&lt;/b&gt;&lt;/font&gt;" style="text;html=1;align=center;verticalAlign=middle;resizable=0;points=[];autosize=1;strokeColor=none;fillColor=none;" parent="1" vertex="1">
          <mxGeometry x="254.5" y="327" width="30" height="30" as="geometry" />
        </mxCell>
        <mxCell id="RurmfiLAQptw1c9-49DL-29" value="&lt;font style=&quot;font-size: 8px;&quot;&gt;&lt;b&gt;N&lt;/b&gt;&lt;/font&gt;" style="text;html=1;align=center;verticalAlign=middle;resizable=0;points=[];autosize=1;strokeColor=none;fillColor=none;" parent="1" vertex="1">
          <mxGeometry x="418" y="365" width="30" height="30" as="geometry" />
        </mxCell>
        <mxCell id="RurmfiLAQptw1c9-49DL-30" style="edgeStyle=orthogonalEdgeStyle;rounded=0;orthogonalLoop=1;jettySize=auto;html=1;entryX=0.5;entryY=1;entryDx=0;entryDy=0;fontSize=12;fillColor=#a20025;strokeColor=#6F0000;" parent="1" source="RurmfiLAQptw1c9-49DL-32" target="RurmfiLAQptw1c9-49DL-35" edge="1">
          <mxGeometry relative="1" as="geometry" />
        </mxCell>
        <mxCell id="RurmfiLAQptw1c9-49DL-31" style="edgeStyle=orthogonalEdgeStyle;rounded=0;jumpStyle=arc;orthogonalLoop=1;jettySize=auto;html=1;entryX=0.5;entryY=0;entryDx=0;entryDy=0;fontSize=12;fillColor=#a20025;strokeColor=#6F0000;" parent="1" source="RurmfiLAQptw1c9-49DL-32" target="RurmfiLAQptw1c9-49DL-39" edge="1">
          <mxGeometry relative="1" as="geometry" />
        </mxCell>
        <mxCell id="RurmfiLAQptw1c9-49DL-32" value="自动化流程" style="whiteSpace=wrap;html=1;rounded=0;" parent="1" vertex="1">
          <mxGeometry x="541" y="297" width="82" height="30" as="geometry" />
        </mxCell>
        <mxCell id="RurmfiLAQptw1c9-49DL-33" value="&lt;b&gt;预算不足，申请预算&lt;/b&gt;" style="text;html=1;align=center;verticalAlign=middle;resizable=0;points=[];autosize=1;strokeColor=none;fillColor=none;fontSize=8;" parent="1" vertex="1">
          <mxGeometry x="397" y="226" width="100" height="20" as="geometry" />
        </mxCell>
        <mxCell id="RurmfiLAQptw1c9-49DL-34" value="" style="edgeStyle=orthogonalEdgeStyle;rounded=0;orthogonalLoop=1;jettySize=auto;html=1;fontSize=12;fillColor=#a20025;strokeColor=#6F0000;" parent="1" source="RurmfiLAQptw1c9-49DL-35" target="RurmfiLAQptw1c9-49DL-37" edge="1">
          <mxGeometry relative="1" as="geometry" />
        </mxCell>
        <mxCell id="RurmfiLAQptw1c9-49DL-35" value="&lt;font style=&quot;font-size: 12px;&quot;&gt;自动派单（服务团队和派单系统）&lt;/font&gt;" style="whiteSpace=wrap;html=1;rounded=0;fontSize=8;" parent="1" vertex="1">
          <mxGeometry x="628" y="230" width="100" height="34" as="geometry" />
        </mxCell>
        <mxCell id="RurmfiLAQptw1c9-49DL-36" style="edgeStyle=orthogonalEdgeStyle;rounded=0;jumpStyle=arc;orthogonalLoop=1;jettySize=auto;html=1;entryX=0.5;entryY=1;entryDx=0;entryDy=0;fontSize=8;" parent="1" source="RurmfiLAQptw1c9-49DL-37" target="RurmfiLAQptw1c9-49DL-25" edge="1">
          <mxGeometry relative="1" as="geometry">
            <Array as="points">
              <mxPoint x="510" y="131" />
              <mxPoint x="510" y="409" />
              <mxPoint x="293" y="409" />
            </Array>
          </mxGeometry>
        </mxCell>
        <mxCell id="RurmfiLAQptw1c9-49DL-37" value="运维人员处理" style="rounded=1;whiteSpace=wrap;html=1;fontSize=12;fillColor=#d5e8d4;strokeColor=#82b366;" parent="1" vertex="1">
          <mxGeometry x="628" y="121" width="100" height="20" as="geometry" />
        </mxCell>
        <mxCell id="RurmfiLAQptw1c9-49DL-38" value="" style="edgeStyle=orthogonalEdgeStyle;rounded=0;jumpStyle=arc;orthogonalLoop=1;jettySize=auto;html=1;fontSize=12;fillColor=#a20025;strokeColor=#6F0000;" parent="1" source="RurmfiLAQptw1c9-49DL-39" target="RurmfiLAQptw1c9-49DL-41" edge="1">
          <mxGeometry relative="1" as="geometry" />
        </mxCell>
        <mxCell id="RurmfiLAQptw1c9-49DL-39" value="&lt;font style=&quot;font-size: 12px;&quot;&gt;云平台Plugin&lt;/font&gt;" style="whiteSpace=wrap;html=1;rounded=0;fontSize=8;" parent="1" vertex="1">
          <mxGeometry x="628" y="350" width="100" height="34" as="geometry" />
        </mxCell>
        <mxCell id="RurmfiLAQptw1c9-49DL-40" value="" style="edgeStyle=orthogonalEdgeStyle;rounded=0;jumpStyle=arc;orthogonalLoop=1;jettySize=auto;html=1;fontSize=12;fillColor=#a20025;strokeColor=#6F0000;" parent="1" source="RurmfiLAQptw1c9-49DL-41" target="RurmfiLAQptw1c9-49DL-45" edge="1">
          <mxGeometry relative="1" as="geometry" />
        </mxCell>
        <mxCell id="RurmfiLAQptw1c9-49DL-41" value="&lt;font style=&quot;font-size: 12px;&quot;&gt;云平台&lt;/font&gt;" style="whiteSpace=wrap;html=1;rounded=0;fontSize=8;" parent="1" vertex="1">
          <mxGeometry x="629" y="445" width="100" height="34" as="geometry" />
        </mxCell>
        <mxCell id="RurmfiLAQptw1c9-49DL-42" style="edgeStyle=orthogonalEdgeStyle;rounded=0;jumpStyle=arc;orthogonalLoop=1;jettySize=auto;html=1;entryX=0;entryY=0.5;entryDx=0;entryDy=0;fontSize=12;" parent="1" source="RurmfiLAQptw1c9-49DL-45" target="RurmfiLAQptw1c9-49DL-47" edge="1">
          <mxGeometry relative="1" as="geometry" />
        </mxCell>
        <mxCell id="RurmfiLAQptw1c9-49DL-43" style="edgeStyle=orthogonalEdgeStyle;rounded=0;jumpStyle=arc;orthogonalLoop=1;jettySize=auto;html=1;entryX=0;entryY=0.5;entryDx=0;entryDy=0;fontSize=12;" parent="1" source="RurmfiLAQptw1c9-49DL-45" target="RurmfiLAQptw1c9-49DL-48" edge="1">
          <mxGeometry relative="1" as="geometry" />
        </mxCell>
        <mxCell id="RurmfiLAQptw1c9-49DL-44" style="edgeStyle=orthogonalEdgeStyle;rounded=0;jumpStyle=arc;orthogonalLoop=1;jettySize=auto;html=1;entryX=0;entryY=0.5;entryDx=0;entryDy=0;fontSize=12;" parent="1" source="RurmfiLAQptw1c9-49DL-45" target="RurmfiLAQptw1c9-49DL-46" edge="1">
          <mxGeometry relative="1" as="geometry" />
        </mxCell>
        <mxCell id="RurmfiLAQptw1c9-49DL-45" value="&lt;font style=&quot;font-size: 12px;&quot;&gt;云资源&lt;/font&gt;" style="whiteSpace=wrap;html=1;rounded=0;fontSize=8;" parent="1" vertex="1">
          <mxGeometry x="629" y="525" width="100" height="34" as="geometry" />
        </mxCell>
        <mxCell id="RurmfiLAQptw1c9-49DL-46" value="&lt;font style=&quot;font-size: 12px;&quot;&gt;自动回收&lt;/font&gt;" style="whiteSpace=wrap;html=1;rounded=0;fontSize=8;" parent="1" vertex="1">
          <mxGeometry x="769" y="472" width="100" height="34" as="geometry" />
        </mxCell>
        <mxCell id="RurmfiLAQptw1c9-49DL-47" value="&lt;span style=&quot;font-size: 12px;&quot;&gt;手动回收&lt;/span&gt;" style="whiteSpace=wrap;html=1;rounded=0;fontSize=8;fillColor=#dae8fc;strokeColor=#6c8ebf;" parent="1" vertex="1">
          <mxGeometry x="769" y="525" width="100" height="34" as="geometry" />
        </mxCell>
        <mxCell id="RurmfiLAQptw1c9-49DL-48" value="&lt;font style=&quot;font-size: 12px;&quot;&gt;批量回收&lt;/font&gt;" style="whiteSpace=wrap;html=1;rounded=0;fontSize=8;fillColor=#d5e8d4;strokeColor=#82b366;" parent="1" vertex="1">
          <mxGeometry x="769" y="576" width="100" height="34" as="geometry" />
        </mxCell>
        <mxCell id="RurmfiLAQptw1c9-49DL-49" style="edgeStyle=orthogonalEdgeStyle;rounded=0;jumpStyle=arc;orthogonalLoop=1;jettySize=auto;html=1;entryX=0;entryY=0.5;entryDx=0;entryDy=0;fontSize=12;" parent="1" source="RurmfiLAQptw1c9-49DL-50" target="RurmfiLAQptw1c9-49DL-41" edge="1">
          <mxGeometry relative="1" as="geometry" />
        </mxCell>
        <mxCell id="RurmfiLAQptw1c9-49DL-50" value="&lt;font style=&quot;font-size: 12px;&quot;&gt;配置信息采集&lt;/font&gt;" style="whiteSpace=wrap;html=1;rounded=0;fontSize=8;" parent="1" vertex="1">
          <mxGeometry x="410" y="445" width="100" height="34" as="geometry" />
        </mxCell>
        <mxCell id="RurmfiLAQptw1c9-49DL-51" style="edgeStyle=orthogonalEdgeStyle;rounded=0;jumpStyle=arc;orthogonalLoop=1;jettySize=auto;html=1;fontSize=12;fillColor=#008a00;strokeColor=#005700;" parent="1" source="RurmfiLAQptw1c9-49DL-54" target="RurmfiLAQptw1c9-49DL-50" edge="1">
          <mxGeometry relative="1" as="geometry" />
        </mxCell>
        <mxCell id="RurmfiLAQptw1c9-49DL-52" style="edgeStyle=orthogonalEdgeStyle;rounded=0;jumpStyle=arc;orthogonalLoop=1;jettySize=auto;html=1;entryX=0;entryY=0.5;entryDx=0;entryDy=0;fontSize=8;" parent="1" source="RurmfiLAQptw1c9-49DL-54" target="RurmfiLAQptw1c9-49DL-58" edge="1">
          <mxGeometry relative="1" as="geometry" />
        </mxCell>
        <mxCell id="RurmfiLAQptw1c9-49DL-53" style="edgeStyle=orthogonalEdgeStyle;rounded=0;orthogonalLoop=1;jettySize=auto;html=1;" parent="1" source="RurmfiLAQptw1c9-49DL-54" target="RurmfiLAQptw1c9-49DL-66" edge="1">
          <mxGeometry relative="1" as="geometry">
            <Array as="points">
              <mxPoint x="300" y="593" />
            </Array>
          </mxGeometry>
        </mxCell>
        <mxCell id="RurmfiLAQptw1c9-49DL-54" value="&lt;span style=&quot;font-size: 12px;&quot;&gt;自助运维、监控&lt;/span&gt;" style="whiteSpace=wrap;html=1;rounded=0;fontSize=8;fillColor=#dae8fc;strokeColor=#6c8ebf;" parent="1" vertex="1">
          <mxGeometry x="245.75" y="445" width="96.5" height="34" as="geometry" />
        </mxCell>
        <mxCell id="RurmfiLAQptw1c9-49DL-55" value="&lt;font size=&quot;1&quot; style=&quot;&quot;&gt;&lt;b style=&quot;font-size: 8px;&quot;&gt;1.申请资源&lt;/b&gt;&lt;/font&gt;" style="text;html=1;align=center;verticalAlign=middle;resizable=0;points=[];autosize=1;strokeColor=none;fillColor=none;fontSize=12;strokeWidth=0;" parent="1" vertex="1">
          <mxGeometry x="135" y="170" width="60" height="30" as="geometry" />
        </mxCell>
        <mxCell id="RurmfiLAQptw1c9-49DL-56" value="&lt;b&gt;2.提交申请&lt;/b&gt;" style="text;html=1;align=center;verticalAlign=middle;resizable=0;points=[];autosize=1;strokeColor=none;fillColor=none;fontSize=8;" parent="1" vertex="1">
          <mxGeometry x="293" y="220" width="60" height="20" as="geometry" />
        </mxCell>
        <mxCell id="RurmfiLAQptw1c9-49DL-57" style="edgeStyle=orthogonalEdgeStyle;rounded=0;jumpStyle=arc;orthogonalLoop=1;jettySize=auto;html=1;entryX=0;entryY=0.5;entryDx=0;entryDy=0;fontSize=8;" parent="1" source="RurmfiLAQptw1c9-49DL-58" target="RurmfiLAQptw1c9-49DL-41" edge="1">
          <mxGeometry relative="1" as="geometry" />
        </mxCell>
        <mxCell id="RurmfiLAQptw1c9-49DL-58" value="&lt;span style=&quot;font-size: 12px;&quot;&gt;自动化流程引擎&lt;/span&gt;" style="whiteSpace=wrap;html=1;rounded=0;fontSize=8;" parent="1" vertex="1">
          <mxGeometry x="410" y="520" width="100" height="34" as="geometry" />
        </mxCell>
        <mxCell id="RurmfiLAQptw1c9-49DL-59" value="&lt;b&gt;人工处理&lt;/b&gt;" style="text;html=1;align=center;verticalAlign=middle;resizable=0;points=[];autosize=1;strokeColor=none;fillColor=none;fontSize=8;" parent="1" vertex="1">
          <mxGeometry x="660" y="280" width="60" height="20" as="geometry" />
        </mxCell>
        <mxCell id="RurmfiLAQptw1c9-49DL-60" value="&lt;b&gt;自动化处理&lt;/b&gt;" style="text;html=1;align=center;verticalAlign=middle;resizable=0;points=[];autosize=1;strokeColor=none;fillColor=none;fontSize=8;" parent="1" vertex="1">
          <mxGeometry x="670" y="320" width="60" height="20" as="geometry" />
        </mxCell>
        <mxCell id="RurmfiLAQptw1c9-49DL-61" value="普通用户" style="rounded=1;whiteSpace=wrap;html=1;fillColor=#dae8fc;strokeColor=#6c8ebf;" parent="1" vertex="1">
          <mxGeometry x="30" y="441" width="80" height="20" as="geometry" />
        </mxCell>
        <mxCell id="RurmfiLAQptw1c9-49DL-62" value="运维人员" style="rounded=1;whiteSpace=wrap;html=1;fillColor=#d5e8d4;strokeColor=#82b366;" parent="1" vertex="1">
          <mxGeometry x="30" y="482" width="80" height="20" as="geometry" />
        </mxCell>
        <mxCell id="RurmfiLAQptw1c9-49DL-63" value="运营人员" style="rounded=1;whiteSpace=wrap;html=1;fillColor=#ffe6cc;strokeColor=#d79b00;" parent="1" vertex="1">
          <mxGeometry x="30" y="517" width="80" height="20" as="geometry" />
        </mxCell>
        <mxCell id="RurmfiLAQptw1c9-49DL-64" value="&lt;font style=&quot;font-size: 8px;&quot;&gt;&lt;b&gt;Y&lt;/b&gt;&lt;/font&gt;" style="text;html=1;align=center;verticalAlign=middle;resizable=0;points=[];autosize=1;strokeColor=none;fillColor=none;" parent="1" vertex="1">
          <mxGeometry x="480" y="310" width="30" height="30" as="geometry" />
        </mxCell>
        <mxCell id="RurmfiLAQptw1c9-49DL-65" value="&lt;span style=&quot;font-size: 8px;&quot;&gt;&lt;b&gt;自助监控运维&lt;/b&gt;&lt;/span&gt;" style="text;html=1;align=center;verticalAlign=middle;resizable=0;points=[];autosize=1;strokeColor=none;fillColor=none;fontSize=12;strokeWidth=0;" parent="1" vertex="1">
          <mxGeometry x="165" y="280" width="70" height="30" as="geometry" />
        </mxCell>
        <mxCell id="RurmfiLAQptw1c9-49DL-66" value="&lt;span style=&quot;font-size: 12px;&quot;&gt;知识库&lt;/span&gt;" style="whiteSpace=wrap;html=1;rounded=0;fontSize=8;fillColor=#ffe6cc;strokeColor=#d79b00;" parent="1" vertex="1">
          <mxGeometry x="410" y="580" width="100" height="25" as="geometry" />
        </mxCell>
      </root>
    </mxGraphModel>
  </diagram>
  <diagram id="r-OGDqT1aHCuCiQTcY9T" name="组织架构">
    <mxGraphModel dx="2009" dy="1129" grid="1" gridSize="10" guides="1" tooltips="1" connect="1" arrows="1" fold="1" page="1" pageScale="1" pageWidth="827" pageHeight="1169" math="0" shadow="0">
      <root>
        <mxCell id="0" />
        <mxCell id="1" parent="0" />
        <mxCell id="sAm_xM8BK7zL7mElE4nn-1" style="edgeStyle=orthogonalEdgeStyle;rounded=0;orthogonalLoop=1;jettySize=auto;html=1;exitX=0.5;exitY=1;exitDx=0;exitDy=0;entryX=0.5;entryY=0;entryDx=0;entryDy=0;" parent="1" source="sAm_xM8BK7zL7mElE4nn-3" target="sAm_xM8BK7zL7mElE4nn-4" edge="1">
          <mxGeometry relative="1" as="geometry">
            <mxPoint x="250" y="210" as="targetPoint" />
          </mxGeometry>
        </mxCell>
        <mxCell id="sAm_xM8BK7zL7mElE4nn-2" style="edgeStyle=orthogonalEdgeStyle;rounded=0;orthogonalLoop=1;jettySize=auto;html=1;entryX=0.5;entryY=0;entryDx=0;entryDy=0;" parent="1" source="sAm_xM8BK7zL7mElE4nn-3" target="sAm_xM8BK7zL7mElE4nn-5" edge="1">
          <mxGeometry relative="1" as="geometry" />
        </mxCell>
        <mxCell id="sAm_xM8BK7zL7mElE4nn-3" value="父业务组" style="rounded=1;whiteSpace=wrap;html=1;" parent="1" vertex="1">
          <mxGeometry x="310" y="80" width="130" height="50" as="geometry" />
        </mxCell>
        <mxCell id="sAm_xM8BK7zL7mElE4nn-4" value="子业务组2" style="rounded=1;whiteSpace=wrap;html=1;" parent="1" vertex="1">
          <mxGeometry x="430" y="180" width="120" height="40" as="geometry" />
        </mxCell>
        <mxCell id="sAm_xM8BK7zL7mElE4nn-5" value="子业务组1" style="rounded=1;whiteSpace=wrap;html=1;" parent="1" vertex="1">
          <mxGeometry x="210" y="180" width="120" height="40" as="geometry" />
        </mxCell>
        <mxCell id="sAm_xM8BK7zL7mElE4nn-6" style="edgeStyle=orthogonalEdgeStyle;rounded=0;orthogonalLoop=1;jettySize=auto;html=1;entryX=0.5;entryY=1;entryDx=0;entryDy=0;fillColor=#dae8fc;strokeColor=#6c8ebf;strokeWidth=2;" parent="1" source="sAm_xM8BK7zL7mElE4nn-7" target="sAm_xM8BK7zL7mElE4nn-5" edge="1">
          <mxGeometry relative="1" as="geometry" />
        </mxCell>
        <mxCell id="sAm_xM8BK7zL7mElE4nn-7" value="项目1" style="rounded=1;whiteSpace=wrap;html=1;" parent="1" vertex="1">
          <mxGeometry x="170" y="260" width="120" height="40" as="geometry" />
        </mxCell>
        <mxCell id="sAm_xM8BK7zL7mElE4nn-8" style="edgeStyle=orthogonalEdgeStyle;rounded=0;orthogonalLoop=1;jettySize=auto;html=1;exitX=0.5;exitY=0;exitDx=0;exitDy=0;strokeColor=#6c8ebf;strokeWidth=2;fillColor=#dae8fc;" parent="1" source="sAm_xM8BK7zL7mElE4nn-9" edge="1">
          <mxGeometry relative="1" as="geometry">
            <mxPoint x="270" y="220" as="targetPoint" />
          </mxGeometry>
        </mxCell>
        <mxCell id="sAm_xM8BK7zL7mElE4nn-9" value="项目2" style="rounded=1;whiteSpace=wrap;html=1;" parent="1" vertex="1">
          <mxGeometry x="330" y="260" width="120" height="40" as="geometry" />
        </mxCell>
        <mxCell id="sAm_xM8BK7zL7mElE4nn-10" style="edgeStyle=orthogonalEdgeStyle;rounded=0;orthogonalLoop=1;jettySize=auto;html=1;entryX=0.5;entryY=1;entryDx=0;entryDy=0;fillColor=#fff2cc;strokeColor=#d6b656;strokeWidth=2;" parent="1" source="sAm_xM8BK7zL7mElE4nn-11" target="sAm_xM8BK7zL7mElE4nn-4" edge="1">
          <mxGeometry relative="1" as="geometry" />
        </mxCell>
        <mxCell id="sAm_xM8BK7zL7mElE4nn-11" value="项目3" style="rounded=1;whiteSpace=wrap;html=1;" parent="1" vertex="1">
          <mxGeometry x="480" y="260" width="120" height="40" as="geometry" />
        </mxCell>
        <mxCell id="sAm_xM8BK7zL7mElE4nn-12" value="混合云管理平台" style="text;html=1;align=center;verticalAlign=middle;resizable=0;points=[];autosize=1;strokeColor=none;fillColor=none;" parent="1" vertex="1">
          <mxGeometry x="20" y="50" width="110" height="30" as="geometry" />
        </mxCell>
        <mxCell id="sAm_xM8BK7zL7mElE4nn-13" value="正大天晴" style="text;html=1;align=center;verticalAlign=middle;resizable=0;points=[];autosize=1;strokeColor=none;fillColor=none;" parent="1" vertex="1">
          <mxGeometry x="623" y="50" width="70" height="30" as="geometry" />
        </mxCell>
        <mxCell id="sAm_xM8BK7zL7mElE4nn-14" value="" style="shape=curlyBracket;whiteSpace=wrap;html=1;rounded=1;labelPosition=left;verticalLabelPosition=middle;align=right;verticalAlign=middle;" parent="1" vertex="1">
          <mxGeometry x="130" y="80" width="20" height="130" as="geometry" />
        </mxCell>
        <mxCell id="sAm_xM8BK7zL7mElE4nn-15" value="" style="shape=curlyBracket;whiteSpace=wrap;html=1;rounded=1;labelPosition=left;verticalLabelPosition=middle;align=right;verticalAlign=middle;" parent="1" vertex="1">
          <mxGeometry x="130" y="220" width="20" height="90" as="geometry" />
        </mxCell>
        <mxCell id="sAm_xM8BK7zL7mElE4nn-16" value="" style="shape=curlyBracket;whiteSpace=wrap;html=1;rounded=1;flipH=1;labelPosition=right;verticalLabelPosition=middle;align=left;verticalAlign=middle;" parent="1" vertex="1">
          <mxGeometry x="613" y="85" width="20" height="125" as="geometry" />
        </mxCell>
        <mxCell id="sAm_xM8BK7zL7mElE4nn-17" value="" style="shape=curlyBracket;whiteSpace=wrap;html=1;rounded=1;flipH=1;labelPosition=right;verticalLabelPosition=middle;align=left;verticalAlign=middle;" parent="1" vertex="1">
          <mxGeometry x="613" y="220" width="20" height="90" as="geometry" />
        </mxCell>
        <mxCell id="sAm_xM8BK7zL7mElE4nn-18" value="多级业务组" style="text;html=1;align=center;verticalAlign=middle;resizable=0;points=[];autosize=1;strokeColor=none;fillColor=none;" parent="1" vertex="1">
          <mxGeometry x="35" y="125" width="80" height="30" as="geometry" />
        </mxCell>
        <mxCell id="sAm_xM8BK7zL7mElE4nn-19" value="项目" style="text;html=1;align=center;verticalAlign=middle;resizable=0;points=[];autosize=1;strokeColor=none;fillColor=none;" parent="1" vertex="1">
          <mxGeometry x="50" y="250" width="50" height="30" as="geometry" />
        </mxCell>
        <mxCell id="sAm_xM8BK7zL7mElE4nn-20" value="组织部门" style="text;html=1;align=center;verticalAlign=middle;resizable=0;points=[];autosize=1;strokeColor=none;fillColor=none;" parent="1" vertex="1">
          <mxGeometry x="658" y="130" width="70" height="30" as="geometry" />
        </mxCell>
        <mxCell id="sAm_xM8BK7zL7mElE4nn-21" value="应用系统" style="text;html=1;align=center;verticalAlign=middle;resizable=0;points=[];autosize=1;strokeColor=none;fillColor=none;" parent="1" vertex="1">
          <mxGeometry x="658" y="250" width="70" height="30" as="geometry" />
        </mxCell>
      </root>
    </mxGraphModel>
  </diagram>
  <diagram id="ERKz1RzUJvYKZ3CAryAS" name="VMware集群规划">
    <mxGraphModel dx="2009" dy="1129" grid="1" gridSize="10" guides="1" tooltips="1" connect="1" arrows="1" fold="1" page="1" pageScale="1" pageWidth="827" pageHeight="1169" math="0" shadow="0">
      <root>
        <mxCell id="0" />
        <mxCell id="1" parent="0" />
        <mxCell id="gb5cSRD6Weh6jTRh4IvH-1" value="&lt;font style=&quot;font-size: 17px;&quot; color=&quot;#ffffff&quot;&gt;云平台入口（Vmware云平台接口）&lt;/font&gt;" style="rounded=0;whiteSpace=wrap;html=1;fillColor=#3333FF;" parent="1" vertex="1">
          <mxGeometry x="140" y="408" width="440" height="60" as="geometry" />
        </mxCell>
        <mxCell id="gb5cSRD6Weh6jTRh4IvH-2" style="edgeStyle=orthogonalEdgeStyle;rounded=0;orthogonalLoop=1;jettySize=auto;html=1;entryX=0.5;entryY=1;entryDx=0;entryDy=0;strokeWidth=2;fontSize=14;fontColor=#000000;fillColor=#dae8fc;strokeColor=#6c8ebf;" parent="1" source="gb5cSRD6Weh6jTRh4IvH-3" target="gb5cSRD6Weh6jTRh4IvH-12" edge="1">
          <mxGeometry relative="1" as="geometry" />
        </mxCell>
        <mxCell id="gb5cSRD6Weh6jTRh4IvH-3" value="&lt;font color=&quot;#ffffff&quot;&gt;专享资源池1&lt;br&gt;（Vmware集群1）&lt;/font&gt;" style="rounded=1;whiteSpace=wrap;html=1;fillColor=#3399FF;" parent="1" vertex="1">
          <mxGeometry x="140" y="345" width="140" height="50" as="geometry" />
        </mxCell>
        <mxCell id="gb5cSRD6Weh6jTRh4IvH-4" style="edgeStyle=orthogonalEdgeStyle;rounded=0;orthogonalLoop=1;jettySize=auto;html=1;entryX=0.5;entryY=1;entryDx=0;entryDy=0;strokeWidth=2;fontSize=14;fontColor=#000000;fillColor=#dae8fc;strokeColor=#6c8ebf;" parent="1" target="gb5cSRD6Weh6jTRh4IvH-13" edge="1">
          <mxGeometry relative="1" as="geometry">
            <mxPoint x="310" y="345" as="sourcePoint" />
          </mxGeometry>
        </mxCell>
        <mxCell id="gb5cSRD6Weh6jTRh4IvH-5" value="&lt;font color=&quot;#ffffff&quot;&gt;专享资源池2&lt;br&gt;（Vmware集群2）&lt;/font&gt;" style="rounded=1;whiteSpace=wrap;html=1;fillColor=#3399FF;" parent="1" vertex="1">
          <mxGeometry x="301.5" y="345" width="128.5" height="50" as="geometry" />
        </mxCell>
        <mxCell id="gb5cSRD6Weh6jTRh4IvH-6" style="edgeStyle=orthogonalEdgeStyle;rounded=0;orthogonalLoop=1;jettySize=auto;html=1;strokeWidth=2;fillColor=#dae8fc;strokeColor=#6c8ebf;" parent="1" source="gb5cSRD6Weh6jTRh4IvH-7" target="gb5cSRD6Weh6jTRh4IvH-14" edge="1">
          <mxGeometry relative="1" as="geometry" />
        </mxCell>
        <mxCell id="gb5cSRD6Weh6jTRh4IvH-7" value="&lt;font color=&quot;#ffffff&quot;&gt;专享资源池3&lt;br&gt;（Vmware集群3）&lt;/font&gt;" style="rounded=1;whiteSpace=wrap;html=1;fillColor=#3399FF;" parent="1" vertex="1">
          <mxGeometry x="445" y="344" width="130" height="50" as="geometry" />
        </mxCell>
        <mxCell id="gb5cSRD6Weh6jTRh4IvH-8" style="edgeStyle=orthogonalEdgeStyle;rounded=0;orthogonalLoop=1;jettySize=auto;html=1;entryX=0.5;entryY=0;entryDx=0;entryDy=0;fontSize=14;fontColor=#FFFFFF;strokeWidth=2;fillColor=#ffe6cc;strokeColor=#d79b00;" parent="1" source="gb5cSRD6Weh6jTRh4IvH-11" target="gb5cSRD6Weh6jTRh4IvH-12" edge="1">
          <mxGeometry relative="1" as="geometry">
            <Array as="points">
              <mxPoint x="364" y="220" />
              <mxPoint x="210" y="220" />
            </Array>
          </mxGeometry>
        </mxCell>
        <mxCell id="gb5cSRD6Weh6jTRh4IvH-9" value="" style="edgeStyle=orthogonalEdgeStyle;rounded=0;orthogonalLoop=1;jettySize=auto;html=1;strokeWidth=2;fontSize=14;fontColor=#FFFFFF;fillColor=#ffe6cc;strokeColor=#d79b00;" parent="1" source="gb5cSRD6Weh6jTRh4IvH-11" target="gb5cSRD6Weh6jTRh4IvH-13" edge="1">
          <mxGeometry relative="1" as="geometry" />
        </mxCell>
        <mxCell id="gb5cSRD6Weh6jTRh4IvH-10" style="edgeStyle=orthogonalEdgeStyle;rounded=0;orthogonalLoop=1;jettySize=auto;html=1;entryX=0.5;entryY=0;entryDx=0;entryDy=0;strokeWidth=2;fontSize=14;fontColor=#FFFFFF;fillColor=#ffe6cc;strokeColor=#d79b00;" parent="1" source="gb5cSRD6Weh6jTRh4IvH-11" target="gb5cSRD6Weh6jTRh4IvH-14" edge="1">
          <mxGeometry relative="1" as="geometry">
            <Array as="points">
              <mxPoint x="364" y="220" />
              <mxPoint x="510" y="220" />
            </Array>
          </mxGeometry>
        </mxCell>
        <mxCell id="gb5cSRD6Weh6jTRh4IvH-11" value="&lt;span style=&quot;font-size: 14px;&quot;&gt;职能总部&lt;/span&gt;" style="rounded=0;whiteSpace=wrap;html=1;fontSize=17;fillColor=#ffe6cc;strokeColor=#d79b00;" parent="1" vertex="1">
          <mxGeometry x="314" y="170" width="100" height="40" as="geometry" />
        </mxCell>
        <mxCell id="gb5cSRD6Weh6jTRh4IvH-12" value="&lt;font style=&quot;font-size: 14px;&quot;&gt;研究所&lt;/font&gt;" style="rounded=0;whiteSpace=wrap;html=1;fontSize=17;fillColor=#ffe6cc;strokeColor=#d79b00;" parent="1" vertex="1">
          <mxGeometry x="160" y="240" width="100" height="40" as="geometry" />
        </mxCell>
        <mxCell id="gb5cSRD6Weh6jTRh4IvH-13" value="&lt;font style=&quot;font-size: 14px;&quot;&gt;信息技术中心&lt;/font&gt;" style="rounded=0;whiteSpace=wrap;html=1;fontSize=17;fillColor=#ffe6cc;strokeColor=#d79b00;" parent="1" vertex="1">
          <mxGeometry x="314" y="240" width="100" height="40" as="geometry" />
        </mxCell>
        <mxCell id="gb5cSRD6Weh6jTRh4IvH-14" value="&lt;span style=&quot;font-size: 14px;&quot;&gt;产区部门&lt;/span&gt;" style="rounded=0;whiteSpace=wrap;html=1;fontSize=17;fillColor=#ffe6cc;strokeColor=#d79b00;" parent="1" vertex="1">
          <mxGeometry x="460" y="240" width="100" height="40" as="geometry" />
        </mxCell>
        <mxCell id="gb5cSRD6Weh6jTRh4IvH-15" value="&lt;font color=&quot;#000000&quot;&gt;&lt;b&gt;混合云管理平台&lt;/b&gt;&lt;/font&gt;" style="text;html=1;align=center;verticalAlign=middle;resizable=0;points=[];autosize=1;strokeColor=none;fillColor=none;fontSize=14;fontColor=#FFFFFF;" parent="1" vertex="1">
          <mxGeometry x="30" y="130" width="120" height="30" as="geometry" />
        </mxCell>
        <mxCell id="gb5cSRD6Weh6jTRh4IvH-16" value="&lt;font color=&quot;#000000&quot;&gt;&lt;b&gt;正大天晴实际场景&lt;/b&gt;&lt;/font&gt;" style="text;html=1;align=center;verticalAlign=middle;resizable=0;points=[];autosize=1;strokeColor=none;fillColor=none;fontSize=14;fontColor=#FFFFFF;" parent="1" vertex="1">
          <mxGeometry x="560" y="140" width="140" height="30" as="geometry" />
        </mxCell>
        <mxCell id="gb5cSRD6Weh6jTRh4IvH-17" value="" style="shape=curlyBracket;whiteSpace=wrap;html=1;rounded=1;strokeColor=#d79b00;fontSize=14;fillColor=#ffe6cc;strokeWidth=3;" parent="1" vertex="1">
          <mxGeometry x="100" y="170" width="20" height="120" as="geometry" />
        </mxCell>
        <mxCell id="gb5cSRD6Weh6jTRh4IvH-18" value="&lt;font color=&quot;#000000&quot;&gt;&lt;b&gt;业务组&lt;/b&gt;&lt;/font&gt;" style="text;html=1;align=center;verticalAlign=middle;resizable=0;points=[];autosize=1;strokeColor=none;fillColor=none;fontSize=14;fontColor=#FFFFFF;" parent="1" vertex="1">
          <mxGeometry x="30" y="215" width="70" height="30" as="geometry" />
        </mxCell>
        <mxCell id="gb5cSRD6Weh6jTRh4IvH-19" value="" style="shape=curlyBracket;whiteSpace=wrap;html=1;rounded=1;flipH=1;strokeColor=#d79b00;strokeWidth=3;fontSize=14;fillColor=#ffe6cc;" parent="1" vertex="1">
          <mxGeometry x="590" y="170" width="20" height="120" as="geometry" />
        </mxCell>
        <mxCell id="gb5cSRD6Weh6jTRh4IvH-20" value="&lt;font color=&quot;#000000&quot;&gt;&lt;b&gt;组织架构&lt;/b&gt;&lt;/font&gt;" style="text;html=1;align=center;verticalAlign=middle;resizable=0;points=[];autosize=1;strokeColor=none;fillColor=none;fontSize=14;fontColor=#FFFFFF;" parent="1" vertex="1">
          <mxGeometry x="610" y="215" width="80" height="30" as="geometry" />
        </mxCell>
        <mxCell id="gb5cSRD6Weh6jTRh4IvH-21" value="" style="shape=curlyBracket;whiteSpace=wrap;html=1;rounded=1;strokeColor=#d79b00;fontSize=14;fillColor=#ffe6cc;strokeWidth=3;" parent="1" vertex="1">
          <mxGeometry x="100" y="310" width="20" height="90" as="geometry" />
        </mxCell>
        <mxCell id="gb5cSRD6Weh6jTRh4IvH-22" value="&lt;font color=&quot;#000000&quot;&gt;&lt;b&gt;资源池&lt;/b&gt;&lt;/font&gt;" style="text;html=1;align=center;verticalAlign=middle;resizable=0;points=[];autosize=1;strokeColor=none;fillColor=none;fontSize=14;fontColor=#FFFFFF;" parent="1" vertex="1">
          <mxGeometry x="30" y="340" width="70" height="30" as="geometry" />
        </mxCell>
        <mxCell id="gb5cSRD6Weh6jTRh4IvH-23" value="" style="shape=curlyBracket;whiteSpace=wrap;html=1;rounded=1;flipH=1;strokeColor=#d79b00;strokeWidth=3;fontSize=14;fillColor=#ffe6cc;" parent="1" vertex="1">
          <mxGeometry x="590" y="310" width="20" height="90" as="geometry" />
        </mxCell>
        <mxCell id="gb5cSRD6Weh6jTRh4IvH-24" value="&lt;font color=&quot;#000000&quot;&gt;&lt;b&gt;集群&lt;/b&gt;&lt;/font&gt;" style="text;html=1;align=center;verticalAlign=middle;resizable=0;points=[];autosize=1;strokeColor=none;fillColor=none;fontSize=14;fontColor=#FFFFFF;" parent="1" vertex="1">
          <mxGeometry x="625" y="345" width="50" height="30" as="geometry" />
        </mxCell>
        <mxCell id="gb5cSRD6Weh6jTRh4IvH-25" value="" style="shape=curlyBracket;whiteSpace=wrap;html=1;rounded=1;strokeColor=#d79b00;fontSize=14;fillColor=#ffe6cc;strokeWidth=3;" parent="1" vertex="1">
          <mxGeometry x="100" y="408" width="20" height="62" as="geometry" />
        </mxCell>
        <mxCell id="gb5cSRD6Weh6jTRh4IvH-26" value="&lt;font color=&quot;#000000&quot;&gt;&lt;b&gt;云平台&lt;/b&gt;&lt;/font&gt;" style="text;html=1;align=center;verticalAlign=middle;resizable=0;points=[];autosize=1;strokeColor=none;fillColor=none;fontSize=14;fontColor=#FFFFFF;" parent="1" vertex="1">
          <mxGeometry x="30" y="423" width="70" height="30" as="geometry" />
        </mxCell>
        <mxCell id="gb5cSRD6Weh6jTRh4IvH-27" value="" style="shape=curlyBracket;whiteSpace=wrap;html=1;rounded=1;flipH=1;strokeColor=#d79b00;strokeWidth=3;fontSize=14;fillColor=#ffe6cc;" parent="1" vertex="1">
          <mxGeometry x="590" y="408" width="20" height="62" as="geometry" />
        </mxCell>
        <mxCell id="gb5cSRD6Weh6jTRh4IvH-28" value="&lt;font color=&quot;#000000&quot;&gt;&lt;b&gt;Vmware云平台&lt;/b&gt;&lt;/font&gt;" style="text;html=1;align=center;verticalAlign=middle;resizable=0;points=[];autosize=1;strokeColor=none;fillColor=none;fontSize=14;fontColor=#FFFFFF;" parent="1" vertex="1">
          <mxGeometry x="610" y="424" width="110" height="30" as="geometry" />
        </mxCell>
      </root>
    </mxGraphModel>
  </diagram>
  <diagram id="8p_3GsbF40Mame6URpzE" name="公有云">
    <mxGraphModel dx="2009" dy="1129" grid="1" gridSize="10" guides="1" tooltips="1" connect="1" arrows="1" fold="1" page="1" pageScale="1" pageWidth="827" pageHeight="1169" math="0" shadow="0">
      <root>
        <mxCell id="0" />
        <mxCell id="1" parent="0" />
        <mxCell id="Gz_gR0_rckUw40uQfsCe-1" value="&lt;font style=&quot;font-size: 17px;&quot; color=&quot;#ffffff&quot;&gt;云平台入口（阿里云云平台接口）&lt;/font&gt;" style="rounded=0;whiteSpace=wrap;html=1;fillColor=#3333FF;" parent="1" vertex="1">
          <mxGeometry x="140" y="408" width="440" height="60" as="geometry" />
        </mxCell>
        <mxCell id="Gz_gR0_rckUw40uQfsCe-2" style="edgeStyle=orthogonalEdgeStyle;rounded=0;orthogonalLoop=1;jettySize=auto;html=1;entryX=0.5;entryY=1;entryDx=0;entryDy=0;strokeWidth=2;fontSize=14;fontColor=#000000;fillColor=#dae8fc;strokeColor=#6c8ebf;" parent="1" source="Gz_gR0_rckUw40uQfsCe-3" target="Gz_gR0_rckUw40uQfsCe-12" edge="1">
          <mxGeometry relative="1" as="geometry" />
        </mxCell>
        <mxCell id="Gz_gR0_rckUw40uQfsCe-3" value="&lt;font color=&quot;#ffffff&quot;&gt;专享资源池1&lt;br&gt;（阿里云资源集1）&lt;/font&gt;" style="rounded=1;whiteSpace=wrap;html=1;fillColor=#3399FF;" parent="1" vertex="1">
          <mxGeometry x="140" y="345" width="140" height="50" as="geometry" />
        </mxCell>
        <mxCell id="Gz_gR0_rckUw40uQfsCe-4" style="edgeStyle=orthogonalEdgeStyle;rounded=0;orthogonalLoop=1;jettySize=auto;html=1;entryX=0.5;entryY=1;entryDx=0;entryDy=0;strokeWidth=2;fontSize=14;fontColor=#000000;fillColor=#dae8fc;strokeColor=#6c8ebf;" parent="1" target="Gz_gR0_rckUw40uQfsCe-13" edge="1">
          <mxGeometry relative="1" as="geometry">
            <mxPoint x="310" y="345" as="sourcePoint" />
          </mxGeometry>
        </mxCell>
        <mxCell id="Gz_gR0_rckUw40uQfsCe-5" value="&lt;font color=&quot;#ffffff&quot;&gt;专享资源池2&lt;br&gt;（阿里云资源集2）&lt;/font&gt;" style="rounded=1;whiteSpace=wrap;html=1;fillColor=#3399FF;" parent="1" vertex="1">
          <mxGeometry x="301.5" y="345" width="128.5" height="50" as="geometry" />
        </mxCell>
        <mxCell id="Gz_gR0_rckUw40uQfsCe-6" style="edgeStyle=orthogonalEdgeStyle;rounded=0;orthogonalLoop=1;jettySize=auto;html=1;strokeWidth=2;fillColor=#dae8fc;strokeColor=#6c8ebf;" parent="1" source="Gz_gR0_rckUw40uQfsCe-7" target="Gz_gR0_rckUw40uQfsCe-14" edge="1">
          <mxGeometry relative="1" as="geometry" />
        </mxCell>
        <mxCell id="Gz_gR0_rckUw40uQfsCe-7" value="&lt;font color=&quot;#ffffff&quot;&gt;专享资源池3&lt;br&gt;（阿里云资源集3）&lt;/font&gt;" style="rounded=1;whiteSpace=wrap;html=1;fillColor=#3399FF;" parent="1" vertex="1">
          <mxGeometry x="445" y="344" width="130" height="50" as="geometry" />
        </mxCell>
        <mxCell id="Gz_gR0_rckUw40uQfsCe-8" style="edgeStyle=orthogonalEdgeStyle;rounded=0;orthogonalLoop=1;jettySize=auto;html=1;entryX=0.5;entryY=0;entryDx=0;entryDy=0;fontSize=14;fontColor=#FFFFFF;strokeWidth=2;fillColor=#ffe6cc;strokeColor=#d79b00;" parent="1" source="Gz_gR0_rckUw40uQfsCe-11" target="Gz_gR0_rckUw40uQfsCe-12" edge="1">
          <mxGeometry relative="1" as="geometry">
            <Array as="points">
              <mxPoint x="364" y="220" />
              <mxPoint x="210" y="220" />
            </Array>
          </mxGeometry>
        </mxCell>
        <mxCell id="Gz_gR0_rckUw40uQfsCe-9" value="" style="edgeStyle=orthogonalEdgeStyle;rounded=0;orthogonalLoop=1;jettySize=auto;html=1;strokeWidth=2;fontSize=14;fontColor=#FFFFFF;fillColor=#ffe6cc;strokeColor=#d79b00;" parent="1" source="Gz_gR0_rckUw40uQfsCe-11" target="Gz_gR0_rckUw40uQfsCe-13" edge="1">
          <mxGeometry relative="1" as="geometry" />
        </mxCell>
        <mxCell id="Gz_gR0_rckUw40uQfsCe-10" style="edgeStyle=orthogonalEdgeStyle;rounded=0;orthogonalLoop=1;jettySize=auto;html=1;entryX=0.5;entryY=0;entryDx=0;entryDy=0;strokeWidth=2;fontSize=14;fontColor=#FFFFFF;fillColor=#ffe6cc;strokeColor=#d79b00;" parent="1" source="Gz_gR0_rckUw40uQfsCe-11" target="Gz_gR0_rckUw40uQfsCe-14" edge="1">
          <mxGeometry relative="1" as="geometry">
            <Array as="points">
              <mxPoint x="364" y="220" />
              <mxPoint x="510" y="220" />
            </Array>
          </mxGeometry>
        </mxCell>
        <mxCell id="Gz_gR0_rckUw40uQfsCe-11" value="&lt;span style=&quot;font-size: 14px;&quot;&gt;职能总部&lt;/span&gt;" style="rounded=0;whiteSpace=wrap;html=1;fontSize=17;fillColor=#ffe6cc;strokeColor=#d79b00;" parent="1" vertex="1">
          <mxGeometry x="314" y="170" width="100" height="40" as="geometry" />
        </mxCell>
        <mxCell id="Gz_gR0_rckUw40uQfsCe-12" value="&lt;font style=&quot;font-size: 14px;&quot;&gt;研究所&lt;/font&gt;" style="rounded=0;whiteSpace=wrap;html=1;fontSize=17;fillColor=#ffe6cc;strokeColor=#d79b00;" parent="1" vertex="1">
          <mxGeometry x="160" y="240" width="100" height="40" as="geometry" />
        </mxCell>
        <mxCell id="Gz_gR0_rckUw40uQfsCe-13" value="&lt;font style=&quot;font-size: 14px;&quot;&gt;信息技术中心&lt;/font&gt;" style="rounded=0;whiteSpace=wrap;html=1;fontSize=17;fillColor=#ffe6cc;strokeColor=#d79b00;" parent="1" vertex="1">
          <mxGeometry x="314" y="240" width="100" height="40" as="geometry" />
        </mxCell>
        <mxCell id="Gz_gR0_rckUw40uQfsCe-14" value="&lt;span style=&quot;font-size: 14px;&quot;&gt;产区部门&lt;/span&gt;" style="rounded=0;whiteSpace=wrap;html=1;fontSize=17;fillColor=#ffe6cc;strokeColor=#d79b00;" parent="1" vertex="1">
          <mxGeometry x="460" y="240" width="100" height="40" as="geometry" />
        </mxCell>
        <mxCell id="Gz_gR0_rckUw40uQfsCe-15" value="&lt;font color=&quot;#000000&quot;&gt;&lt;b&gt;混合云管理平台&lt;/b&gt;&lt;/font&gt;" style="text;html=1;align=center;verticalAlign=middle;resizable=0;points=[];autosize=1;strokeColor=none;fillColor=none;fontSize=14;fontColor=#FFFFFF;" parent="1" vertex="1">
          <mxGeometry x="30" y="130" width="120" height="30" as="geometry" />
        </mxCell>
        <mxCell id="Gz_gR0_rckUw40uQfsCe-16" value="&lt;font color=&quot;#000000&quot;&gt;&lt;b&gt;正大天晴实际场景&lt;/b&gt;&lt;/font&gt;" style="text;html=1;align=center;verticalAlign=middle;resizable=0;points=[];autosize=1;strokeColor=none;fillColor=none;fontSize=14;fontColor=#FFFFFF;" parent="1" vertex="1">
          <mxGeometry x="560" y="140" width="140" height="30" as="geometry" />
        </mxCell>
        <mxCell id="Gz_gR0_rckUw40uQfsCe-17" value="" style="shape=curlyBracket;whiteSpace=wrap;html=1;rounded=1;strokeColor=#d79b00;fontSize=14;fillColor=#ffe6cc;strokeWidth=3;" parent="1" vertex="1">
          <mxGeometry x="100" y="170" width="20" height="120" as="geometry" />
        </mxCell>
        <mxCell id="Gz_gR0_rckUw40uQfsCe-18" value="&lt;font color=&quot;#000000&quot;&gt;&lt;b&gt;业务组&lt;/b&gt;&lt;/font&gt;" style="text;html=1;align=center;verticalAlign=middle;resizable=0;points=[];autosize=1;strokeColor=none;fillColor=none;fontSize=14;fontColor=#FFFFFF;" parent="1" vertex="1">
          <mxGeometry x="30" y="215" width="70" height="30" as="geometry" />
        </mxCell>
        <mxCell id="Gz_gR0_rckUw40uQfsCe-19" value="" style="shape=curlyBracket;whiteSpace=wrap;html=1;rounded=1;flipH=1;strokeColor=#d79b00;strokeWidth=3;fontSize=14;fillColor=#ffe6cc;" parent="1" vertex="1">
          <mxGeometry x="590" y="170" width="20" height="120" as="geometry" />
        </mxCell>
        <mxCell id="Gz_gR0_rckUw40uQfsCe-20" value="&lt;font color=&quot;#000000&quot;&gt;&lt;b&gt;组织架构&lt;/b&gt;&lt;/font&gt;" style="text;html=1;align=center;verticalAlign=middle;resizable=0;points=[];autosize=1;strokeColor=none;fillColor=none;fontSize=14;fontColor=#FFFFFF;" parent="1" vertex="1">
          <mxGeometry x="610" y="215" width="80" height="30" as="geometry" />
        </mxCell>
        <mxCell id="Gz_gR0_rckUw40uQfsCe-21" value="" style="shape=curlyBracket;whiteSpace=wrap;html=1;rounded=1;strokeColor=#d79b00;fontSize=14;fillColor=#ffe6cc;strokeWidth=3;" parent="1" vertex="1">
          <mxGeometry x="100" y="310" width="20" height="90" as="geometry" />
        </mxCell>
        <mxCell id="Gz_gR0_rckUw40uQfsCe-22" value="&lt;font color=&quot;#000000&quot;&gt;&lt;b&gt;资源池&lt;/b&gt;&lt;/font&gt;" style="text;html=1;align=center;verticalAlign=middle;resizable=0;points=[];autosize=1;strokeColor=none;fillColor=none;fontSize=14;fontColor=#FFFFFF;" parent="1" vertex="1">
          <mxGeometry x="30" y="340" width="70" height="30" as="geometry" />
        </mxCell>
        <mxCell id="Gz_gR0_rckUw40uQfsCe-23" value="" style="shape=curlyBracket;whiteSpace=wrap;html=1;rounded=1;flipH=1;strokeColor=#d79b00;strokeWidth=3;fontSize=14;fillColor=#ffe6cc;" parent="1" vertex="1">
          <mxGeometry x="590" y="310" width="20" height="90" as="geometry" />
        </mxCell>
        <mxCell id="Gz_gR0_rckUw40uQfsCe-24" value="&lt;font color=&quot;#000000&quot;&gt;&lt;b&gt;资源集&lt;/b&gt;&lt;/font&gt;" style="text;html=1;align=center;verticalAlign=middle;resizable=0;points=[];autosize=1;strokeColor=none;fillColor=none;fontSize=14;fontColor=#FFFFFF;" parent="1" vertex="1">
          <mxGeometry x="615" y="345" width="70" height="30" as="geometry" />
        </mxCell>
        <mxCell id="Gz_gR0_rckUw40uQfsCe-25" value="" style="shape=curlyBracket;whiteSpace=wrap;html=1;rounded=1;strokeColor=#d79b00;fontSize=14;fillColor=#ffe6cc;strokeWidth=3;" parent="1" vertex="1">
          <mxGeometry x="100" y="408" width="20" height="62" as="geometry" />
        </mxCell>
        <mxCell id="Gz_gR0_rckUw40uQfsCe-26" value="&lt;font color=&quot;#000000&quot;&gt;&lt;b&gt;云平台&lt;/b&gt;&lt;/font&gt;" style="text;html=1;align=center;verticalAlign=middle;resizable=0;points=[];autosize=1;strokeColor=none;fillColor=none;fontSize=14;fontColor=#FFFFFF;" parent="1" vertex="1">
          <mxGeometry x="30" y="423" width="70" height="30" as="geometry" />
        </mxCell>
        <mxCell id="Gz_gR0_rckUw40uQfsCe-27" value="" style="shape=curlyBracket;whiteSpace=wrap;html=1;rounded=1;flipH=1;strokeColor=#d79b00;strokeWidth=3;fontSize=14;fillColor=#ffe6cc;" parent="1" vertex="1">
          <mxGeometry x="590" y="408" width="20" height="62" as="geometry" />
        </mxCell>
        <mxCell id="Gz_gR0_rckUw40uQfsCe-28" value="&lt;font color=&quot;#000000&quot;&gt;&lt;b&gt;阿里云云平台&lt;/b&gt;&lt;/font&gt;" style="text;html=1;align=center;verticalAlign=middle;resizable=0;points=[];autosize=1;strokeColor=none;fillColor=none;fontSize=14;fontColor=#FFFFFF;" parent="1" vertex="1">
          <mxGeometry x="610" y="424" width="110" height="30" as="geometry" />
        </mxCell>
      </root>
    </mxGraphModel>
  </diagram>
  <diagram id="4iblMN-Agp7TcZi0vfjn" name="总体建设方案">
    <mxGraphModel dx="1050" dy="581" grid="1" gridSize="10" guides="1" tooltips="1" connect="1" arrows="1" fold="1" page="1" pageScale="1" pageWidth="827" pageHeight="1169" math="0" shadow="0">
      <root>
        <mxCell id="0" />
        <mxCell id="1" parent="0" />
        <mxCell id="bwQJ5oqQJTsYRZvAIMeh-9" value="" style="rounded=0;whiteSpace=wrap;html=1;dashed=1;fillColor=#dae8fc;strokeColor=#6c8ebf;gradientColor=none;" vertex="1" parent="1">
          <mxGeometry x="28" y="390" width="529" height="210" as="geometry" />
        </mxCell>
        <mxCell id="bwQJ5oqQJTsYRZvAIMeh-10" value="" style="rounded=0;whiteSpace=wrap;html=1;dashed=1;fillColor=#fff2cc;strokeColor=#d6b656;" vertex="1" parent="1">
          <mxGeometry x="30" y="97" width="710" height="73" as="geometry" />
        </mxCell>
        <mxCell id="bwQJ5oqQJTsYRZvAIMeh-11" value="" style="rounded=0;whiteSpace=wrap;html=1;dashed=1;fillColor=#b1ddf0;strokeColor=#10739e;" vertex="1" parent="1">
          <mxGeometry x="27.5" y="197" width="712.5" height="143" as="geometry" />
        </mxCell>
        <mxCell id="bwQJ5oqQJTsYRZvAIMeh-12" style="edgeStyle=orthogonalEdgeStyle;rounded=0;orthogonalLoop=1;jettySize=auto;html=1;exitX=1;exitY=0.5;exitDx=0;exitDy=0;dashed=1;" edge="1" parent="1" source="bwQJ5oqQJTsYRZvAIMeh-17" target="bwQJ5oqQJTsYRZvAIMeh-58">
          <mxGeometry relative="1" as="geometry" />
        </mxCell>
        <mxCell id="bwQJ5oqQJTsYRZvAIMeh-13" style="edgeStyle=orthogonalEdgeStyle;rounded=0;orthogonalLoop=1;jettySize=auto;html=1;entryX=0;entryY=0.5;entryDx=0;entryDy=0;dashed=1;" edge="1" parent="1" source="bwQJ5oqQJTsYRZvAIMeh-17" target="bwQJ5oqQJTsYRZvAIMeh-61">
          <mxGeometry relative="1" as="geometry">
            <mxPoint x="293" y="588" as="targetPoint" />
          </mxGeometry>
        </mxCell>
        <mxCell id="bwQJ5oqQJTsYRZvAIMeh-14" style="edgeStyle=orthogonalEdgeStyle;rounded=0;orthogonalLoop=1;jettySize=auto;html=1;entryX=0;entryY=0.75;entryDx=0;entryDy=0;dashed=1;" edge="1" parent="1" source="bwQJ5oqQJTsYRZvAIMeh-17" target="bwQJ5oqQJTsYRZvAIMeh-63">
          <mxGeometry relative="1" as="geometry" />
        </mxCell>
        <mxCell id="bwQJ5oqQJTsYRZvAIMeh-15" style="edgeStyle=orthogonalEdgeStyle;rounded=0;orthogonalLoop=1;jettySize=auto;html=1;entryX=0;entryY=0.5;entryDx=0;entryDy=0;dashed=1;" edge="1" parent="1" source="bwQJ5oqQJTsYRZvAIMeh-17" target="bwQJ5oqQJTsYRZvAIMeh-65">
          <mxGeometry relative="1" as="geometry" />
        </mxCell>
        <mxCell id="bwQJ5oqQJTsYRZvAIMeh-16" style="edgeStyle=orthogonalEdgeStyle;rounded=0;orthogonalLoop=1;jettySize=auto;html=1;entryX=0;entryY=0.5;entryDx=0;entryDy=0;dashed=1;" edge="1" parent="1" source="bwQJ5oqQJTsYRZvAIMeh-17" target="bwQJ5oqQJTsYRZvAIMeh-66">
          <mxGeometry relative="1" as="geometry" />
        </mxCell>
        <mxCell id="bwQJ5oqQJTsYRZvAIMeh-17" value="" style="rounded=0;whiteSpace=wrap;html=1;dashed=1;" vertex="1" parent="1">
          <mxGeometry x="39" y="436" width="224" height="132" as="geometry" />
        </mxCell>
        <mxCell id="bwQJ5oqQJTsYRZvAIMeh-18" value="" style="rounded=0;whiteSpace=wrap;html=1;dashed=1;" vertex="1" parent="1">
          <mxGeometry x="200" y="227" width="170" height="103" as="geometry" />
        </mxCell>
        <mxCell id="bwQJ5oqQJTsYRZvAIMeh-19" value="" style="rounded=0;whiteSpace=wrap;html=1;dashed=1;" vertex="1" parent="1">
          <mxGeometry x="383" y="227" width="160" height="100" as="geometry" />
        </mxCell>
        <mxCell id="bwQJ5oqQJTsYRZvAIMeh-20" value="" style="rounded=0;whiteSpace=wrap;html=1;dashed=1;" vertex="1" parent="1">
          <mxGeometry x="34" y="227" width="160" height="100" as="geometry" />
        </mxCell>
        <mxCell id="bwQJ5oqQJTsYRZvAIMeh-21" value="首页管理" style="rounded=1;whiteSpace=wrap;html=1;fillColor=#dae8fc;strokeColor=#6c8ebf;" vertex="1" parent="1">
          <mxGeometry x="35" y="127.5" width="80" height="20" as="geometry" />
        </mxCell>
        <mxCell id="bwQJ5oqQJTsYRZvAIMeh-22" value="产品服务" style="rounded=1;whiteSpace=wrap;html=1;fillColor=#dae8fc;strokeColor=#6c8ebf;" vertex="1" parent="1">
          <mxGeometry x="160.5" y="129" width="80" height="20" as="geometry" />
        </mxCell>
        <mxCell id="bwQJ5oqQJTsYRZvAIMeh-23" value="新闻资讯" style="rounded=1;whiteSpace=wrap;html=1;fillColor=#dae8fc;strokeColor=#6c8ebf;" vertex="1" parent="1">
          <mxGeometry x="543" y="129" width="80" height="20" as="geometry" />
        </mxCell>
        <mxCell id="bwQJ5oqQJTsYRZvAIMeh-24" value="统一门户" style="rounded=1;whiteSpace=wrap;html=1;fillColor=#0050ef;strokeColor=#001DBC;fontSize=14;fontColor=#ffffff;" vertex="1" parent="1">
          <mxGeometry x="27" y="87" width="713" height="30" as="geometry" />
        </mxCell>
        <mxCell id="bwQJ5oqQJTsYRZvAIMeh-25" value="统一运营管理" style="rounded=1;whiteSpace=wrap;html=1;fillColor=#0050ef;strokeColor=#001DBC;fontSize=14;fontColor=#ffffff;" vertex="1" parent="1">
          <mxGeometry x="34" y="206" width="159" height="20" as="geometry" />
        </mxCell>
        <mxCell id="bwQJ5oqQJTsYRZvAIMeh-26" value="统一调度管理" style="rounded=1;whiteSpace=wrap;html=1;fillColor=#0050ef;strokeColor=#001DBC;fontSize=14;fontColor=#ffffff;" vertex="1" parent="1">
          <mxGeometry x="200" y="205" width="172" height="21" as="geometry" />
        </mxCell>
        <mxCell id="bwQJ5oqQJTsYRZvAIMeh-27" value="统一运维管理" style="rounded=1;whiteSpace=wrap;html=1;fillColor=#0050ef;strokeColor=#001DBC;fontSize=14;fontColor=#ffffff;" vertex="1" parent="1">
          <mxGeometry x="383" y="204" width="160" height="21" as="geometry" />
        </mxCell>
        <mxCell id="bwQJ5oqQJTsYRZvAIMeh-28" value="供应商管理" style="rounded=1;whiteSpace=wrap;html=1;" vertex="1" parent="1">
          <mxGeometry x="39" y="237" width="70" height="20" as="geometry" />
        </mxCell>
        <mxCell id="bwQJ5oqQJTsYRZvAIMeh-29" value="用户管理" style="rounded=1;whiteSpace=wrap;html=1;" vertex="1" parent="1">
          <mxGeometry x="39" y="267" width="70" height="20" as="geometry" />
        </mxCell>
        <mxCell id="bwQJ5oqQJTsYRZvAIMeh-30" value="商品上架" style="rounded=1;whiteSpace=wrap;html=1;" vertex="1" parent="1">
          <mxGeometry x="39" y="297" width="70" height="20" as="geometry" />
        </mxCell>
        <mxCell id="bwQJ5oqQJTsYRZvAIMeh-31" value="促销管理" style="rounded=1;whiteSpace=wrap;html=1;" vertex="1" parent="1">
          <mxGeometry x="119" y="237" width="70" height="20" as="geometry" />
        </mxCell>
        <mxCell id="bwQJ5oqQJTsYRZvAIMeh-32" value="广告新闻" style="rounded=1;whiteSpace=wrap;html=1;" vertex="1" parent="1">
          <mxGeometry x="119" y="267" width="70" height="20" as="geometry" />
        </mxCell>
        <mxCell id="bwQJ5oqQJTsYRZvAIMeh-33" value="计量计费" style="rounded=1;whiteSpace=wrap;html=1;" vertex="1" parent="1">
          <mxGeometry x="119" y="297" width="70" height="20" as="geometry" />
        </mxCell>
        <mxCell id="bwQJ5oqQJTsYRZvAIMeh-34" value="智能调度" style="rounded=1;whiteSpace=wrap;html=1;" vertex="1" parent="1">
          <mxGeometry x="205" y="237" width="70" height="20" as="geometry" />
        </mxCell>
        <mxCell id="bwQJ5oqQJTsYRZvAIMeh-35" value="资源池" style="rounded=1;whiteSpace=wrap;html=1;" vertex="1" parent="1">
          <mxGeometry x="208" y="267" width="70" height="20" as="geometry" />
        </mxCell>
        <mxCell id="bwQJ5oqQJTsYRZvAIMeh-36" value="算力策略" style="rounded=1;whiteSpace=wrap;html=1;" vertex="1" parent="1">
          <mxGeometry x="208" y="297" width="70" height="20" as="geometry" />
        </mxCell>
        <mxCell id="bwQJ5oqQJTsYRZvAIMeh-37" value="算力资源能对接" style="rounded=1;whiteSpace=wrap;html=1;" vertex="1" parent="1">
          <mxGeometry x="277" y="237" width="90" height="20" as="geometry" />
        </mxCell>
        <mxCell id="bwQJ5oqQJTsYRZvAIMeh-38" value="算力监控" style="rounded=1;whiteSpace=wrap;html=1;" vertex="1" parent="1">
          <mxGeometry x="293" y="267" width="70" height="20" as="geometry" />
        </mxCell>
        <mxCell id="bwQJ5oqQJTsYRZvAIMeh-39" value="算力统计" style="rounded=1;whiteSpace=wrap;html=1;" vertex="1" parent="1">
          <mxGeometry x="293" y="297" width="70" height="20" as="geometry" />
        </mxCell>
        <mxCell id="bwQJ5oqQJTsYRZvAIMeh-40" value="产品封装" style="rounded=1;whiteSpace=wrap;html=1;" vertex="1" parent="1">
          <mxGeometry x="389" y="237" width="70" height="20" as="geometry" />
        </mxCell>
        <mxCell id="bwQJ5oqQJTsYRZvAIMeh-41" value="统一监控" style="rounded=1;whiteSpace=wrap;html=1;" vertex="1" parent="1">
          <mxGeometry x="389" y="267" width="70" height="20" as="geometry" />
        </mxCell>
        <mxCell id="bwQJ5oqQJTsYRZvAIMeh-42" value="合规性检查" style="rounded=1;whiteSpace=wrap;html=1;" vertex="1" parent="1">
          <mxGeometry x="389" y="297" width="70" height="20" as="geometry" />
        </mxCell>
        <mxCell id="bwQJ5oqQJTsYRZvAIMeh-43" value="配置管理" style="rounded=1;whiteSpace=wrap;html=1;" vertex="1" parent="1">
          <mxGeometry x="469" y="237" width="70" height="20" as="geometry" />
        </mxCell>
        <mxCell id="bwQJ5oqQJTsYRZvAIMeh-44" value="统一告警" style="rounded=1;whiteSpace=wrap;html=1;" vertex="1" parent="1">
          <mxGeometry x="469" y="267" width="70" height="20" as="geometry" />
        </mxCell>
        <mxCell id="bwQJ5oqQJTsYRZvAIMeh-45" value="操作审计" style="rounded=1;whiteSpace=wrap;html=1;" vertex="1" parent="1">
          <mxGeometry x="469" y="297" width="70" height="20" as="geometry" />
        </mxCell>
        <mxCell id="bwQJ5oqQJTsYRZvAIMeh-46" value="底层算力管理基座" style="rounded=1;whiteSpace=wrap;html=1;fillColor=#0050ef;strokeColor=#001DBC;fontColor=#ffffff;fontSize=14;" vertex="1" parent="1">
          <mxGeometry x="27.5" y="366" width="530" height="22" as="geometry" />
        </mxCell>
        <mxCell id="bwQJ5oqQJTsYRZvAIMeh-47" value="管控平台" style="rounded=1;whiteSpace=wrap;html=1;fillColor=#dae8fc;strokeColor=#6c8ebf;gradientColor=#7ea6e0;" vertex="1" parent="1">
          <mxGeometry x="43" y="402" width="70" height="20" as="geometry" />
        </mxCell>
        <mxCell id="bwQJ5oqQJTsYRZvAIMeh-48" value="作业平台" style="rounded=1;whiteSpace=wrap;html=1;fillColor=#dae8fc;strokeColor=#6c8ebf;gradientColor=#7ea6e0;" vertex="1" parent="1">
          <mxGeometry x="147" y="401" width="70" height="20" as="geometry" />
        </mxCell>
        <mxCell id="bwQJ5oqQJTsYRZvAIMeh-49" value="配置平台" style="rounded=1;whiteSpace=wrap;html=1;fillColor=#dae8fc;strokeColor=#6c8ebf;gradientColor=#7ea6e0;" vertex="1" parent="1">
          <mxGeometry x="253" y="401" width="70" height="20" as="geometry" />
        </mxCell>
        <mxCell id="bwQJ5oqQJTsYRZvAIMeh-50" value="调度平台" style="rounded=1;whiteSpace=wrap;html=1;fillColor=#dae8fc;strokeColor=#6c8ebf;gradientColor=#7ea6e0;" vertex="1" parent="1">
          <mxGeometry x="357" y="402" width="70" height="20" as="geometry" />
        </mxCell>
        <mxCell id="bwQJ5oqQJTsYRZvAIMeh-51" value="低代码平台" style="rounded=1;whiteSpace=wrap;html=1;fillColor=#dae8fc;strokeColor=#6c8ebf;gradientColor=#7ea6e0;" vertex="1" parent="1">
          <mxGeometry x="473" y="402" width="70" height="20" as="geometry" />
        </mxCell>
        <mxCell id="bwQJ5oqQJTsYRZvAIMeh-52" value="多云融合引擎" style="rounded=1;whiteSpace=wrap;html=1;fillColor=#0050ef;strokeColor=#001DBC;fontColor=#ffffff;" vertex="1" parent="1">
          <mxGeometry x="43" y="446" width="210" height="20" as="geometry" />
        </mxCell>
        <mxCell id="bwQJ5oqQJTsYRZvAIMeh-53" value="云平台资源查看" style="rounded=1;whiteSpace=wrap;html=1;" vertex="1" parent="1">
          <mxGeometry x="48" y="476" width="95" height="20" as="geometry" />
        </mxCell>
        <mxCell id="bwQJ5oqQJTsYRZvAIMeh-54" value="云平台性能数据" style="rounded=1;whiteSpace=wrap;html=1;" vertex="1" parent="1">
          <mxGeometry x="48" y="506" width="95" height="20" as="geometry" />
        </mxCell>
        <mxCell id="bwQJ5oqQJTsYRZvAIMeh-55" value="云平台资源计费" style="rounded=1;whiteSpace=wrap;html=1;" vertex="1" parent="1">
          <mxGeometry x="153" y="476" width="95" height="20" as="geometry" />
        </mxCell>
        <mxCell id="bwQJ5oqQJTsYRZvAIMeh-56" value="云平台资源管理" style="rounded=1;whiteSpace=wrap;html=1;" vertex="1" parent="1">
          <mxGeometry x="153" y="506" width="95" height="20" as="geometry" />
        </mxCell>
        <mxCell id="bwQJ5oqQJTsYRZvAIMeh-57" style="edgeStyle=orthogonalEdgeStyle;rounded=0;orthogonalLoop=1;jettySize=auto;html=1;entryX=0;entryY=0.5;entryDx=0;entryDy=0;" edge="1" parent="1" source="bwQJ5oqQJTsYRZvAIMeh-58" target="bwQJ5oqQJTsYRZvAIMeh-74">
          <mxGeometry relative="1" as="geometry" />
        </mxCell>
        <mxCell id="bwQJ5oqQJTsYRZvAIMeh-58" value="腾讯公有云对接" style="rounded=1;whiteSpace=wrap;html=1;fillColor=#1ba1e2;strokeColor=#0080cc;fontColor=#ffffff;" vertex="1" parent="1">
          <mxGeometry x="353" y="446" width="160" height="20" as="geometry" />
        </mxCell>
        <mxCell id="bwQJ5oqQJTsYRZvAIMeh-59" value="..." style="rounded=1;whiteSpace=wrap;html=1;" vertex="1" parent="1">
          <mxGeometry x="48" y="538" width="205" height="20" as="geometry" />
        </mxCell>
        <mxCell id="bwQJ5oqQJTsYRZvAIMeh-60" style="edgeStyle=orthogonalEdgeStyle;rounded=0;orthogonalLoop=1;jettySize=auto;html=1;entryX=0;entryY=0.5;entryDx=0;entryDy=0;" edge="1" parent="1" source="bwQJ5oqQJTsYRZvAIMeh-61" target="bwQJ5oqQJTsYRZvAIMeh-75">
          <mxGeometry relative="1" as="geometry" />
        </mxCell>
        <mxCell id="bwQJ5oqQJTsYRZvAIMeh-61" value="华为公有云对接" style="rounded=1;whiteSpace=wrap;html=1;fillColor=#1ba1e2;strokeColor=#0080cc;fontColor=#ffffff;" vertex="1" parent="1">
          <mxGeometry x="353" y="476" width="160" height="20" as="geometry" />
        </mxCell>
        <mxCell id="bwQJ5oqQJTsYRZvAIMeh-62" style="edgeStyle=orthogonalEdgeStyle;rounded=0;orthogonalLoop=1;jettySize=auto;html=1;entryX=0;entryY=0.75;entryDx=0;entryDy=0;" edge="1" parent="1" source="bwQJ5oqQJTsYRZvAIMeh-63" target="bwQJ5oqQJTsYRZvAIMeh-76">
          <mxGeometry relative="1" as="geometry" />
        </mxCell>
        <mxCell id="bwQJ5oqQJTsYRZvAIMeh-63" value="阿里公有云对接" style="rounded=1;whiteSpace=wrap;html=1;fillColor=#1ba1e2;strokeColor=#0080cc;fontColor=#ffffff;" vertex="1" parent="1">
          <mxGeometry x="353" y="506" width="160" height="20" as="geometry" />
        </mxCell>
        <mxCell id="bwQJ5oqQJTsYRZvAIMeh-64" style="edgeStyle=orthogonalEdgeStyle;rounded=0;orthogonalLoop=1;jettySize=auto;html=1;entryX=0;entryY=0.5;entryDx=0;entryDy=0;" edge="1" parent="1" source="bwQJ5oqQJTsYRZvAIMeh-65" target="bwQJ5oqQJTsYRZvAIMeh-77">
          <mxGeometry relative="1" as="geometry">
            <Array as="points">
              <mxPoint x="570" y="539" />
              <mxPoint x="570" y="567" />
            </Array>
          </mxGeometry>
        </mxCell>
        <mxCell id="bwQJ5oqQJTsYRZvAIMeh-65" value="Vcenter对接" style="rounded=1;whiteSpace=wrap;html=1;fillColor=#1ba1e2;strokeColor=#0080cc;fontColor=#ffffff;" vertex="1" parent="1">
          <mxGeometry x="353" y="538" width="160" height="20" as="geometry" />
        </mxCell>
        <mxCell id="bwQJ5oqQJTsYRZvAIMeh-66" value="..." style="rounded=1;whiteSpace=wrap;html=1;fillColor=#1ba1e2;strokeColor=#006EAF;fontColor=#ffffff;" vertex="1" parent="1">
          <mxGeometry x="353" y="568" width="160" height="20" as="geometry" />
        </mxCell>
        <mxCell id="bwQJ5oqQJTsYRZvAIMeh-68" value="普通用户" style="rounded=1;whiteSpace=wrap;html=1;strokeColor=#ffffff;" vertex="1" parent="1">
          <mxGeometry x="780" y="50" width="80" height="20" as="geometry" />
        </mxCell>
        <mxCell id="bwQJ5oqQJTsYRZvAIMeh-69" value="" style="verticalLabelPosition=bottom;sketch=0;html=1;fillColor=#0050ef;strokeColor=#001DBC;verticalAlign=top;pointerEvents=1;align=center;shape=mxgraph.cisco_safe.people_places_things_icons.icon9;fontColor=#ffffff;" vertex="1" parent="1">
          <mxGeometry x="797" y="103" width="30" height="24.5" as="geometry" />
        </mxCell>
        <mxCell id="bwQJ5oqQJTsYRZvAIMeh-70" value="腾讯公有云" style="rounded=1;whiteSpace=wrap;html=1;fillColor=#1ba1e2;strokeColor=#0080cc;fontColor=#ffffff;" vertex="1" parent="1">
          <mxGeometry x="652" y="430" width="110" height="32" as="geometry" />
        </mxCell>
        <mxCell id="bwQJ5oqQJTsYRZvAIMeh-71" value="华为公有云" style="rounded=1;whiteSpace=wrap;html=1;fillColor=#1ba1e2;strokeColor=#0080cc;fontColor=#ffffff;" vertex="1" parent="1">
          <mxGeometry x="652" y="469" width="110" height="32" as="geometry" />
        </mxCell>
        <mxCell id="bwQJ5oqQJTsYRZvAIMeh-72" value="阿里公有云" style="rounded=1;whiteSpace=wrap;html=1;fillColor=#1ba1e2;strokeColor=#0080cc;fontColor=#ffffff;" vertex="1" parent="1">
          <mxGeometry x="652" y="509" width="110" height="32" as="geometry" />
        </mxCell>
        <mxCell id="bwQJ5oqQJTsYRZvAIMeh-73" value="VMware" style="rounded=1;whiteSpace=wrap;html=1;fillColor=#1ba1e2;strokeColor=#0080cc;fontColor=#ffffff;" vertex="1" parent="1">
          <mxGeometry x="652" y="549" width="110" height="32" as="geometry" />
        </mxCell>
        <mxCell id="bwQJ5oqQJTsYRZvAIMeh-74" value="管理账号" style="rounded=1;whiteSpace=wrap;html=1;fillColor=#1ba1e2;strokeColor=#0080cc;fontColor=#ffffff;fontSize=10;" vertex="1" parent="1">
          <mxGeometry x="622" y="435" width="30" height="24" as="geometry" />
        </mxCell>
        <mxCell id="bwQJ5oqQJTsYRZvAIMeh-75" value="管理账号" style="rounded=1;whiteSpace=wrap;html=1;fillColor=#1ba1e2;strokeColor=#0080cc;fontColor=#ffffff;fontSize=10;" vertex="1" parent="1">
          <mxGeometry x="622" y="477" width="30" height="24" as="geometry" />
        </mxCell>
        <mxCell id="bwQJ5oqQJTsYRZvAIMeh-76" value="管理账号" style="rounded=1;whiteSpace=wrap;html=1;fillColor=#1ba1e2;strokeColor=#0080cc;fontColor=#ffffff;arcSize=0;fontSize=10;" vertex="1" parent="1">
          <mxGeometry x="622" y="513" width="30" height="24" as="geometry" />
        </mxCell>
        <mxCell id="bwQJ5oqQJTsYRZvAIMeh-77" value="管理账号" style="rounded=1;whiteSpace=wrap;html=1;fillColor=#1ba1e2;strokeColor=#0080cc;fontColor=#ffffff;fontSize=10;" vertex="1" parent="1">
          <mxGeometry x="622" y="555" width="30" height="24" as="geometry" />
        </mxCell>
        <mxCell id="bwQJ5oqQJTsYRZvAIMeh-78" value="" style="endArrow=classic;startArrow=classic;html=1;rounded=0;exitX=0.383;exitY=-0.006;exitDx=0;exitDy=0;exitPerimeter=0;" edge="1" parent="1" source="bwQJ5oqQJTsYRZvAIMeh-11">
          <mxGeometry width="50" height="50" relative="1" as="geometry">
            <mxPoint x="375" y="200" as="sourcePoint" />
            <mxPoint x="375" y="170" as="targetPoint" />
          </mxGeometry>
        </mxCell>
        <mxCell id="bwQJ5oqQJTsYRZvAIMeh-79" value="" style="endArrow=classic;startArrow=classic;html=1;rounded=0;exitX=0.131;exitY=-0.014;exitDx=0;exitDy=0;exitPerimeter=0;entryX=0.479;entryY=1.041;entryDx=0;entryDy=0;entryPerimeter=0;" edge="1" parent="1" source="bwQJ5oqQJTsYRZvAIMeh-11" target="bwQJ5oqQJTsYRZvAIMeh-10">
          <mxGeometry width="50" height="50" relative="1" as="geometry">
            <mxPoint x="99.97299999999996" y="183.716" as="sourcePoint" />
            <mxPoint x="270" y="160" as="targetPoint" />
            <Array as="points" />
          </mxGeometry>
        </mxCell>
        <mxCell id="bwQJ5oqQJTsYRZvAIMeh-80" value="" style="endArrow=classic;startArrow=classic;html=1;rounded=0;entryX=0.822;entryY=-0.02;entryDx=0;entryDy=0;entryPerimeter=0;" edge="1" parent="1" target="bwQJ5oqQJTsYRZvAIMeh-11">
          <mxGeometry width="50" height="50" relative="1" as="geometry">
            <mxPoint x="370" y="170" as="sourcePoint" />
            <mxPoint x="461.577" y="183.716" as="targetPoint" />
            <Array as="points" />
          </mxGeometry>
        </mxCell>
        <mxCell id="bwQJ5oqQJTsYRZvAIMeh-81" value="" style="endArrow=classic;startArrow=classic;html=1;rounded=0;exitX=0.149;exitY=1.013;exitDx=0;exitDy=0;exitPerimeter=0;" edge="1" parent="1" source="bwQJ5oqQJTsYRZvAIMeh-11">
          <mxGeometry width="50" height="50" relative="1" as="geometry">
            <mxPoint x="81" y="342" as="sourcePoint" />
            <mxPoint x="290" y="360" as="targetPoint" />
            <Array as="points" />
          </mxGeometry>
        </mxCell>
        <mxCell id="bwQJ5oqQJTsYRZvAIMeh-82" value="" style="endArrow=classic;startArrow=classic;html=1;rounded=0;exitX=0.5;exitY=0;exitDx=0;exitDy=0;" edge="1" parent="1" source="bwQJ5oqQJTsYRZvAIMeh-46">
          <mxGeometry width="50" height="50" relative="1" as="geometry">
            <mxPoint x="280" y="210" as="sourcePoint" />
            <mxPoint x="293" y="340" as="targetPoint" />
            <Array as="points" />
          </mxGeometry>
        </mxCell>
        <mxCell id="bwQJ5oqQJTsYRZvAIMeh-83" value="" style="endArrow=classic;startArrow=classic;html=1;rounded=0;exitX=0.149;exitY=1.013;exitDx=0;exitDy=0;exitPerimeter=0;" edge="1" parent="1">
          <mxGeometry width="50" height="50" relative="1" as="geometry">
            <mxPoint x="296" y="360" as="sourcePoint" />
            <mxPoint x="480" y="340" as="targetPoint" />
            <Array as="points" />
          </mxGeometry>
        </mxCell>
        <mxCell id="bwQJ5oqQJTsYRZvAIMeh-84" value="交易市场" style="rounded=1;whiteSpace=wrap;html=1;fillColor=#dae8fc;strokeColor=#6c8ebf;" vertex="1" parent="1">
          <mxGeometry x="289" y="129" width="80" height="20" as="geometry" />
        </mxCell>
        <mxCell id="bwQJ5oqQJTsYRZvAIMeh-85" value="解决放哪" style="rounded=1;whiteSpace=wrap;html=1;fillColor=#dae8fc;strokeColor=#6c8ebf;" vertex="1" parent="1">
          <mxGeometry x="413.5" y="129" width="80" height="20" as="geometry" />
        </mxCell>
        <mxCell id="bwQJ5oqQJTsYRZvAIMeh-86" value="关于" style="rounded=1;whiteSpace=wrap;html=1;fillColor=#dae8fc;strokeColor=#6c8ebf;" vertex="1" parent="1">
          <mxGeometry x="642" y="129" width="80" height="20" as="geometry" />
        </mxCell>
        <mxCell id="bwQJ5oqQJTsYRZvAIMeh-87" value="" style="rounded=0;whiteSpace=wrap;html=1;dashed=1;" vertex="1" parent="1">
          <mxGeometry x="559" y="227" width="171" height="103" as="geometry" />
        </mxCell>
        <mxCell id="bwQJ5oqQJTsYRZvAIMeh-88" value="云超市" style="rounded=1;whiteSpace=wrap;html=1;fillColor=#0050ef;strokeColor=#001DBC;fontSize=14;fontColor=#ffffff;" vertex="1" parent="1">
          <mxGeometry x="559" y="204" width="171" height="21" as="geometry" />
        </mxCell>
        <mxCell id="bwQJ5oqQJTsYRZvAIMeh-89" value="算力产品管理" style="rounded=1;whiteSpace=wrap;html=1;" vertex="1" parent="1">
          <mxGeometry x="568" y="237" width="75" height="20" as="geometry" />
        </mxCell>
        <mxCell id="bwQJ5oqQJTsYRZvAIMeh-91" value="知识库" style="rounded=1;whiteSpace=wrap;html=1;" vertex="1" parent="1">
          <mxGeometry x="568" y="297" width="70" height="20" as="geometry" />
        </mxCell>
        <mxCell id="bwQJ5oqQJTsYRZvAIMeh-92" value="订单管理" style="rounded=1;whiteSpace=wrap;html=1;" vertex="1" parent="1">
          <mxGeometry x="652" y="237" width="70" height="20" as="geometry" />
        </mxCell>
        <mxCell id="bwQJ5oqQJTsYRZvAIMeh-93" value="支付管理" style="rounded=1;whiteSpace=wrap;html=1;" vertex="1" parent="1">
          <mxGeometry x="652" y="267" width="70" height="20" as="geometry" />
        </mxCell>
        <mxCell id="bwQJ5oqQJTsYRZvAIMeh-94" value="账单管理" style="rounded=1;whiteSpace=wrap;html=1;" vertex="1" parent="1">
          <mxGeometry x="652" y="297" width="70" height="20" as="geometry" />
        </mxCell>
        <mxCell id="bwQJ5oqQJTsYRZvAIMeh-95" value="算力资源管理" style="rounded=1;whiteSpace=wrap;html=1;" vertex="1" parent="1">
          <mxGeometry x="568" y="266" width="75" height="20" as="geometry" />
        </mxCell>
        <mxCell id="bwQJ5oqQJTsYRZvAIMeh-96" style="edgeStyle=orthogonalEdgeStyle;rounded=0;orthogonalLoop=1;jettySize=auto;html=1;exitX=0.5;exitY=1;exitDx=0;exitDy=0;" edge="1" parent="1" source="bwQJ5oqQJTsYRZvAIMeh-86" target="bwQJ5oqQJTsYRZvAIMeh-86">
          <mxGeometry relative="1" as="geometry" />
        </mxCell>
        <mxCell id="bwQJ5oqQJTsYRZvAIMeh-97" value="" style="endArrow=classic;startArrow=classic;html=1;rounded=0;exitX=0.602;exitY=0.017;exitDx=0;exitDy=0;exitPerimeter=0;entryX=0.483;entryY=1.063;entryDx=0;entryDy=0;entryPerimeter=0;" edge="1" parent="1" source="bwQJ5oqQJTsYRZvAIMeh-11" target="bwQJ5oqQJTsYRZvAIMeh-10">
          <mxGeometry width="50" height="50" relative="1" as="geometry">
            <mxPoint x="310" y="206" as="sourcePoint" />
            <mxPoint x="385" y="180" as="targetPoint" />
          </mxGeometry>
        </mxCell>
        <mxCell id="bwQJ5oqQJTsYRZvAIMeh-98" value="" style="endArrow=classic;startArrow=classic;html=1;rounded=0;exitX=0.501;exitY=-0.3;exitDx=0;exitDy=0;exitPerimeter=0;entryX=0.864;entryY=0.968;entryDx=0;entryDy=0;entryPerimeter=0;" edge="1" parent="1" source="bwQJ5oqQJTsYRZvAIMeh-46" target="bwQJ5oqQJTsYRZvAIMeh-11">
          <mxGeometry width="50" height="50" relative="1" as="geometry">
            <mxPoint x="306" y="370" as="sourcePoint" />
            <mxPoint x="490" y="350" as="targetPoint" />
            <Array as="points" />
          </mxGeometry>
        </mxCell>
      </root>
    </mxGraphModel>
  </diagram>
  <diagram id="DAfrwt3E68jih2G6LkHL" name="商品购买">
    <mxGraphModel grid="1" gridSize="10" guides="1" tooltips="1" connect="1" arrows="1" page="1" fold="1" pageScale="1" pageWidth="827" pageHeight="1169" math="0" shadow="0">
      <root>
        <mxCell id="VIXEUt1QGOeVjG9N0Q05-0" />
        <mxCell id="VIXEUt1QGOeVjG9N0Q05-1" parent="VIXEUt1QGOeVjG9N0Q05-0" />
        <mxCell id="fgRlL303UezsXqVz6tfq-0" style="edgeStyle=orthogonalEdgeStyle;rounded=0;jumpStyle=arc;orthogonalLoop=1;jettySize=auto;html=1;entryX=0;entryY=0.5;entryDx=0;entryDy=0;fontSize=12;fillColor=#a20025;strokeColor=#6F0000;" edge="1" parent="VIXEUt1QGOeVjG9N0Q05-1" source="fgRlL303UezsXqVz6tfq-3" target="fgRlL303UezsXqVz6tfq-16">
          <mxGeometry relative="1" as="geometry" />
        </mxCell>
        <mxCell id="fgRlL303UezsXqVz6tfq-1" style="edgeStyle=orthogonalEdgeStyle;rounded=0;jumpStyle=arc;orthogonalLoop=1;jettySize=auto;html=1;fontSize=12;fillColor=#008a00;strokeColor=#005700;entryX=0;entryY=0.5;entryDx=0;entryDy=0;" edge="1" parent="VIXEUt1QGOeVjG9N0Q05-1" source="fgRlL303UezsXqVz6tfq-3" target="fgRlL303UezsXqVz6tfq-38">
          <mxGeometry relative="1" as="geometry">
            <Array as="points">
              <mxPoint x="150" y="200" />
              <mxPoint x="150" y="696" />
            </Array>
            <mxPoint x="230" y="767" as="targetPoint" />
          </mxGeometry>
        </mxCell>
        <mxCell id="fgRlL303UezsXqVz6tfq-2" style="edgeStyle=orthogonalEdgeStyle;rounded=0;orthogonalLoop=1;jettySize=auto;html=1;entryX=0;entryY=0.5;entryDx=0;entryDy=0;" edge="1" parent="VIXEUt1QGOeVjG9N0Q05-1" source="fgRlL303UezsXqVz6tfq-3" target="fgRlL303UezsXqVz6tfq-56">
          <mxGeometry relative="1" as="geometry">
            <Array as="points">
              <mxPoint x="150" y="200" />
              <mxPoint x="150" y="580" />
              <mxPoint x="200" y="580" />
            </Array>
          </mxGeometry>
        </mxCell>
        <mxCell id="fgRlL303UezsXqVz6tfq-3" value="用户" style="rounded=1;whiteSpace=wrap;html=1;fillColor=#dae8fc;strokeColor=#6c8ebf;" vertex="1" parent="VIXEUt1QGOeVjG9N0Q05-1">
          <mxGeometry x="50" y="190" width="80" height="20" as="geometry" />
        </mxCell>
        <mxCell id="fgRlL303UezsXqVz6tfq-4" style="edgeStyle=orthogonalEdgeStyle;rounded=0;orthogonalLoop=1;jettySize=auto;html=1;exitX=1;exitY=0.5;exitDx=0;exitDy=0;" edge="1" parent="VIXEUt1QGOeVjG9N0Q05-1" source="fgRlL303UezsXqVz6tfq-6" target="fgRlL303UezsXqVz6tfq-8">
          <mxGeometry relative="1" as="geometry" />
        </mxCell>
        <mxCell id="fgRlL303UezsXqVz6tfq-5" style="edgeStyle=orthogonalEdgeStyle;rounded=0;orthogonalLoop=1;jettySize=auto;html=1;entryX=0.5;entryY=0;entryDx=0;entryDy=0;fillColor=#ffe6cc;strokeColor=#d79b00;" edge="1" parent="VIXEUt1QGOeVjG9N0Q05-1" source="fgRlL303UezsXqVz6tfq-6" target="fgRlL303UezsXqVz6tfq-10">
          <mxGeometry relative="1" as="geometry" />
        </mxCell>
        <mxCell id="fgRlL303UezsXqVz6tfq-6" value="数据中心" style="rounded=0;whiteSpace=wrap;html=1;fillColor=#ffe6cc;strokeColor=#d79b00;" vertex="1" parent="VIXEUt1QGOeVjG9N0Q05-1">
          <mxGeometry x="143" y="30" width="90" height="20" as="geometry" />
        </mxCell>
        <mxCell id="fgRlL303UezsXqVz6tfq-7" value="" style="edgeStyle=orthogonalEdgeStyle;rounded=0;orthogonalLoop=1;jettySize=auto;html=1;fillColor=#ffe6cc;strokeColor=#d79b00;" edge="1" parent="VIXEUt1QGOeVjG9N0Q05-1" source="fgRlL303UezsXqVz6tfq-8" target="fgRlL303UezsXqVz6tfq-10">
          <mxGeometry relative="1" as="geometry" />
        </mxCell>
        <mxCell id="fgRlL303UezsXqVz6tfq-8" value="资源池" style="rounded=0;whiteSpace=wrap;html=1;fillColor=#ffe6cc;strokeColor=#d79b00;" vertex="1" parent="VIXEUt1QGOeVjG9N0Q05-1">
          <mxGeometry x="249" y="30" width="94" height="20" as="geometry" />
        </mxCell>
        <mxCell id="fgRlL303UezsXqVz6tfq-9" value="" style="edgeStyle=orthogonalEdgeStyle;rounded=0;orthogonalLoop=1;jettySize=auto;html=1;fillColor=#ffe6cc;strokeColor=#d79b00;startArrow=none;" edge="1" parent="VIXEUt1QGOeVjG9N0Q05-1" source="fgRlL303UezsXqVz6tfq-47" target="fgRlL303UezsXqVz6tfq-16">
          <mxGeometry relative="1" as="geometry" />
        </mxCell>
        <mxCell id="fgRlL303UezsXqVz6tfq-10" value="提交资源池和商品上架审核请求" style="rounded=0;whiteSpace=wrap;html=1;fillColor=#ffe6cc;strokeColor=#d79b00;" vertex="1" parent="VIXEUt1QGOeVjG9N0Q05-1">
          <mxGeometry x="202" y="91" width="188" height="20" as="geometry" />
        </mxCell>
        <mxCell id="fgRlL303UezsXqVz6tfq-11" value="" style="edgeStyle=orthogonalEdgeStyle;rounded=0;orthogonalLoop=1;jettySize=auto;html=1;" edge="1" parent="VIXEUt1QGOeVjG9N0Q05-1" source="fgRlL303UezsXqVz6tfq-12" target="fgRlL303UezsXqVz6tfq-19">
          <mxGeometry relative="1" as="geometry" />
        </mxCell>
        <mxCell id="fgRlL303UezsXqVz6tfq-12" value="购买商品到购物车" style="rounded=0;whiteSpace=wrap;html=1;fillColor=#dae8fc;strokeColor=#6c8ebf;" vertex="1" parent="VIXEUt1QGOeVjG9N0Q05-1">
          <mxGeometry x="235" y="246" width="118" height="20" as="geometry" />
        </mxCell>
        <mxCell id="fgRlL303UezsXqVz6tfq-13" value="商品(云资源+算力)" style="rounded=0;whiteSpace=wrap;html=1;fillColor=#ffe6cc;strokeColor=#d79b00;" vertex="1" parent="VIXEUt1QGOeVjG9N0Q05-1">
          <mxGeometry x="352" y="31" width="108" height="20" as="geometry" />
        </mxCell>
        <mxCell id="fgRlL303UezsXqVz6tfq-14" style="edgeStyle=orthogonalEdgeStyle;rounded=0;orthogonalLoop=1;jettySize=auto;html=1;entryX=0.5;entryY=0;entryDx=0;entryDy=0;exitX=0.5;exitY=1;exitDx=0;exitDy=0;fillColor=#ffe6cc;strokeColor=#d79b00;" edge="1" parent="VIXEUt1QGOeVjG9N0Q05-1" source="fgRlL303UezsXqVz6tfq-13" target="fgRlL303UezsXqVz6tfq-10">
          <mxGeometry relative="1" as="geometry">
            <mxPoint x="405" y="100" as="sourcePoint" />
          </mxGeometry>
        </mxCell>
        <mxCell id="fgRlL303UezsXqVz6tfq-15" style="edgeStyle=orthogonalEdgeStyle;rounded=0;orthogonalLoop=1;jettySize=auto;html=1;entryX=0.5;entryY=0;entryDx=0;entryDy=0;fillColor=#a20025;strokeColor=#6F0000;" edge="1" parent="VIXEUt1QGOeVjG9N0Q05-1" source="fgRlL303UezsXqVz6tfq-16" target="fgRlL303UezsXqVz6tfq-12">
          <mxGeometry relative="1" as="geometry" />
        </mxCell>
        <mxCell id="fgRlL303UezsXqVz6tfq-16" value="商城门户，访问商品目录" style="rounded=0;whiteSpace=wrap;html=1;fillColor=#d5e8d4;strokeColor=#82b366;" vertex="1" parent="VIXEUt1QGOeVjG9N0Q05-1">
          <mxGeometry x="200" y="190" width="188" height="20" as="geometry" />
        </mxCell>
        <mxCell id="fgRlL303UezsXqVz6tfq-17" value="" style="edgeStyle=orthogonalEdgeStyle;rounded=0;orthogonalLoop=1;jettySize=auto;html=1;startArrow=none;fillColor=#a20025;strokeColor=#6F0000;" edge="1" parent="VIXEUt1QGOeVjG9N0Q05-1" source="fgRlL303UezsXqVz6tfq-26" target="fgRlL303UezsXqVz6tfq-22">
          <mxGeometry relative="1" as="geometry" />
        </mxCell>
        <mxCell id="fgRlL303UezsXqVz6tfq-18" style="edgeStyle=orthogonalEdgeStyle;rounded=0;orthogonalLoop=1;jettySize=auto;html=1;entryX=0.5;entryY=0;entryDx=0;entryDy=0;fontSize=8;fillColor=#a20025;strokeColor=#6F0000;" edge="1" parent="VIXEUt1QGOeVjG9N0Q05-1" source="fgRlL303UezsXqVz6tfq-19" target="fgRlL303UezsXqVz6tfq-24">
          <mxGeometry relative="1" as="geometry" />
        </mxCell>
        <mxCell id="fgRlL303UezsXqVz6tfq-19" value="额度检查" style="rhombus;whiteSpace=wrap;html=1;rounded=0;" vertex="1" parent="VIXEUt1QGOeVjG9N0Q05-1">
          <mxGeometry x="254.5" y="290" width="79" height="44" as="geometry" />
        </mxCell>
        <mxCell id="fgRlL303UezsXqVz6tfq-20" style="edgeStyle=orthogonalEdgeStyle;rounded=0;orthogonalLoop=1;jettySize=auto;html=1;fontSize=8;exitX=0.5;exitY=1;exitDx=0;exitDy=0;fillColor=#a20025;strokeColor=#6F0000;" edge="1" parent="VIXEUt1QGOeVjG9N0Q05-1" source="fgRlL303UezsXqVz6tfq-22">
          <mxGeometry relative="1" as="geometry">
            <mxPoint x="350" y="380" as="targetPoint" />
            <Array as="points">
              <mxPoint x="447" y="370" />
              <mxPoint x="350" y="370" />
            </Array>
          </mxGeometry>
        </mxCell>
        <mxCell id="fgRlL303UezsXqVz6tfq-21" style="edgeStyle=orthogonalEdgeStyle;rounded=0;orthogonalLoop=1;jettySize=auto;html=1;entryX=1;entryY=0.5;entryDx=0;entryDy=0;fontSize=8;" edge="1" parent="VIXEUt1QGOeVjG9N0Q05-1" source="fgRlL303UezsXqVz6tfq-22" target="fgRlL303UezsXqVz6tfq-16">
          <mxGeometry relative="1" as="geometry">
            <Array as="points">
              <mxPoint x="450" y="200" />
            </Array>
          </mxGeometry>
        </mxCell>
        <mxCell id="fgRlL303UezsXqVz6tfq-22" value="提交订单" style="rhombus;whiteSpace=wrap;html=1;rounded=0;" vertex="1" parent="VIXEUt1QGOeVjG9N0Q05-1">
          <mxGeometry x="412" y="290" width="68" height="47" as="geometry" />
        </mxCell>
        <mxCell id="fgRlL303UezsXqVz6tfq-23" style="edgeStyle=orthogonalEdgeStyle;rounded=1;jumpStyle=arc;orthogonalLoop=1;jettySize=auto;html=1;entryX=0.538;entryY=1.4;entryDx=0;entryDy=0;entryPerimeter=0;fontSize=12;" edge="1" parent="VIXEUt1QGOeVjG9N0Q05-1" source="fgRlL303UezsXqVz6tfq-24" target="fgRlL303UezsXqVz6tfq-3">
          <mxGeometry relative="1" as="geometry" />
        </mxCell>
        <mxCell id="fgRlL303UezsXqVz6tfq-24" value="订单无法支付，提示用户充值" style="whiteSpace=wrap;html=1;rounded=0;" vertex="1" parent="VIXEUt1QGOeVjG9N0Q05-1">
          <mxGeometry x="237.5" y="360" width="112.5" height="29" as="geometry" />
        </mxCell>
        <mxCell id="fgRlL303UezsXqVz6tfq-25" value="" style="edgeStyle=orthogonalEdgeStyle;rounded=0;orthogonalLoop=1;jettySize=auto;html=1;endArrow=none;fillColor=#a20025;strokeColor=#6F0000;" edge="1" parent="VIXEUt1QGOeVjG9N0Q05-1" source="fgRlL303UezsXqVz6tfq-19" target="fgRlL303UezsXqVz6tfq-26">
          <mxGeometry relative="1" as="geometry">
            <mxPoint x="333.5" y="312" as="sourcePoint" />
            <mxPoint x="413" y="312" as="targetPoint" />
          </mxGeometry>
        </mxCell>
        <mxCell id="fgRlL303UezsXqVz6tfq-26" value="&lt;font style=&quot;font-size: 8px;&quot;&gt;&lt;b&gt;Y&lt;/b&gt;&lt;/font&gt;" style="text;html=1;align=center;verticalAlign=middle;resizable=0;points=[];autosize=1;strokeColor=none;fillColor=none;" vertex="1" parent="VIXEUt1QGOeVjG9N0Q05-1">
          <mxGeometry x="364" y="297" width="30" height="30" as="geometry" />
        </mxCell>
        <mxCell id="fgRlL303UezsXqVz6tfq-27" value="&lt;font style=&quot;font-size: 8px;&quot;&gt;&lt;b&gt;N&lt;/b&gt;&lt;/font&gt;" style="text;html=1;align=center;verticalAlign=middle;resizable=0;points=[];autosize=1;strokeColor=none;fillColor=none;" vertex="1" parent="VIXEUt1QGOeVjG9N0Q05-1">
          <mxGeometry x="254.5" y="327" width="30" height="30" as="geometry" />
        </mxCell>
        <mxCell id="fgRlL303UezsXqVz6tfq-28" value="&lt;font style=&quot;font-size: 8px;&quot;&gt;&lt;b&gt;N&lt;/b&gt;&lt;/font&gt;" style="text;html=1;align=center;verticalAlign=middle;resizable=0;points=[];autosize=1;strokeColor=none;fillColor=none;" vertex="1" parent="VIXEUt1QGOeVjG9N0Q05-1">
          <mxGeometry x="418" y="365" width="30" height="30" as="geometry" />
        </mxCell>
        <mxCell id="fgRlL303UezsXqVz6tfq-29" style="edgeStyle=orthogonalEdgeStyle;rounded=0;orthogonalLoop=1;jettySize=auto;html=1;" edge="1" parent="VIXEUt1QGOeVjG9N0Q05-1" source="fgRlL303UezsXqVz6tfq-30" target="fgRlL303UezsXqVz6tfq-62">
          <mxGeometry relative="1" as="geometry" />
        </mxCell>
        <mxCell id="fgRlL303UezsXqVz6tfq-30" value="调度中心" style="whiteSpace=wrap;html=1;rounded=0;" vertex="1" parent="VIXEUt1QGOeVjG9N0Q05-1">
          <mxGeometry x="697.75" y="282.5" width="82" height="30" as="geometry" />
        </mxCell>
        <mxCell id="fgRlL303UezsXqVz6tfq-31" style="edgeStyle=orthogonalEdgeStyle;rounded=0;orthogonalLoop=1;jettySize=auto;html=1;entryX=0.5;entryY=0;entryDx=0;entryDy=0;fontSize=12;" edge="1" parent="VIXEUt1QGOeVjG9N0Q05-1" source="fgRlL303UezsXqVz6tfq-32" target="fgRlL303UezsXqVz6tfq-79">
          <mxGeometry relative="1" as="geometry" />
        </mxCell>
        <mxCell id="fgRlL303UezsXqVz6tfq-32" value="&lt;font style=&quot;font-size: 12px&quot;&gt;将用户购买的算力资源入库&lt;/font&gt;" style="whiteSpace=wrap;html=1;rounded=0;fontSize=8;" vertex="1" parent="VIXEUt1QGOeVjG9N0Q05-1">
          <mxGeometry x="720" y="169.5" width="100" height="34" as="geometry" />
        </mxCell>
        <mxCell id="fgRlL303UezsXqVz6tfq-33" style="edgeStyle=orthogonalEdgeStyle;rounded=0;jumpStyle=arc;orthogonalLoop=1;jettySize=auto;html=1;entryX=0.5;entryY=1;entryDx=0;entryDy=0;fontSize=8;" edge="1" parent="VIXEUt1QGOeVjG9N0Q05-1" source="fgRlL303UezsXqVz6tfq-34" target="fgRlL303UezsXqVz6tfq-24">
          <mxGeometry relative="1" as="geometry">
            <Array as="points">
              <mxPoint x="510" y="131" />
              <mxPoint x="510" y="409" />
              <mxPoint x="293" y="409" />
            </Array>
          </mxGeometry>
        </mxCell>
        <mxCell id="fgRlL303UezsXqVz6tfq-34" value="运营人员" style="rounded=1;whiteSpace=wrap;html=1;fontSize=12;fillColor=#d5e8d4;strokeColor=#82b366;" vertex="1" parent="VIXEUt1QGOeVjG9N0Q05-1">
          <mxGeometry x="629" y="120" width="100" height="20" as="geometry" />
        </mxCell>
        <mxCell id="fgRlL303UezsXqVz6tfq-35" value="&lt;font style=&quot;font-size: 12px&quot;&gt;云资源管理&lt;/font&gt;" style="whiteSpace=wrap;html=1;rounded=0;fontSize=8;" vertex="1" parent="VIXEUt1QGOeVjG9N0Q05-1">
          <mxGeometry x="376.25" y="678.75" width="100" height="34" as="geometry" />
        </mxCell>
        <mxCell id="fgRlL303UezsXqVz6tfq-36" style="edgeStyle=orthogonalEdgeStyle;rounded=0;jumpStyle=arc;orthogonalLoop=1;jettySize=auto;html=1;fontSize=12;fillColor=#008a00;strokeColor=#005700;" edge="1" parent="VIXEUt1QGOeVjG9N0Q05-1" source="fgRlL303UezsXqVz6tfq-38" target="fgRlL303UezsXqVz6tfq-35">
          <mxGeometry relative="1" as="geometry" />
        </mxCell>
        <mxCell id="fgRlL303UezsXqVz6tfq-37" style="edgeStyle=orthogonalEdgeStyle;rounded=0;jumpStyle=arc;orthogonalLoop=1;jettySize=auto;html=1;entryX=0;entryY=0.5;entryDx=0;entryDy=0;fontSize=8;" edge="1" parent="VIXEUt1QGOeVjG9N0Q05-1" source="fgRlL303UezsXqVz6tfq-38" target="fgRlL303UezsXqVz6tfq-41">
          <mxGeometry relative="1" as="geometry" />
        </mxCell>
        <mxCell id="fgRlL303UezsXqVz6tfq-38" value="&lt;span style=&quot;font-size: 12px&quot;&gt;云资源产品的管理&lt;/span&gt;" style="whiteSpace=wrap;html=1;rounded=0;fontSize=8;fillColor=#dae8fc;strokeColor=#6c8ebf;" vertex="1" parent="VIXEUt1QGOeVjG9N0Q05-1">
          <mxGeometry x="205.5" y="678.75" width="96.5" height="34" as="geometry" />
        </mxCell>
        <mxCell id="fgRlL303UezsXqVz6tfq-39" value="&lt;font size=&quot;1&quot;&gt;&lt;b style=&quot;font-size: 8px&quot;&gt;1. 浏览商品&lt;/b&gt;&lt;/font&gt;" style="text;html=1;align=center;verticalAlign=middle;resizable=0;points=[];autosize=1;strokeColor=none;fillColor=none;fontSize=12;strokeWidth=0;" vertex="1" parent="VIXEUt1QGOeVjG9N0Q05-1">
          <mxGeometry x="120" y="175" width="80" height="20" as="geometry" />
        </mxCell>
        <mxCell id="fgRlL303UezsXqVz6tfq-40" value="&lt;b&gt;2. 购买商品&lt;/b&gt;" style="text;html=1;align=center;verticalAlign=middle;resizable=0;points=[];autosize=1;strokeColor=none;fillColor=none;fontSize=8;" vertex="1" parent="VIXEUt1QGOeVjG9N0Q05-1">
          <mxGeometry x="290" y="220" width="80" height="20" as="geometry" />
        </mxCell>
        <mxCell id="fgRlL303UezsXqVz6tfq-41" value="自助运维管理" style="whiteSpace=wrap;html=1;rounded=0;fontSize=8;" vertex="1" parent="VIXEUt1QGOeVjG9N0Q05-1">
          <mxGeometry x="377.25" y="731.75" width="100" height="34" as="geometry" />
        </mxCell>
        <mxCell id="fgRlL303UezsXqVz6tfq-42" value="普通用户" style="rounded=1;whiteSpace=wrap;html=1;fillColor=#dae8fc;strokeColor=#6c8ebf;" vertex="1" parent="VIXEUt1QGOeVjG9N0Q05-1">
          <mxGeometry x="20" y="712.75" width="80" height="20" as="geometry" />
        </mxCell>
        <mxCell id="fgRlL303UezsXqVz6tfq-43" value="运营人员" style="rounded=1;whiteSpace=wrap;html=1;fillColor=#d5e8d4;strokeColor=#82b366;" vertex="1" parent="VIXEUt1QGOeVjG9N0Q05-1">
          <mxGeometry x="20" y="753.75" width="80" height="20" as="geometry" />
        </mxCell>
        <mxCell id="fgRlL303UezsXqVz6tfq-44" value="供应商" style="rounded=1;whiteSpace=wrap;html=1;fillColor=#ffe6cc;strokeColor=#d79b00;" vertex="1" parent="VIXEUt1QGOeVjG9N0Q05-1">
          <mxGeometry x="20" y="788.75" width="80" height="20" as="geometry" />
        </mxCell>
        <mxCell id="fgRlL303UezsXqVz6tfq-45" style="edgeStyle=orthogonalEdgeStyle;rounded=0;orthogonalLoop=1;jettySize=auto;html=1;entryX=0;entryY=0.5;entryDx=0;entryDy=0;exitX=-0.122;exitY=0.1;exitDx=0;exitDy=0;exitPerimeter=0;" edge="1" parent="VIXEUt1QGOeVjG9N0Q05-1" source="fgRlL303UezsXqVz6tfq-46" target="fgRlL303UezsXqVz6tfq-51">
          <mxGeometry relative="1" as="geometry" />
        </mxCell>
        <mxCell id="fgRlL303UezsXqVz6tfq-46" value="&lt;font style=&quot;font-size: 8px;&quot;&gt;&lt;b&gt;Y&lt;/b&gt;&lt;/font&gt;" style="text;html=1;align=center;verticalAlign=middle;resizable=0;points=[];autosize=1;strokeColor=none;fillColor=none;" vertex="1" parent="VIXEUt1QGOeVjG9N0Q05-1">
          <mxGeometry x="480" y="310" width="30" height="30" as="geometry" />
        </mxCell>
        <mxCell id="fgRlL303UezsXqVz6tfq-47" value="审核" style="rhombus;whiteSpace=wrap;html=1;rounded=0;fillColor=#d5e8d4;strokeColor=#82b366;" vertex="1" parent="VIXEUt1QGOeVjG9N0Q05-1">
          <mxGeometry x="255" y="131" width="79" height="44" as="geometry" />
        </mxCell>
        <mxCell id="fgRlL303UezsXqVz6tfq-48" value="" style="edgeStyle=orthogonalEdgeStyle;rounded=0;orthogonalLoop=1;jettySize=auto;html=1;fillColor=#ffe6cc;strokeColor=#d79b00;endArrow=none;" edge="1" parent="VIXEUt1QGOeVjG9N0Q05-1" source="fgRlL303UezsXqVz6tfq-10">
          <mxGeometry relative="1" as="geometry">
            <mxPoint x="296.03333333333353" y="111" as="sourcePoint" />
            <mxPoint x="296.03333333333353" y="121.01856540084384" as="targetPoint" />
          </mxGeometry>
        </mxCell>
        <mxCell id="fgRlL303UezsXqVz6tfq-49" style="edgeStyle=orthogonalEdgeStyle;rounded=0;orthogonalLoop=1;jettySize=auto;html=1;exitX=1;exitY=0.5;exitDx=0;exitDy=0;entryX=0;entryY=0.5;entryDx=0;entryDy=0;" edge="1" parent="VIXEUt1QGOeVjG9N0Q05-1" source="fgRlL303UezsXqVz6tfq-51" target="fgRlL303UezsXqVz6tfq-32">
          <mxGeometry relative="1" as="geometry" />
        </mxCell>
        <mxCell id="fgRlL303UezsXqVz6tfq-50" style="edgeStyle=orthogonalEdgeStyle;rounded=0;orthogonalLoop=1;jettySize=auto;html=1;exitX=0.5;exitY=1;exitDx=0;exitDy=0;entryX=0.504;entryY=0.137;entryDx=0;entryDy=0;entryPerimeter=0;" edge="1" parent="VIXEUt1QGOeVjG9N0Q05-1" source="fgRlL303UezsXqVz6tfq-51" target="fgRlL303UezsXqVz6tfq-60">
          <mxGeometry relative="1" as="geometry" />
        </mxCell>
        <mxCell id="fgRlL303UezsXqVz6tfq-51" value="是否是算力资源商品" style="rhombus;whiteSpace=wrap;html=1;rounded=0;" vertex="1" parent="VIXEUt1QGOeVjG9N0Q05-1">
          <mxGeometry x="570" y="150" width="80" height="73" as="geometry" />
        </mxCell>
        <mxCell id="fgRlL303UezsXqVz6tfq-52" value="已购买的算力集群概览" style="whiteSpace=wrap;html=1;rounded=0;fontSize=12;" vertex="1" parent="VIXEUt1QGOeVjG9N0Q05-1">
          <mxGeometry x="371.75" y="619.75" width="97.75" height="27" as="geometry" />
        </mxCell>
        <mxCell id="fgRlL303UezsXqVz6tfq-53" style="edgeStyle=orthogonalEdgeStyle;rounded=0;jumpStyle=arc;orthogonalLoop=1;jettySize=auto;html=1;fontSize=12;fillColor=#008a00;strokeColor=#005700;" edge="1" parent="VIXEUt1QGOeVjG9N0Q05-1" source="fgRlL303UezsXqVz6tfq-56" target="fgRlL303UezsXqVz6tfq-52">
          <mxGeometry relative="1" as="geometry">
            <mxPoint x="370" y="629.75" as="targetPoint" />
            <Array as="points">
              <mxPoint x="320" y="582.75" />
              <mxPoint x="320" y="629.75" />
            </Array>
          </mxGeometry>
        </mxCell>
        <mxCell id="fgRlL303UezsXqVz6tfq-54" style="edgeStyle=orthogonalEdgeStyle;rounded=0;jumpStyle=arc;orthogonalLoop=1;jettySize=auto;html=1;entryX=0;entryY=0.5;entryDx=0;entryDy=0;fontSize=8;" edge="1" parent="VIXEUt1QGOeVjG9N0Q05-1" source="fgRlL303UezsXqVz6tfq-56" target="fgRlL303UezsXqVz6tfq-58">
          <mxGeometry relative="1" as="geometry">
            <Array as="points">
              <mxPoint x="320" y="582.75" />
              <mxPoint x="320" y="539.75" />
            </Array>
          </mxGeometry>
        </mxCell>
        <mxCell id="fgRlL303UezsXqVz6tfq-55" style="edgeStyle=orthogonalEdgeStyle;rounded=0;orthogonalLoop=1;jettySize=auto;html=1;entryX=0;entryY=0.5;entryDx=0;entryDy=0;" edge="1" parent="VIXEUt1QGOeVjG9N0Q05-1" source="fgRlL303UezsXqVz6tfq-56" target="fgRlL303UezsXqVz6tfq-71">
          <mxGeometry relative="1" as="geometry" />
        </mxCell>
        <mxCell id="fgRlL303UezsXqVz6tfq-56" value="算力资源管理控制台" style="whiteSpace=wrap;html=1;rounded=0;fontSize=12;fillColor=#dae8fc;strokeColor=#6c8ebf;" vertex="1" parent="VIXEUt1QGOeVjG9N0Q05-1">
          <mxGeometry x="200" y="565.75" width="100" height="34" as="geometry" />
        </mxCell>
        <mxCell id="fgRlL303UezsXqVz6tfq-57" style="edgeStyle=orthogonalEdgeStyle;rounded=0;orthogonalLoop=1;jettySize=auto;html=1;entryX=0;entryY=0.5;entryDx=0;entryDy=0;" edge="1" parent="VIXEUt1QGOeVjG9N0Q05-1" source="fgRlL303UezsXqVz6tfq-58" target="fgRlL303UezsXqVz6tfq-66">
          <mxGeometry relative="1" as="geometry" />
        </mxCell>
        <mxCell id="fgRlL303UezsXqVz6tfq-58" value="&lt;span style=&quot;font-size: 12px&quot;&gt;提交作业&lt;/span&gt;" style="whiteSpace=wrap;html=1;rounded=0;fontSize=8;" vertex="1" parent="VIXEUt1QGOeVjG9N0Q05-1">
          <mxGeometry x="371.75" y="523" width="98.25" height="34" as="geometry" />
        </mxCell>
        <mxCell id="fgRlL303UezsXqVz6tfq-59" style="edgeStyle=orthogonalEdgeStyle;rounded=0;orthogonalLoop=1;jettySize=auto;html=1;entryX=0;entryY=0.5;entryDx=0;entryDy=0;" edge="1" parent="VIXEUt1QGOeVjG9N0Q05-1" source="fgRlL303UezsXqVz6tfq-60" target="fgRlL303UezsXqVz6tfq-30">
          <mxGeometry relative="1" as="geometry" />
        </mxCell>
        <mxCell id="fgRlL303UezsXqVz6tfq-60" value="是否是云资源商品" style="rhombus;whiteSpace=wrap;html=1;rounded=0;" vertex="1" parent="VIXEUt1QGOeVjG9N0Q05-1">
          <mxGeometry x="570" y="261" width="80" height="73" as="geometry" />
        </mxCell>
        <mxCell id="fgRlL303UezsXqVz6tfq-61" style="edgeStyle=orthogonalEdgeStyle;rounded=0;orthogonalLoop=1;jettySize=auto;html=1;entryX=0;entryY=0.5;entryDx=0;entryDy=0;" edge="1" parent="VIXEUt1QGOeVjG9N0Q05-1" source="fgRlL303UezsXqVz6tfq-62" target="fgRlL303UezsXqVz6tfq-64">
          <mxGeometry relative="1" as="geometry" />
        </mxCell>
        <mxCell id="fgRlL303UezsXqVz6tfq-62" value="决定资源池选择(规则引擎）" style="whiteSpace=wrap;html=1;rounded=0;" vertex="1" parent="VIXEUt1QGOeVjG9N0Q05-1">
          <mxGeometry x="818" y="281.25" width="78" height="32.5" as="geometry" />
        </mxCell>
        <mxCell id="fgRlL303UezsXqVz6tfq-63" style="edgeStyle=orthogonalEdgeStyle;rounded=0;orthogonalLoop=1;jettySize=auto;html=1;fontSize=12;" edge="1" parent="VIXEUt1QGOeVjG9N0Q05-1" source="fgRlL303UezsXqVz6tfq-64">
          <mxGeometry relative="1" as="geometry">
            <mxPoint x="1030" y="530" as="targetPoint" />
            <Array as="points">
              <mxPoint x="1030" y="298" />
            </Array>
          </mxGeometry>
        </mxCell>
        <mxCell id="fgRlL303UezsXqVz6tfq-64" value="云资源部署" style="whiteSpace=wrap;html=1;rounded=0;" vertex="1" parent="VIXEUt1QGOeVjG9N0Q05-1">
          <mxGeometry x="933" y="281.25" width="82" height="32.5" as="geometry" />
        </mxCell>
        <mxCell id="fgRlL303UezsXqVz6tfq-65" style="edgeStyle=orthogonalEdgeStyle;rounded=0;orthogonalLoop=1;jettySize=auto;html=1;" edge="1" parent="VIXEUt1QGOeVjG9N0Q05-1" source="fgRlL303UezsXqVz6tfq-66" target="fgRlL303UezsXqVz6tfq-68">
          <mxGeometry relative="1" as="geometry" />
        </mxCell>
        <mxCell id="fgRlL303UezsXqVz6tfq-66" value="调度中心" style="whiteSpace=wrap;html=1;rounded=0;" vertex="1" parent="VIXEUt1QGOeVjG9N0Q05-1">
          <mxGeometry x="537" y="525" width="82" height="30" as="geometry" />
        </mxCell>
        <mxCell id="fgRlL303UezsXqVz6tfq-67" style="edgeStyle=orthogonalEdgeStyle;rounded=0;orthogonalLoop=1;jettySize=auto;html=1;entryX=0;entryY=0.5;entryDx=0;entryDy=0;" edge="1" parent="VIXEUt1QGOeVjG9N0Q05-1" source="fgRlL303UezsXqVz6tfq-68" target="fgRlL303UezsXqVz6tfq-70">
          <mxGeometry relative="1" as="geometry" />
        </mxCell>
        <mxCell id="fgRlL303UezsXqVz6tfq-68" value="决定资源池选择(规则引擎）" style="whiteSpace=wrap;html=1;rounded=0;" vertex="1" parent="VIXEUt1QGOeVjG9N0Q05-1">
          <mxGeometry x="675" y="523.75" width="82" height="32.5" as="geometry" />
        </mxCell>
        <mxCell id="fgRlL303UezsXqVz6tfq-69" style="edgeStyle=orthogonalEdgeStyle;rounded=0;orthogonalLoop=1;jettySize=auto;html=1;entryX=0;entryY=0.5;entryDx=0;entryDy=0;fontSize=12;" edge="1" parent="VIXEUt1QGOeVjG9N0Q05-1" source="fgRlL303UezsXqVz6tfq-70" target="fgRlL303UezsXqVz6tfq-79">
          <mxGeometry relative="1" as="geometry" />
        </mxCell>
        <mxCell id="fgRlL303UezsXqVz6tfq-70" value="执行作业" style="whiteSpace=wrap;html=1;rounded=0;" vertex="1" parent="VIXEUt1QGOeVjG9N0Q05-1">
          <mxGeometry x="790" y="523.5" width="82" height="32.5" as="geometry" />
        </mxCell>
        <mxCell id="fgRlL303UezsXqVz6tfq-71" value="作业概览" style="whiteSpace=wrap;html=1;rounded=0;fontSize=12;" vertex="1" parent="VIXEUt1QGOeVjG9N0Q05-1">
          <mxGeometry x="371.75" y="568.25" width="98.25" height="29" as="geometry" />
        </mxCell>
        <mxCell id="fgRlL303UezsXqVz6tfq-72" style="edgeStyle=orthogonalEdgeStyle;rounded=0;orthogonalLoop=1;jettySize=auto;html=1;entryX=0;entryY=0.5;entryDx=0;entryDy=0;fontSize=12;" edge="1" parent="VIXEUt1QGOeVjG9N0Q05-1" source="fgRlL303UezsXqVz6tfq-74" target="fgRlL303UezsXqVz6tfq-77">
          <mxGeometry relative="1" as="geometry" />
        </mxCell>
        <mxCell id="fgRlL303UezsXqVz6tfq-73" style="edgeStyle=orthogonalEdgeStyle;rounded=0;orthogonalLoop=1;jettySize=auto;html=1;entryX=0;entryY=0.5;entryDx=0;entryDy=0;fontSize=12;" edge="1" parent="VIXEUt1QGOeVjG9N0Q05-1" source="fgRlL303UezsXqVz6tfq-74" target="fgRlL303UezsXqVz6tfq-78">
          <mxGeometry relative="1" as="geometry" />
        </mxCell>
        <mxCell id="fgRlL303UezsXqVz6tfq-74" value="费用管理模块" style="whiteSpace=wrap;html=1;rounded=0;fontSize=12;fillColor=#dae8fc;strokeColor=#6c8ebf;" vertex="1" parent="VIXEUt1QGOeVjG9N0Q05-1">
          <mxGeometry x="200" y="448" width="100" height="34" as="geometry" />
        </mxCell>
        <mxCell id="fgRlL303UezsXqVz6tfq-75" style="edgeStyle=orthogonalEdgeStyle;rounded=0;orthogonalLoop=1;jettySize=auto;html=1;entryX=0;entryY=0.5;entryDx=0;entryDy=0;exitX=0.105;exitY=1.29;exitDx=0;exitDy=0;exitPerimeter=0;" edge="1" parent="VIXEUt1QGOeVjG9N0Q05-1" source="fgRlL303UezsXqVz6tfq-39" target="fgRlL303UezsXqVz6tfq-74">
          <mxGeometry relative="1" as="geometry">
            <Array as="points">
              <mxPoint x="150" y="201" />
              <mxPoint x="150" y="465" />
            </Array>
            <mxPoint x="140" y="210" as="sourcePoint" />
            <mxPoint x="212" y="571.75" as="targetPoint" />
          </mxGeometry>
        </mxCell>
        <mxCell id="fgRlL303UezsXqVz6tfq-76" style="edgeStyle=orthogonalEdgeStyle;rounded=0;orthogonalLoop=1;jettySize=auto;html=1;" edge="1" parent="VIXEUt1QGOeVjG9N0Q05-1" source="fgRlL303UezsXqVz6tfq-77">
          <mxGeometry relative="1" as="geometry">
            <mxPoint x="1030" y="520" as="targetPoint" />
          </mxGeometry>
        </mxCell>
        <mxCell id="fgRlL303UezsXqVz6tfq-77" value="费用充值" style="whiteSpace=wrap;html=1;rounded=0;fontSize=12;" vertex="1" parent="VIXEUt1QGOeVjG9N0Q05-1">
          <mxGeometry x="371.5" y="424" width="98.25" height="29" as="geometry" />
        </mxCell>
        <mxCell id="fgRlL303UezsXqVz6tfq-78" value="账单和开票管理" style="whiteSpace=wrap;html=1;rounded=0;fontSize=12;" vertex="1" parent="VIXEUt1QGOeVjG9N0Q05-1">
          <mxGeometry x="371.5" y="468.5" width="98.25" height="29" as="geometry" />
        </mxCell>
        <mxCell id="fgRlL303UezsXqVz6tfq-79" value="通知模块" style="whiteSpace=wrap;html=1;rounded=0;" vertex="1" parent="VIXEUt1QGOeVjG9N0Q05-1">
          <mxGeometry x="990" y="524.25" width="82" height="32.5" as="geometry" />
        </mxCell>
      </root>
    </mxGraphModel>
  </diagram>
  <diagram id="lpPps4s4p0AqVPR-M476" name="调度中心">
    <mxGraphModel dx="2364" dy="1328" grid="1" gridSize="10" guides="1" tooltips="1" connect="1" arrows="1" fold="1" page="1" pageScale="1" pageWidth="827" pageHeight="1169" math="0" shadow="0">
      <root>
        <mxCell id="SILK54dHAvNOzjB8yKQB-0" />
        <mxCell id="SILK54dHAvNOzjB8yKQB-1" parent="SILK54dHAvNOzjB8yKQB-0" />
        <mxCell id="X89wkOB1TVb4V39qwBD7-160" value="" style="rounded=0;whiteSpace=wrap;html=1;dashed=1;fillColor=#e1d5e7;strokeColor=#9673a6;" vertex="1" parent="SILK54dHAvNOzjB8yKQB-1">
          <mxGeometry x="730" y="560" width="350" height="480" as="geometry" />
        </mxCell>
        <mxCell id="X89wkOB1TVb4V39qwBD7-122" value="调度引擎" style="rounded=1;whiteSpace=wrap;html=1;fillColor=#9AC7BF;strokeColor=#FFD966;fontColor=#ffffff;fontSize=14;arcSize=3;" vertex="1" parent="SILK54dHAvNOzjB8yKQB-1">
          <mxGeometry x="100" y="430" width="610" height="760" as="geometry" />
        </mxCell>
        <mxCell id="11j2IEYDevcU4qgA-R8J-22" value="" style="rounded=0;whiteSpace=wrap;html=1;dashed=1;" vertex="1" parent="SILK54dHAvNOzjB8yKQB-1">
          <mxGeometry x="459.13" y="958" width="211.87" height="196" as="geometry" />
        </mxCell>
        <mxCell id="X89wkOB1TVb4V39qwBD7-159" style="edgeStyle=orthogonalEdgeStyle;rounded=0;orthogonalLoop=1;jettySize=auto;html=1;entryX=1;entryY=0.5;entryDx=0;entryDy=0;fontSize=11;" edge="1" parent="SILK54dHAvNOzjB8yKQB-1" target="X89wkOB1TVb4V39qwBD7-138">
          <mxGeometry relative="1" as="geometry">
            <mxPoint x="980" y="960" as="sourcePoint" />
            <Array as="points">
              <mxPoint x="980" y="1019" />
            </Array>
          </mxGeometry>
        </mxCell>
        <mxCell id="W9VSpEo2qaQ-JujLanyl-0" value="" style="rounded=0;whiteSpace=wrap;html=1;dashed=1;fillColor=#dae8fc;strokeColor=#6c8ebf;gradientColor=none;" vertex="1" parent="SILK54dHAvNOzjB8yKQB-1">
          <mxGeometry x="121.75" y="662" width="548.25" height="276" as="geometry" />
        </mxCell>
        <mxCell id="W9VSpEo2qaQ-JujLanyl-6" value="" style="rounded=0;whiteSpace=wrap;html=1;dashed=1;" vertex="1" parent="SILK54dHAvNOzjB8yKQB-1">
          <mxGeometry x="421.13" y="708" width="231.87" height="214" as="geometry" />
        </mxCell>
        <mxCell id="W9VSpEo2qaQ-JujLanyl-7" value="调度引擎" style="rounded=1;whiteSpace=wrap;html=1;fillColor=#ffe6cc;strokeColor=#d79b00;fontSize=14;arcSize=9;" vertex="1" parent="SILK54dHAvNOzjB8yKQB-1">
          <mxGeometry x="122.88" y="657" width="547.12" height="25" as="geometry" />
        </mxCell>
        <mxCell id="W9VSpEo2qaQ-JujLanyl-13" value="规则引擎决策树" style="rounded=1;whiteSpace=wrap;html=1;fillColor=#ffe6cc;strokeColor=#d79b00;" vertex="1" parent="SILK54dHAvNOzjB8yKQB-1">
          <mxGeometry x="426.13" y="718" width="223.87" height="26" as="geometry" />
        </mxCell>
        <mxCell id="W9VSpEo2qaQ-JujLanyl-14" value="最小延迟规则" style="rounded=1;whiteSpace=wrap;html=1;" vertex="1" parent="SILK54dHAvNOzjB8yKQB-1">
          <mxGeometry x="434.13" y="755.5" width="95" height="20" as="geometry" />
        </mxCell>
        <mxCell id="W9VSpEo2qaQ-JujLanyl-16" value="费用最低规则" style="rounded=1;whiteSpace=wrap;html=1;" vertex="1" parent="SILK54dHAvNOzjB8yKQB-1">
          <mxGeometry x="538.13" y="756" width="95" height="20" as="geometry" />
        </mxCell>
        <mxCell id="W9VSpEo2qaQ-JujLanyl-27" value="更多规则" style="rounded=1;whiteSpace=wrap;html=1;arcSize=36;" vertex="1" parent="SILK54dHAvNOzjB8yKQB-1">
          <mxGeometry x="434.13" y="892" width="205.87" height="20" as="geometry" />
        </mxCell>
        <mxCell id="11j2IEYDevcU4qgA-R8J-1" value="" style="rounded=0;whiteSpace=wrap;html=1;dashed=1;" vertex="1" parent="SILK54dHAvNOzjB8yKQB-1">
          <mxGeometry x="122.75" y="537" width="160" height="109" as="geometry" />
        </mxCell>
        <mxCell id="11j2IEYDevcU4qgA-R8J-2" value="调度任务提交" style="rounded=1;whiteSpace=wrap;html=1;fillColor=#0050EF;strokeColor=#001DBC;fontSize=14;fontColor=#ffffff;" vertex="1" parent="SILK54dHAvNOzjB8yKQB-1">
          <mxGeometry x="122.75" y="516" width="159" height="20" as="geometry" />
        </mxCell>
        <mxCell id="11j2IEYDevcU4qgA-R8J-4" value="任务提交" style="rounded=1;whiteSpace=wrap;html=1;" vertex="1" parent="SILK54dHAvNOzjB8yKQB-1">
          <mxGeometry x="127.75" y="547" width="151" height="20" as="geometry" />
        </mxCell>
        <mxCell id="11j2IEYDevcU4qgA-R8J-17" value="精度算力最高" style="rounded=1;whiteSpace=wrap;html=1;" vertex="1" parent="SILK54dHAvNOzjB8yKQB-1">
          <mxGeometry x="434.13" y="791.5" width="95" height="20" as="geometry" />
        </mxCell>
        <mxCell id="11j2IEYDevcU4qgA-R8J-18" value="浮点算力最高" style="rounded=1;whiteSpace=wrap;html=1;" vertex="1" parent="SILK54dHAvNOzjB8yKQB-1">
          <mxGeometry x="538.13" y="791.5" width="95" height="20" as="geometry" />
        </mxCell>
        <mxCell id="11j2IEYDevcU4qgA-R8J-19" value="空闲存储最多" style="rounded=1;whiteSpace=wrap;html=1;" vertex="1" parent="SILK54dHAvNOzjB8yKQB-1">
          <mxGeometry x="434.13" y="827.5" width="95" height="20" as="geometry" />
        </mxCell>
        <mxCell id="11j2IEYDevcU4qgA-R8J-20" value="张量算力最高" style="rounded=1;whiteSpace=wrap;html=1;" vertex="1" parent="SILK54dHAvNOzjB8yKQB-1">
          <mxGeometry x="538.13" y="827.5" width="95" height="20" as="geometry" />
        </mxCell>
        <mxCell id="X89wkOB1TVb4V39qwBD7-142" style="edgeStyle=orthogonalEdgeStyle;rounded=0;orthogonalLoop=1;jettySize=auto;html=1;entryX=0.5;entryY=1;entryDx=0;entryDy=0;fontSize=11;" edge="1" parent="SILK54dHAvNOzjB8yKQB-1" target="W9VSpEo2qaQ-JujLanyl-27">
          <mxGeometry relative="1" as="geometry">
            <mxPoint x="561.0588235294122" y="957" as="sourcePoint" />
          </mxGeometry>
        </mxCell>
        <mxCell id="11j2IEYDevcU4qgA-R8J-23" value="规则管理" style="rounded=1;whiteSpace=wrap;html=1;fillColor=#ffe6cc;strokeColor=#d79b00;" vertex="1" parent="SILK54dHAvNOzjB8yKQB-1">
          <mxGeometry x="470.13" y="968" width="182" height="24" as="geometry" />
        </mxCell>
        <mxCell id="11j2IEYDevcU4qgA-R8J-37" style="edgeStyle=orthogonalEdgeStyle;rounded=0;orthogonalLoop=1;jettySize=auto;html=1;exitX=0.5;exitY=1;exitDx=0;exitDy=0;entryX=0.5;entryY=0;entryDx=0;entryDy=0;" edge="1" parent="SILK54dHAvNOzjB8yKQB-1" source="11j2IEYDevcU4qgA-R8J-24" target="11j2IEYDevcU4qgA-R8J-27">
          <mxGeometry relative="1" as="geometry">
            <mxPoint x="516.1300000000001" y="1050" as="sourcePoint" />
          </mxGeometry>
        </mxCell>
        <mxCell id="11j2IEYDevcU4qgA-R8J-24" value="可视化规则定义" style="rounded=1;whiteSpace=wrap;html=1;arcSize=17;" vertex="1" parent="SILK54dHAvNOzjB8yKQB-1">
          <mxGeometry x="472.13" y="1006.5" width="88" height="25.5" as="geometry" />
        </mxCell>
        <mxCell id="11j2IEYDevcU4qgA-R8J-38" value="" style="edgeStyle=orthogonalEdgeStyle;rounded=0;orthogonalLoop=1;jettySize=auto;html=1;" edge="1" parent="SILK54dHAvNOzjB8yKQB-1" target="11j2IEYDevcU4qgA-R8J-34">
          <mxGeometry relative="1" as="geometry">
            <mxPoint x="560.1299999999999" y="1105.941176470588" as="sourcePoint" />
            <Array as="points">
              <mxPoint x="570.1300000000001" y="1106" />
              <mxPoint x="570.1300000000001" y="1136" />
            </Array>
          </mxGeometry>
        </mxCell>
        <mxCell id="11j2IEYDevcU4qgA-R8J-42" style="edgeStyle=orthogonalEdgeStyle;rounded=0;orthogonalLoop=1;jettySize=auto;html=1;entryX=0;entryY=0.75;entryDx=0;entryDy=0;" edge="1" parent="SILK54dHAvNOzjB8yKQB-1" target="11j2IEYDevcU4qgA-R8J-31">
          <mxGeometry relative="1" as="geometry">
            <mxPoint x="560.1299999999999" y="1105.941176470588" as="sourcePoint" />
            <Array as="points">
              <mxPoint x="570.1300000000001" y="1106" />
              <mxPoint x="570.1300000000001" y="1080" />
            </Array>
          </mxGeometry>
        </mxCell>
        <mxCell id="11j2IEYDevcU4qgA-R8J-45" style="edgeStyle=orthogonalEdgeStyle;rounded=0;orthogonalLoop=1;jettySize=auto;html=1;" edge="1" parent="SILK54dHAvNOzjB8yKQB-1" target="11j2IEYDevcU4qgA-R8J-32">
          <mxGeometry relative="1" as="geometry">
            <mxPoint x="560.1299999999999" y="1105.941176470588" as="sourcePoint" />
            <Array as="points" />
          </mxGeometry>
        </mxCell>
        <mxCell id="11j2IEYDevcU4qgA-R8J-27" value="规则解析" style="rounded=1;whiteSpace=wrap;html=1;" vertex="1" parent="SILK54dHAvNOzjB8yKQB-1">
          <mxGeometry x="472.13" y="1090" width="88" height="20" as="geometry" />
        </mxCell>
        <mxCell id="11j2IEYDevcU4qgA-R8J-31" value="DSL解析" style="rounded=1;whiteSpace=wrap;html=1;" vertex="1" parent="SILK54dHAvNOzjB8yKQB-1">
          <mxGeometry x="586.1300000000001" y="1063" width="70" height="22" as="geometry" />
        </mxCell>
        <mxCell id="11j2IEYDevcU4qgA-R8J-32" value="向量解析" style="rounded=1;whiteSpace=wrap;html=1;" vertex="1" parent="SILK54dHAvNOzjB8yKQB-1">
          <mxGeometry x="586.1300000000001" y="1094.5" width="70" height="23" as="geometry" />
        </mxCell>
        <mxCell id="11j2IEYDevcU4qgA-R8J-34" value="上下文绑定" style="rounded=1;whiteSpace=wrap;html=1;" vertex="1" parent="SILK54dHAvNOzjB8yKQB-1">
          <mxGeometry x="586.1300000000001" y="1124" width="70" height="23" as="geometry" />
        </mxCell>
        <mxCell id="X89wkOB1TVb4V39qwBD7-32" value="上下文信息获取" style="rounded=1;whiteSpace=wrap;html=1;" vertex="1" parent="SILK54dHAvNOzjB8yKQB-1">
          <mxGeometry x="126.75" y="579" width="151" height="20" as="geometry" />
        </mxCell>
        <mxCell id="X89wkOB1TVb4V39qwBD7-33" value="流量控制" style="rounded=1;whiteSpace=wrap;html=1;" vertex="1" parent="SILK54dHAvNOzjB8yKQB-1">
          <mxGeometry x="127.75" y="612" width="151" height="20" as="geometry" />
        </mxCell>
        <mxCell id="X89wkOB1TVb4V39qwBD7-34" value="" style="rounded=0;whiteSpace=wrap;html=1;dashed=1;fillColor=#dae8fc;strokeColor=#6c8ebf;gradientColor=none;" vertex="1" parent="SILK54dHAvNOzjB8yKQB-1">
          <mxGeometry x="121.75" y="958" width="138.25" height="168" as="geometry" />
        </mxCell>
        <mxCell id="X89wkOB1TVb4V39qwBD7-38" value="云资源任务执行器" style="rounded=1;whiteSpace=wrap;html=1;fillColor=#9999FF;strokeColor=#d79b00;" vertex="1" parent="SILK54dHAvNOzjB8yKQB-1">
          <mxGeometry x="126.75" y="966.5" width="123.25" height="24" as="geometry" />
        </mxCell>
        <mxCell id="X89wkOB1TVb4V39qwBD7-57" value="任务执行" style="rounded=1;whiteSpace=wrap;html=1;fillColor=#dae8fc;strokeColor=#6c8ebf;gradientColor=#7ea6e0;" vertex="1" parent="SILK54dHAvNOzjB8yKQB-1">
          <mxGeometry x="137.88" y="1037.5" width="101" height="27" as="geometry" />
        </mxCell>
        <mxCell id="X89wkOB1TVb4V39qwBD7-58" value="任务提交" style="rounded=1;whiteSpace=wrap;html=1;fillColor=#dae8fc;strokeColor=#6c8ebf;gradientColor=#7ea6e0;" vertex="1" parent="SILK54dHAvNOzjB8yKQB-1">
          <mxGeometry x="137.88" y="999" width="101" height="27" as="geometry" />
        </mxCell>
        <mxCell id="X89wkOB1TVb4V39qwBD7-59" value="进度反馈" style="rounded=1;whiteSpace=wrap;html=1;fillColor=#dae8fc;strokeColor=#6c8ebf;gradientColor=#7ea6e0;" vertex="1" parent="SILK54dHAvNOzjB8yKQB-1">
          <mxGeometry x="137.88" y="1077.5" width="101" height="27" as="geometry" />
        </mxCell>
        <mxCell id="X89wkOB1TVb4V39qwBD7-70" value="" style="rounded=0;whiteSpace=wrap;html=1;dashed=1;" vertex="1" parent="SILK54dHAvNOzjB8yKQB-1">
          <mxGeometry x="128.88" y="707" width="251.12" height="215" as="geometry" />
        </mxCell>
        <mxCell id="X89wkOB1TVb4V39qwBD7-71" value="运行时任务调度" style="rounded=1;whiteSpace=wrap;html=1;fillColor=#ffe6cc;strokeColor=#d79b00;" vertex="1" parent="SILK54dHAvNOzjB8yKQB-1">
          <mxGeometry x="148.25" y="718" width="182" height="24" as="geometry" />
        </mxCell>
        <mxCell id="X89wkOB1TVb4V39qwBD7-81" value="API 网关" style="rounded=1;whiteSpace=wrap;html=1;fillColor=#dae8fc;strokeColor=#6c8ebf;gradientColor=#7ea6e0;" vertex="1" parent="SILK54dHAvNOzjB8yKQB-1">
          <mxGeometry x="119.75" y="478" width="548.25" height="26" as="geometry" />
        </mxCell>
        <mxCell id="X89wkOB1TVb4V39qwBD7-88" style="edgeStyle=orthogonalEdgeStyle;rounded=0;orthogonalLoop=1;jettySize=auto;html=1;exitX=0.5;exitY=1;exitDx=0;exitDy=0;entryX=0.5;entryY=0;entryDx=0;entryDy=0;" edge="1" parent="SILK54dHAvNOzjB8yKQB-1" source="X89wkOB1TVb4V39qwBD7-82" target="X89wkOB1TVb4V39qwBD7-83">
          <mxGeometry relative="1" as="geometry" />
        </mxCell>
        <mxCell id="X89wkOB1TVb4V39qwBD7-82" value="任务提交" style="rounded=1;whiteSpace=wrap;html=1;" vertex="1" parent="SILK54dHAvNOzjB8yKQB-1">
          <mxGeometry x="191.75" y="756" width="95" height="20" as="geometry" />
        </mxCell>
        <mxCell id="X89wkOB1TVb4V39qwBD7-83" value="规则决策" style="rounded=1;whiteSpace=wrap;html=1;" vertex="1" parent="SILK54dHAvNOzjB8yKQB-1">
          <mxGeometry x="191.75" y="791.5" width="95" height="20" as="geometry" />
        </mxCell>
        <mxCell id="X89wkOB1TVb4V39qwBD7-93" style="edgeStyle=orthogonalEdgeStyle;rounded=0;orthogonalLoop=1;jettySize=auto;html=1;entryX=0.5;entryY=0;entryDx=0;entryDy=0;" edge="1" parent="SILK54dHAvNOzjB8yKQB-1" source="X89wkOB1TVb4V39qwBD7-84" target="X89wkOB1TVb4V39qwBD7-85">
          <mxGeometry relative="1" as="geometry" />
        </mxCell>
        <mxCell id="X89wkOB1TVb4V39qwBD7-94" style="edgeStyle=orthogonalEdgeStyle;rounded=0;orthogonalLoop=1;jettySize=auto;html=1;" edge="1" parent="SILK54dHAvNOzjB8yKQB-1" source="X89wkOB1TVb4V39qwBD7-84" target="X89wkOB1TVb4V39qwBD7-86">
          <mxGeometry relative="1" as="geometry">
            <Array as="points">
              <mxPoint x="238" y="872" />
              <mxPoint x="310" y="872" />
            </Array>
          </mxGeometry>
        </mxCell>
        <mxCell id="X89wkOB1TVb4V39qwBD7-84" value="任务执行调度" style="rounded=1;whiteSpace=wrap;html=1;" vertex="1" parent="SILK54dHAvNOzjB8yKQB-1">
          <mxGeometry x="190.75" y="827.5" width="95" height="24.5" as="geometry" />
        </mxCell>
        <mxCell id="X89wkOB1TVb4V39qwBD7-108" style="edgeStyle=orthogonalEdgeStyle;rounded=0;orthogonalLoop=1;jettySize=auto;html=1;fontSize=11;entryX=0.5;entryY=0;entryDx=0;entryDy=0;" edge="1" parent="SILK54dHAvNOzjB8yKQB-1" source="X89wkOB1TVb4V39qwBD7-85" target="X89wkOB1TVb4V39qwBD7-34">
          <mxGeometry relative="1" as="geometry">
            <mxPoint x="190.9411764705883" y="950" as="targetPoint" />
          </mxGeometry>
        </mxCell>
        <mxCell id="X89wkOB1TVb4V39qwBD7-85" value="云资源任务执行器" style="rounded=1;whiteSpace=wrap;html=1;" vertex="1" parent="SILK54dHAvNOzjB8yKQB-1">
          <mxGeometry x="138.88" y="892" width="104.5" height="20" as="geometry" />
        </mxCell>
        <mxCell id="X89wkOB1TVb4V39qwBD7-109" style="edgeStyle=orthogonalEdgeStyle;rounded=0;orthogonalLoop=1;jettySize=auto;html=1;fontSize=11;entryX=0.5;entryY=0;entryDx=0;entryDy=0;" edge="1" parent="SILK54dHAvNOzjB8yKQB-1" source="X89wkOB1TVb4V39qwBD7-86" target="X89wkOB1TVb4V39qwBD7-103">
          <mxGeometry relative="1" as="geometry">
            <mxPoint x="350" y="950" as="targetPoint" />
          </mxGeometry>
        </mxCell>
        <mxCell id="X89wkOB1TVb4V39qwBD7-86" value="云资源任务执行器" style="rounded=1;whiteSpace=wrap;html=1;" vertex="1" parent="SILK54dHAvNOzjB8yKQB-1">
          <mxGeometry x="257.5" y="892" width="104.5" height="20" as="geometry" />
        </mxCell>
        <mxCell id="X89wkOB1TVb4V39qwBD7-89" style="edgeStyle=orthogonalEdgeStyle;rounded=0;orthogonalLoop=1;jettySize=auto;html=1;exitX=0.5;exitY=1;exitDx=0;exitDy=0;entryX=0.5;entryY=0;entryDx=0;entryDy=0;" edge="1" parent="SILK54dHAvNOzjB8yKQB-1">
          <mxGeometry relative="1" as="geometry">
            <mxPoint x="240.25" y="812" as="sourcePoint" />
            <mxPoint x="240.25" y="827.5" as="targetPoint" />
          </mxGeometry>
        </mxCell>
        <mxCell id="X89wkOB1TVb4V39qwBD7-96" value="电力消耗最低" style="rounded=1;whiteSpace=wrap;html=1;" vertex="1" parent="SILK54dHAvNOzjB8yKQB-1">
          <mxGeometry x="434.5" y="861" width="95" height="20" as="geometry" />
        </mxCell>
        <mxCell id="X89wkOB1TVb4V39qwBD7-97" value="数据中心最近" style="rounded=1;whiteSpace=wrap;html=1;" vertex="1" parent="SILK54dHAvNOzjB8yKQB-1">
          <mxGeometry x="538.13" y="861" width="95" height="20" as="geometry" />
        </mxCell>
        <mxCell id="X89wkOB1TVb4V39qwBD7-98" value="" style="shape=doubleArrow;whiteSpace=wrap;html=1;strokeColor=#CCE5FF;fillColor=#7EA6E0;" vertex="1" parent="SILK54dHAvNOzjB8yKQB-1">
          <mxGeometry x="300" y="794" width="121.13" height="18" as="geometry" />
        </mxCell>
        <mxCell id="X89wkOB1TVb4V39qwBD7-100" value="&lt;font style=&quot;font-weight: normal ; font-size: 11px&quot;&gt;提交决策请求&lt;/font&gt;" style="text;strokeColor=none;fillColor=none;html=1;fontSize=24;fontStyle=1;verticalAlign=middle;align=center;" vertex="1" parent="SILK54dHAvNOzjB8yKQB-1">
          <mxGeometry x="326.07" y="776" width="79" height="20" as="geometry" />
        </mxCell>
        <mxCell id="X89wkOB1TVb4V39qwBD7-101" value="&lt;span style=&quot;font-size: 11px ; font-weight: 400&quot;&gt;获取决策支持&lt;/span&gt;" style="text;strokeColor=none;fillColor=none;html=1;fontSize=24;fontStyle=1;verticalAlign=middle;align=center;" vertex="1" parent="SILK54dHAvNOzjB8yKQB-1">
          <mxGeometry x="326.07" y="805" width="79" height="20" as="geometry" />
        </mxCell>
        <mxCell id="X89wkOB1TVb4V39qwBD7-103" value="" style="rounded=0;whiteSpace=wrap;html=1;dashed=1;fillColor=#dae8fc;strokeColor=#6c8ebf;gradientColor=none;" vertex="1" parent="SILK54dHAvNOzjB8yKQB-1">
          <mxGeometry x="280.75" y="958" width="138.25" height="168" as="geometry" />
        </mxCell>
        <mxCell id="X89wkOB1TVb4V39qwBD7-104" value="算力任务执行器" style="rounded=1;whiteSpace=wrap;html=1;fillColor=#9999FF;strokeColor=#d79b00;" vertex="1" parent="SILK54dHAvNOzjB8yKQB-1">
          <mxGeometry x="285.75" y="966.5" width="123.25" height="24" as="geometry" />
        </mxCell>
        <mxCell id="X89wkOB1TVb4V39qwBD7-105" value="作业执行" style="rounded=1;whiteSpace=wrap;html=1;fillColor=#dae8fc;strokeColor=#6c8ebf;gradientColor=#7ea6e0;" vertex="1" parent="SILK54dHAvNOzjB8yKQB-1">
          <mxGeometry x="296.88" y="1037.5" width="101" height="27" as="geometry" />
        </mxCell>
        <mxCell id="X89wkOB1TVb4V39qwBD7-106" value="作业提交" style="rounded=1;whiteSpace=wrap;html=1;fillColor=#dae8fc;strokeColor=#6c8ebf;gradientColor=#7ea6e0;" vertex="1" parent="SILK54dHAvNOzjB8yKQB-1">
          <mxGeometry x="296.88" y="999" width="101" height="27" as="geometry" />
        </mxCell>
        <mxCell id="X89wkOB1TVb4V39qwBD7-107" value="作业监控" style="rounded=1;whiteSpace=wrap;html=1;fillColor=#dae8fc;strokeColor=#6c8ebf;gradientColor=#7ea6e0;" vertex="1" parent="SILK54dHAvNOzjB8yKQB-1">
          <mxGeometry x="296.88" y="1077.5" width="101" height="27" as="geometry" />
        </mxCell>
        <mxCell id="X89wkOB1TVb4V39qwBD7-111" value="" style="rounded=0;whiteSpace=wrap;html=1;dashed=1;" vertex="1" parent="SILK54dHAvNOzjB8yKQB-1">
          <mxGeometry x="508" y="538" width="160" height="109" as="geometry" />
        </mxCell>
        <mxCell id="X89wkOB1TVb4V39qwBD7-112" value="规则决策分析" style="rounded=1;whiteSpace=wrap;html=1;fillColor=#0050EF;strokeColor=#001DBC;fontSize=14;fontColor=#ffffff;" vertex="1" parent="SILK54dHAvNOzjB8yKQB-1">
          <mxGeometry x="508" y="517" width="159" height="20" as="geometry" />
        </mxCell>
        <mxCell id="X89wkOB1TVb4V39qwBD7-113" value="决策路径追踪" style="rounded=1;whiteSpace=wrap;html=1;" vertex="1" parent="SILK54dHAvNOzjB8yKQB-1">
          <mxGeometry x="513" y="548" width="151" height="20" as="geometry" />
        </mxCell>
        <mxCell id="X89wkOB1TVb4V39qwBD7-114" value="决策日志分析" style="rounded=1;whiteSpace=wrap;html=1;" vertex="1" parent="SILK54dHAvNOzjB8yKQB-1">
          <mxGeometry x="512" y="580" width="151" height="20" as="geometry" />
        </mxCell>
        <mxCell id="X89wkOB1TVb4V39qwBD7-151" style="edgeStyle=orthogonalEdgeStyle;rounded=0;orthogonalLoop=1;jettySize=auto;html=1;entryX=0;entryY=0.5;entryDx=0;entryDy=0;fontSize=11;" edge="1" parent="SILK54dHAvNOzjB8yKQB-1" source="X89wkOB1TVb4V39qwBD7-115" target="X89wkOB1TVb4V39qwBD7-127">
          <mxGeometry relative="1" as="geometry" />
        </mxCell>
        <mxCell id="X89wkOB1TVb4V39qwBD7-115" value="决策结果评估" style="rounded=1;whiteSpace=wrap;html=1;fillColor=#f8cecc;strokeColor=#b85450;" vertex="1" parent="SILK54dHAvNOzjB8yKQB-1">
          <mxGeometry x="513" y="613" width="148" height="20" as="geometry" />
        </mxCell>
        <mxCell id="X89wkOB1TVb4V39qwBD7-116" value="" style="rounded=0;whiteSpace=wrap;html=1;dashed=1;" vertex="1" parent="SILK54dHAvNOzjB8yKQB-1">
          <mxGeometry x="319.25" y="539" width="160" height="109" as="geometry" />
        </mxCell>
        <mxCell id="X89wkOB1TVb4V39qwBD7-117" value="任务调度追踪" style="rounded=1;whiteSpace=wrap;html=1;fillColor=#0050EF;strokeColor=#001DBC;fontSize=14;fontColor=#ffffff;" vertex="1" parent="SILK54dHAvNOzjB8yKQB-1">
          <mxGeometry x="319.25" y="518" width="159" height="20" as="geometry" />
        </mxCell>
        <mxCell id="X89wkOB1TVb4V39qwBD7-118" value="任务执行追踪" style="rounded=1;whiteSpace=wrap;html=1;" vertex="1" parent="SILK54dHAvNOzjB8yKQB-1">
          <mxGeometry x="324.25" y="549" width="151" height="20" as="geometry" />
        </mxCell>
        <mxCell id="X89wkOB1TVb4V39qwBD7-119" value="任务历史和详情" style="rounded=1;whiteSpace=wrap;html=1;" vertex="1" parent="SILK54dHAvNOzjB8yKQB-1">
          <mxGeometry x="323.25" y="581" width="151" height="20" as="geometry" />
        </mxCell>
        <mxCell id="X89wkOB1TVb4V39qwBD7-120" value="任务执行日志" style="rounded=1;whiteSpace=wrap;html=1;" vertex="1" parent="SILK54dHAvNOzjB8yKQB-1">
          <mxGeometry x="324.25" y="614" width="151" height="20" as="geometry" />
        </mxCell>
        <mxCell id="X89wkOB1TVb4V39qwBD7-124" value="调度中心" style="text;strokeColor=none;fillColor=none;html=1;fontSize=24;fontStyle=1;verticalAlign=middle;align=center;" vertex="1" parent="SILK54dHAvNOzjB8yKQB-1">
          <mxGeometry x="362" y="440" width="81" height="34" as="geometry" />
        </mxCell>
        <mxCell id="X89wkOB1TVb4V39qwBD7-153" style="edgeStyle=orthogonalEdgeStyle;rounded=0;orthogonalLoop=1;jettySize=auto;html=1;entryX=0.5;entryY=0;entryDx=0;entryDy=0;fontSize=11;" edge="1" parent="SILK54dHAvNOzjB8yKQB-1" source="X89wkOB1TVb4V39qwBD7-127" target="X89wkOB1TVb4V39qwBD7-128">
          <mxGeometry relative="1" as="geometry" />
        </mxCell>
        <mxCell id="X89wkOB1TVb4V39qwBD7-127" value="决策样本数据收集" style="rounded=1;whiteSpace=wrap;html=1;fillColor=#f8cecc;strokeColor=#b85450;" vertex="1" parent="SILK54dHAvNOzjB8yKQB-1">
          <mxGeometry x="760" y="589" width="110" height="41" as="geometry" />
        </mxCell>
        <mxCell id="X89wkOB1TVb4V39qwBD7-154" style="edgeStyle=orthogonalEdgeStyle;rounded=0;orthogonalLoop=1;jettySize=auto;html=1;entryX=0.5;entryY=0;entryDx=0;entryDy=0;fontSize=11;" edge="1" parent="SILK54dHAvNOzjB8yKQB-1" source="X89wkOB1TVb4V39qwBD7-128" target="X89wkOB1TVb4V39qwBD7-129">
          <mxGeometry relative="1" as="geometry" />
        </mxCell>
        <mxCell id="X89wkOB1TVb4V39qwBD7-128" value="样本数据清理" style="rounded=1;whiteSpace=wrap;html=1;fillColor=#f8cecc;strokeColor=#b85450;" vertex="1" parent="SILK54dHAvNOzjB8yKQB-1">
          <mxGeometry x="767.5" y="670" width="95" height="41" as="geometry" />
        </mxCell>
        <mxCell id="X89wkOB1TVb4V39qwBD7-155" style="edgeStyle=orthogonalEdgeStyle;rounded=0;orthogonalLoop=1;jettySize=auto;html=1;fontSize=11;" edge="1" parent="SILK54dHAvNOzjB8yKQB-1" source="X89wkOB1TVb4V39qwBD7-129" target="X89wkOB1TVb4V39qwBD7-135">
          <mxGeometry relative="1" as="geometry">
            <Array as="points">
              <mxPoint x="815" y="828" />
            </Array>
          </mxGeometry>
        </mxCell>
        <mxCell id="X89wkOB1TVb4V39qwBD7-129" value="算法特征配置" style="rounded=1;whiteSpace=wrap;html=1;fillColor=#f8cecc;strokeColor=#b85450;" vertex="1" parent="SILK54dHAvNOzjB8yKQB-1">
          <mxGeometry x="767.5" y="746" width="95" height="44" as="geometry" />
        </mxCell>
        <mxCell id="X89wkOB1TVb4V39qwBD7-158" style="edgeStyle=orthogonalEdgeStyle;rounded=0;orthogonalLoop=1;jettySize=auto;html=1;entryX=0.5;entryY=0;entryDx=0;entryDy=0;fontSize=11;" edge="1" parent="SILK54dHAvNOzjB8yKQB-1" source="X89wkOB1TVb4V39qwBD7-134" target="X89wkOB1TVb4V39qwBD7-136">
          <mxGeometry relative="1" as="geometry" />
        </mxCell>
        <mxCell id="X89wkOB1TVb4V39qwBD7-134" value="离线训练" style="rounded=1;whiteSpace=wrap;html=1;fillColor=#f8cecc;strokeColor=#b85450;" vertex="1" parent="SILK54dHAvNOzjB8yKQB-1">
          <mxGeometry x="931.73" y="890" width="99.27" height="34.5" as="geometry" />
        </mxCell>
        <mxCell id="X89wkOB1TVb4V39qwBD7-156" style="edgeStyle=orthogonalEdgeStyle;rounded=0;orthogonalLoop=1;jettySize=auto;html=1;exitX=0.5;exitY=1;exitDx=0;exitDy=0;entryX=0.5;entryY=0;entryDx=0;entryDy=0;fontSize=11;" edge="1" parent="SILK54dHAvNOzjB8yKQB-1" source="X89wkOB1TVb4V39qwBD7-135" target="X89wkOB1TVb4V39qwBD7-134">
          <mxGeometry relative="1" as="geometry" />
        </mxCell>
        <mxCell id="X89wkOB1TVb4V39qwBD7-135" value="随机决策森林算法训练" style="rounded=1;whiteSpace=wrap;html=1;fillColor=#f8cecc;strokeColor=#b85450;" vertex="1" parent="SILK54dHAvNOzjB8yKQB-1">
          <mxGeometry x="913.07" y="802" width="136.93" height="46" as="geometry" />
        </mxCell>
        <mxCell id="X89wkOB1TVb4V39qwBD7-136" value="生成规则模型" style="rounded=1;whiteSpace=wrap;html=1;fillColor=#f8cecc;strokeColor=#b85450;" vertex="1" parent="SILK54dHAvNOzjB8yKQB-1">
          <mxGeometry x="929.73" y="960" width="101.62" height="32.5" as="geometry" />
        </mxCell>
        <mxCell id="X89wkOB1TVb4V39qwBD7-138" value="规则注册" style="rounded=1;whiteSpace=wrap;html=1;arcSize=17;" vertex="1" parent="SILK54dHAvNOzjB8yKQB-1">
          <mxGeometry x="568.13" y="1006.5" width="88" height="25.5" as="geometry" />
        </mxCell>
        <mxCell id="X89wkOB1TVb4V39qwBD7-139" style="edgeStyle=orthogonalEdgeStyle;rounded=0;orthogonalLoop=1;jettySize=auto;html=1;exitX=0.5;exitY=1;exitDx=0;exitDy=0;entryX=0.5;entryY=0;entryDx=0;entryDy=0;" edge="1" parent="SILK54dHAvNOzjB8yKQB-1" source="11j2IEYDevcU4qgA-R8J-24" target="11j2IEYDevcU4qgA-R8J-27">
          <mxGeometry relative="1" as="geometry">
            <mxPoint x="516.1300000000001" y="1032" as="sourcePoint" />
            <mxPoint x="516.1300000000001" y="1089.9999999999998" as="targetPoint" />
            <Array as="points">
              <mxPoint x="610" y="1032" />
              <mxPoint x="610" y="1054" />
              <mxPoint x="516" y="1054" />
            </Array>
          </mxGeometry>
        </mxCell>
        <mxCell id="X89wkOB1TVb4V39qwBD7-161" value="AI 智能分析平台" style="rounded=1;whiteSpace=wrap;html=1;fillColor=#C3ABD0;strokeColor=#d79b00;fontSize=14;arcSize=9;" vertex="1" parent="SILK54dHAvNOzjB8yKQB-1">
          <mxGeometry x="730" y="535" width="350" height="25" as="geometry" />
        </mxCell>
      </root>
    </mxGraphModel>
  </diagram>
</mxfile>
